<?xml version="1.0" encoding="utf-8"?>
<!-- Generator: Adobe Illustrator 26.3.1, SVG Export Plug-In . SVG Version: 6.00 Build 0)  -->
<svg version="1.1" id="Livello_1" xmlns="http://www.w3.org/2000/svg" xmlns:xlink="http://www.w3.org/1999/xlink" x="0px" y="0px"
	 viewBox="0 0 520.4 196.8" style="enable-background:new 0 0 520.4 196.8;" xml:space="preserve">
<style type="text/css">
	.st0{fill:#29ABE2;}
	.st1{fill:#FF0000;}
	.st2{fill:#000066;}
</style>
<g>
	<g>
		<g>
			<path class="st0" d="M148,147.2c-7.1,0-13.9-1.9-20.4-5.7c-14.7-8.6-16.2-41-16.2-42.1c-0.1-2.4,1.8-4.5,4.2-4.7
				c2.5-0.1,4.5,1.8,4.7,4.2c0.3,6.3,3.1,29.8,11.9,34.9c8.3,4.9,17.2,5.8,27.1,2.7c7.1-2.2,12.9-10.1,18-17
				c3.2-4.4,6.3-8.5,9.6-11.4c7.6-6.4,17.3-6.6,18.4-6.6c2.5,0,4.4,2,4.4,4.4s-2,4.4-4.4,4.4c-0.1,0-7.4,0.1-12.6,4.5
				c-2.6,2.2-5.3,5.9-8.3,9.9c-5.9,8-12.7,17.2-22.6,20.2C157.1,146.5,152.5,147.2,148,147.2z"/>
			<path class="st0" d="M148,149.2c-7.5,0-14.5-2-21.4-6c-15.6-9.1-17.2-42.6-17.2-43.8c-0.2-3.6,2.6-6.6,6.1-6.8s6.6,2.6,6.8,6.1
				c0.3,5.6,2.9,28.6,10.9,33.3c7.8,4.6,16.2,5.4,25.5,2.5c6.5-2,12.1-9.6,17-16.3c3.3-4.5,6.4-8.7,10-11.7
				c8.1-6.9,18.5-7.1,19.6-7.1c3.6,0,6.4,2.9,6.4,6.4s-2.9,6.4-6.4,6.4c-0.1,0-6.7,0.1-11.3,4c-2.4,2.1-5.1,5.7-7.9,9.5
				c-6.1,8.3-13.1,17.7-23.6,20.9C157.5,148.5,152.7,149.2,148,149.2z M115.8,96.7c0,0-0.1,0-0.1,0c-1.3,0.1-2.4,1.2-2.3,2.6
				c0.1,1.1,1.5,32.4,15.3,40.5c6.3,3.7,12.6,5.5,19.4,5.5c4.2,0,8.7-0.7,13.2-2.1c9.2-2.9,15.8-11.7,21.5-19.5
				c3-4,5.8-7.9,8.6-10.2c5.8-4.9,13.6-5,13.9-5c1.4,0,2.4-1.1,2.4-2.4s-1.1-2.4-2.4-2.4c-1,0-10,0.2-17.1,6.1
				c-3.2,2.7-6.2,6.8-9.3,11c-5.3,7.2-11.3,15.3-19.1,17.7c-10.5,3.2-19.9,2.3-28.7-2.9c-11.5-6.7-12.8-36.3-12.8-36.5
				C118.2,97.7,117.1,96.7,115.8,96.7z"/>
		</g>
	</g>
	<g>
		<g>
			<path class="st0" d="M78.5,2.3c-32,0-57.8,25.9-57.8,57.8s28.2,26.7,60.1,26.7s55.6,5.2,55.6-26.7S110.4,2.3,78.5,2.3z
				 M103.2,57.3c0,8.3-6.7,15-15,15c-3.7,0-7.1-1.3-9.7-3.6c-2.6,2.2-6,3.6-9.7,3.6c-8.3,0-15-6.7-15-15c0-3.7,1.3-7.1,3.6-9.7
				c-2.2-2.6-3.6-6-3.6-9.7c0-8.3,6.7-15,15-15c3.7,0,7.1,1.3,9.7,3.6c2.6-2.2,6-3.6,9.7-3.6c8.3,0,15,6.7,15,15
				c0,3.7-1.3,7.1-3.6,9.7C101.8,50.2,103.2,53.6,103.2,57.3z"/>
		</g>
	</g>
	<g>
		<g>
			<path class="st1" d="M69.5,40.4c-3.3,0-6,2.7-6,6v2.4c0,3.3,2.7,6,6,6s6-2.7,6-6v-2.4C75.4,43.1,72.7,40.4,69.5,40.4z"/>
		</g>
		<g>
			<path class="st1" d="M69.5,55c-3.4,0-6.2-2.8-6.2-6.2v-2.4c0-3.4,2.8-6.2,6.2-6.2c3.4,0,6.2,2.8,6.2,6.2v2.4
				C75.7,52.2,72.9,55,69.5,55z M69.5,40.6c-3.2,0-5.7,2.6-5.7,5.7v2.4c0,3.2,2.6,5.7,5.7,5.7s5.7-2.6,5.7-5.7v-2.4
				C75.2,43.2,72.6,40.6,69.5,40.6z"/>
		</g>
	</g>
	<g>
		<g>
			<path class="st1" d="M88,40.4L88,40.4c-3.3,0-6,2.7-6,6v2.4c0,3.3,2.7,6,6,6l0,0c3.3,0,6-2.7,6-6v-2.4C94,43.1,91.3,40.4,88,40.4
				z"/>
		</g>
		<g>
			<path class="st1" d="M88,55c-3.4,0-6.2-2.8-6.2-6.2v-2.4c0-3.4,2.8-6.2,6.2-6.2c3.4,0,6.2,2.8,6.2,6.2v2.4
				C94.2,52.2,91.4,55,88,55z M88,40.6c-3.2,0-5.7,2.6-5.7,5.7v2.4c0,3.2,2.6,5.7,5.7,5.7c3.2,0,5.7-2.6,5.7-5.7v-2.4
				C93.8,43.2,91.2,40.6,88,40.6z"/>
		</g>
	</g>
	<g>
		<g>
			<path class="st2" d="M102.6,183.6c-0.6,0-1.1-0.1-1.7-0.4c-1.8-0.8-7.8-4.9-7.8-22.9V99c0-2.3,1.8-4.1,4.1-4.1
				c2.3,0,4.1,1.8,4.1,4.1v61.3c0,12.1,2.9,15.2,3.3,15.6c1.8,1,2.6,3.3,1.7,5.2C105.7,182.7,104.2,183.6,102.6,183.6z M104.7,175.9
				L104.7,175.9L104.7,175.9z M104.3,175.7L104.3,175.7L104.3,175.7z M104.3,175.7L104.3,175.7L104.3,175.7z M104.3,175.7
				L104.3,175.7L104.3,175.7z"/>
			<path class="st2" d="M102.6,185.6L102.6,185.6c-0.9,0-1.7-0.2-2.5-0.5c-2.7-1.2-9-6-9-24.7V99c0-3.4,2.7-6.1,6.1-6.1
				s6.1,2.7,6.1,6.1v61.3c0,10.1,2.1,13.4,2.6,14c2.5,1.6,3.5,4.8,2.2,7.6C107.2,184.1,105,185.6,102.6,185.6z M97.3,96.9
				c-1.2,0-2.1,0.9-2.1,2.1v61.3c0,17.2,5.5,20.6,6.6,21.1c1.1,0.5,2.3,0,2.8-1.1c0.4-0.9,0.1-2-0.8-2.6h-0.1l-0.5-0.3l0-0.1l0,0
				c0,0-0.1-0.1-0.2-0.1l-0.1,0.1l0.1-0.1c-1.1-1.1-3.8-5.1-3.8-16.9V99C99.4,97.8,98.5,96.9,97.3,96.9z"/>
		</g>
	</g>
	<g>
		<g>
			<path class="st2" d="M79.1,157.5c-2.3,0-4.1-1.8-4.1-4.1V99c0-2.3,1.8-4.1,4.1-4.1c2.3,0,4.1,1.8,4.1,4.1v54.4
				C83.2,155.6,81.4,157.5,79.1,157.5z"/>
			<path class="st2" d="M79.1,159.5c-3.4,0-6.1-2.7-6.1-6.1V99c0-3.4,2.7-6.1,6.1-6.1s6.1,2.7,6.1,6.1v54.4
				C85.2,156.8,82.5,159.5,79.1,159.5z M79.1,96.9C78,96.9,77,97.8,77,99v54.4c0,1.2,0.9,2.1,2.1,2.1s2.1-0.9,2.1-2.1V99
				C81.2,97.8,80.3,96.9,79.1,96.9z"/>
		</g>
	</g>
	<g>
		<g>
			<path class="st2" d="M60.9,169.7c-2.3,0-4.1-1.8-4.1-4.1V99c0-2.3,1.8-4.1,4.1-4.1S65,96.7,65,99v66.6
				C65,167.8,63.2,169.7,60.9,169.7z"/>
			<path class="st2" d="M60.9,171.7c-3.4,0-6.1-2.7-6.1-6.1V99c0-3.4,2.7-6.1,6.1-6.1S67,95.6,67,99v66.6
				C67,168.9,64.3,171.7,60.9,171.7z M60.9,96.9c-1.2,0-2.1,0.9-2.1,2.1v66.6c0,1.2,0.9,2.1,2.1,2.1s2.1-0.9,2.1-2.1V99
				C63,97.8,62.1,96.9,60.9,96.9z"/>
		</g>
	</g>
	<g>
		<g>
			<path class="st2" d="M7.4,193.8c-2.3,0-4.1-1.8-4.1-4.1c0-0.4,0-0.9,0-1.5c-0.2-11.5,0.3-25.6,6.1-32.4c4.5-5.3,9.2-7.4,13.4-9.3
				c3.9-1.8,6.9-3.1,9.4-6.9c5.3-8,6.4-15.9,6.4-25.3c0-5.8,0-14.8,0-18.2c0-1.9,0,5,0,2.2c0-2.3,1.8-4.1,4.1-4.1
				c2.3,0,4.1,1.8,4.1,4.1c0,2.8,0-4.1,0-2.2c0,3.4,0,12.4,0,18.2c0,9.5-0.9,19.6-7.8,29.9c-3.8,5.7-8.6,7.9-12.9,9.8
				c-3.7,1.7-7.2,3.2-10.5,7.2c-3,3.5-4.4,12.6-4.2,26.9c0,0.7,0,1.3,0,1.7C11.5,191.9,9.6,193.8,7.4,193.8z"/>
			<path class="st2" d="M7.4,195.8c-3.4,0-6.1-2.7-6.1-6.1c0-0.4,0-0.8,0-1.4c-0.2-11.9,0.3-26.4,6.6-33.8c4.8-5.6,9.7-7.9,14.1-9.8
				c3.7-1.7,6.4-2.9,8.6-6.2c5.1-7.6,6.1-15.1,6.1-24.2c0-5.8,0-4.8,0-8.2c0,28.1,0,25,0-7.8c0-3.4,2.7-6.1,6.1-6.1s6.1,2.7,6.1,6.1
				c0,2.8,0,25.9,0,27.8c0,3.5,0-17.6,0-11.8c0,9.8-0.9,20.3-8.1,31c-4.2,6.2-9.4,8.6-13.7,10.5c-3.6,1.6-6.8,3.1-9.8,6.6
				c-1.9,2.2-4,8.4-3.7,25.6c0,0.7,0,1.3,0,1.7C13.5,193,10.8,195.8,7.4,195.8z M42.7,96.1c-1.2,0-2.1,0.9-2.1,2.1
				c0,2.8,0-4.1,0-2.2c0,3.4,0,12.4,0,18.2c0,9.8-1.1,18-6.7,26.5c-2.9,4.2-6.3,5.8-10.3,7.6c-4.1,1.9-8.4,3.8-12.7,8.8
				c-5.4,6.3-5.9,19.9-5.7,31c0,0.7,0,1.2,0,1.6c0,1.2,0.9,2.1,2.1,2.1s2.1-0.9,2.1-2.1c0-0.4,0-1,0-1.6c-0.3-15,1.2-24.2,4.6-28.2
				c3.6-4.2,7.5-6,11.2-7.7c4.2-1.9,8.5-3.9,12-9.1c6.6-9.8,7.5-19.7,7.5-28.8c0-5.8,0-14.7,0-18.1c0-2,0,4.9,0,2.1
				C44.8,97,43.9,96.1,42.7,96.1z"/>
		</g>
	</g>
	<g>
		<path class="st2" d="M240.7,35.6c9.3,0,16.9,7.6,16.9,16.9v42.9c0,9-2.6,16.5-7.7,22.3c-5.1,5.9-11.6,8.8-19.4,8.8
			c-2.1,0-4.4-0.4-7.1-1.2c-0.6-0.2-1-0.7-1-1.3v-22.6c0-0.9,0.8-1.6,1.7-1.3c0.7,0.2,1.3,0.3,1.9,0.3c3.5,0,5.2-2.8,5.2-8.4v-55
			c0-0.8,0.6-1.4,1.4-1.4H240.7z"/>
	</g>
	<g>
		<path class="st2" d="M320.1,71.5v17c0,0.8-0.6,1.4-1.4,1.4h-15.9c-2.3,0-4,0.3-5,1s-1.5,1.9-1.5,3.5c0,1.9,0.5,3.1,1.5,3.7
			c1,0.6,3,0.9,6.1,0.9h16.4c0.8,0,1.4,0.6,1.4,1.4V123c0,0.8-0.6,1.4-1.4,1.4H301c-9.8,0-17.2-2.3-22.4-7s-7.7-11.4-7.7-20.2V62.4
			c0-8.5,2.4-15.1,7.3-19.8s11.7-7,20.6-7h21.6c0.8,0,1.4,0.6,1.4,1.4v22.8c0,0.8-0.6,1.4-1.4,1.4h-15.5c-4.5,0-6.8,1.5-6.8,4.4
			c0,1.7,0.5,2.9,1.6,3.6c1.1,0.7,3,1,5.8,1h13.2C319.5,70.1,320.1,70.7,320.1,71.5z"/>
	</g>
	<g>
		<path class="st2" d="M336.1,36.2h7.7c12,0,21.6,9.7,21.6,21.6v82.4c0,4.8,0.8,8,2.3,9.6c1.5,1.6,4.6,2.4,9.2,2.4l0,0
			c0.9,0,1.6,0.7,1.6,1.6v27c0,0.9-0.7,1.6-1.6,1.6h-6.6c-11.3,0-20.1-3.3-26.4-9.9s-9.5-15.7-9.5-27.4V37.8
			C334.5,36.9,335.2,36.2,336.1,36.2z"/>
	</g>
	<g>
		<path class="st2" d="M388.5,36.2h11.6c9.8,0,17.7,7.9,17.7,17.7v86.4c0,4.8,0.8,8,2.3,9.6c1.5,1.6,4.6,2.4,9.2,2.4l0,0
			c0.9,0,1.6,0.7,1.6,1.6v27c0,0.9-0.7,1.6-1.6,1.6h-6.6c-11.3,0-20.1-3.3-26.4-9.9s-9.5-15.7-9.5-27.4V37.8
			C386.9,36.9,387.6,36.2,388.5,36.2z"/>
	</g>
	<g>
		<path class="st2" d="M461,75.8v14.5c0,0.8-0.6,1.4-1.4,1.4h-27c-0.8,0-1.4-0.6-1.4-1.4V75.8c0-0.8,0.6-1.4,1.4-1.4h27
			C460.3,74.5,461,75.1,461,75.8z"/>
	</g>
	<g>
		<path class="st0" d="M517.4,71.5v17c0,0.8-0.6,1.4-1.4,1.4h-15.9c-2.3,0-4,0.3-5,1s-1.5,1.9-1.5,3.5c0,1.9,0.5,3.1,1.5,3.7
			c1,0.6,3,0.9,6.1,0.9h16.4c0.8,0,1.4,0.6,1.4,1.4V123c0,0.8-0.6,1.4-1.4,1.4h-19.4c-9.8,0-17.2-2.3-22.4-7s-7.7-11.4-7.7-20.2
			V62.4c0-8.5,2.4-15.1,7.3-19.8s11.7-7,20.6-7h21.6c0.8,0,1.4,0.6,1.4,1.4v22.8c0,0.8-0.6,1.4-1.4,1.4h-15.5
			c-4.5,0-6.8,1.5-6.8,4.4c0,1.7,0.5,2.9,1.6,3.6c1.1,0.7,3,1,5.8,1h13.2C516.8,70.1,517.4,70.7,517.4,71.5z"/>
	</g>
</g>
</svg>
