solid OpenSCAD_Model
  facet normal 1 -0 0
    outer loop
      vertex 4.8 -12 12
      vertex 4.8 -1.4 0
      vertex 4.8 -1.4 12
    endloop
  endfacet
  facet normal 1 0 0
    outer loop
      vertex 4.8 -1.4 0
      vertex 4.8 -12 12
      vertex 4.8 -12 0
    endloop
  endfacet
  facet normal 0 -1 0
    outer loop
      vertex -6 -12 0
      vertex 4.8 -12 12
      vertex -6 -12 12
    endloop
  endfacet
  facet normal 0 -1 -0
    outer loop
      vertex 4.8 -12 12
      vertex -6 -12 0
      vertex 4.8 -12 0
    endloop
  endfacet
  facet normal 0 1 -0
    outer loop
      vertex 8.2 0 0
      vertex 3.4 0 12
      vertex 8.2 0 12
    endloop
  endfacet
  facet normal 0 1 0
    outer loop
      vertex 3.4 0 12
      vertex 8.2 0 0
      vertex 3.4 0 0
    endloop
  endfacet
  facet normal -1 0 0
    outer loop
      vertex 3.4 -10.6 0
      vertex 3.4 0 12
      vertex 3.4 0 0
    endloop
  endfacet
  facet normal -1 -0 0
    outer loop
      vertex 3.4 0 12
      vertex 3.4 -10.6 0
      vertex 3.4 -10.6 12
    endloop
  endfacet
  facet normal 0 0 1
    outer loop
      vertex -4.6 0 12
      vertex -6 0 12
      vertex -4.6 -10.6 12
    endloop
  endfacet
  facet normal 0 0 1
    outer loop
      vertex 8.2 0 12
      vertex 6.8 -1.4 12
      vertex 8.2 -10.6 12
    endloop
  endfacet
  facet normal 0 0 1
    outer loop
      vertex 8.2 0 12
      vertex 4.8 -1.4 12
      vertex 6.8 -1.4 12
    endloop
  endfacet
  facet normal -0 0 1
    outer loop
      vertex 3.4 0 12
      vertex 4.8 -1.4 12
      vertex 8.2 0 12
    endloop
  endfacet
  facet normal 0 0 1
    outer loop
      vertex 3.4 -10.6 12
      vertex 4.8 -1.4 12
      vertex 3.4 0 12
    endloop
  endfacet
  facet normal 0 0 1
    outer loop
      vertex 4.8 -1.4 12
      vertex 3.4 -10.6 12
      vertex 4.8 -12 12
    endloop
  endfacet
  facet normal -0 0 1
    outer loop
      vertex -4.6 -10.6 12
      vertex 4.8 -12 12
      vertex 3.4 -10.6 12
    endloop
  endfacet
  facet normal 0 0 1
    outer loop
      vertex -4.6 -10.6 12
      vertex -6 -12 12
      vertex 4.8 -12 12
    endloop
  endfacet
  facet normal 0 0 1
    outer loop
      vertex -6 -12 12
      vertex -4.6 -10.6 12
      vertex -6 0 12
    endloop
  endfacet
  facet normal 0 0 1
    outer loop
      vertex 15 0 12
      vertex 13.6 -1.4 12
      vertex 15 -10.6 12
    endloop
  endfacet
  facet normal 0 0 1
    outer loop
      vertex 15 0 12
      vertex 11.6 -1.4 12
      vertex 13.6 -1.4 12
    endloop
  endfacet
  facet normal -0 0 1
    outer loop
      vertex 10.2 0 12
      vertex 11.6 -1.4 12
      vertex 15 0 12
    endloop
  endfacet
  facet normal 0 0 1
    outer loop
      vertex 10.2 -10.6 12
      vertex 11.6 -1.4 12
      vertex 10.2 0 12
    endloop
  endfacet
  facet normal 0 0 1
    outer loop
      vertex 11.6 -1.4 12
      vertex 10.2 -10.6 12
      vertex 11.6 -12 12
    endloop
  endfacet
  facet normal -0 0 1
    outer loop
      vertex 8.2 -10.6 12
      vertex 11.6 -12 12
      vertex 10.2 -10.6 12
    endloop
  endfacet
  facet normal 0 0 1
    outer loop
      vertex 8.2 -10.6 12
      vertex 6.8 -12 12
      vertex 11.6 -12 12
    endloop
  endfacet
  facet normal 0 0 1
    outer loop
      vertex 6.8 -12 12
      vertex 8.2 -10.6 12
      vertex 6.8 -1.4 12
    endloop
  endfacet
  facet normal 0 0 1
    outer loop
      vertex 21.8 0 12
      vertex 20.4 -1.4 12
      vertex 21.8 -10.6 12
    endloop
  endfacet
  facet normal 0 0 1
    outer loop
      vertex 21.8 0 12
      vertex 18.4 -1.4 12
      vertex 20.4 -1.4 12
    endloop
  endfacet
  facet normal -0 0 1
    outer loop
      vertex 17 0 12
      vertex 18.4 -1.4 12
      vertex 21.8 0 12
    endloop
  endfacet
  facet normal 0 0 1
    outer loop
      vertex 17 -10.6 12
      vertex 18.4 -1.4 12
      vertex 17 0 12
    endloop
  endfacet
  facet normal 0 0 1
    outer loop
      vertex 18.4 -1.4 12
      vertex 17 -10.6 12
      vertex 18.4 -12 12
    endloop
  endfacet
  facet normal -0 0 1
    outer loop
      vertex 15 -10.6 12
      vertex 18.4 -12 12
      vertex 17 -10.6 12
    endloop
  endfacet
  facet normal 0 0 1
    outer loop
      vertex 15 -10.6 12
      vertex 13.6 -12 12
      vertex 18.4 -12 12
    endloop
  endfacet
  facet normal 0 0 1
    outer loop
      vertex 13.6 -12 12
      vertex 15 -10.6 12
      vertex 13.6 -1.4 12
    endloop
  endfacet
  facet normal 0 0 1
    outer loop
      vertex 28.6 0 12
      vertex 27.2 -1.4 12
      vertex 28.6 -10.6 12
    endloop
  endfacet
  facet normal 0 0 1
    outer loop
      vertex 28.6 0 12
      vertex 25.2 -1.4 12
      vertex 27.2 -1.4 12
    endloop
  endfacet
  facet normal -0 0 1
    outer loop
      vertex 23.8 0 12
      vertex 25.2 -1.4 12
      vertex 28.6 0 12
    endloop
  endfacet
  facet normal 0 0 1
    outer loop
      vertex 23.8 -10.6 12
      vertex 25.2 -1.4 12
      vertex 23.8 0 12
    endloop
  endfacet
  facet normal 0 0 1
    outer loop
      vertex 25.2 -1.4 12
      vertex 23.8 -10.6 12
      vertex 25.2 -12 12
    endloop
  endfacet
  facet normal -0 0 1
    outer loop
      vertex 21.8 -10.6 12
      vertex 25.2 -12 12
      vertex 23.8 -10.6 12
    endloop
  endfacet
  facet normal 0 0 1
    outer loop
      vertex 21.8 -10.6 12
      vertex 20.4 -12 12
      vertex 25.2 -12 12
    endloop
  endfacet
  facet normal 0 0 1
    outer loop
      vertex 20.4 -12 12
      vertex 21.8 -10.6 12
      vertex 20.4 -1.4 12
    endloop
  endfacet
  facet normal 0 0 1
    outer loop
      vertex 35.4 0 12
      vertex 34 -1.4 12
      vertex 35.4 -10.6 12
    endloop
  endfacet
  facet normal 0 0 1
    outer loop
      vertex 35.4 0 12
      vertex 32 -1.4 12
      vertex 34 -1.4 12
    endloop
  endfacet
  facet normal 0 0 1
    outer loop
      vertex 30.6 -10.6 12
      vertex 32 -10.6 12
      vertex 32 -1.4 12
    endloop
  endfacet
  facet normal -0 0 1
    outer loop
      vertex 30.6 0 12
      vertex 32 -1.4 12
      vertex 35.4 0 12
    endloop
  endfacet
  facet normal 0 0 1
    outer loop
      vertex 30.6 -10.6 12
      vertex 32 -1.4 12
      vertex 30.6 0 12
    endloop
  endfacet
  facet normal 0 0 1
    outer loop
      vertex 32 -10.6 12
      vertex 30.6 -10.6 12
      vertex 32 -12 12
    endloop
  endfacet
  facet normal -0 0 1
    outer loop
      vertex 28.6 -10.6 12
      vertex 32 -12 12
      vertex 30.6 -10.6 12
    endloop
  endfacet
  facet normal 0 0 1
    outer loop
      vertex 28.6 -10.6 12
      vertex 27.2 -12 12
      vertex 32 -12 12
    endloop
  endfacet
  facet normal 0 0 1
    outer loop
      vertex 27.2 -12 12
      vertex 28.6 -10.6 12
      vertex 27.2 -1.4 12
    endloop
  endfacet
  facet normal 0 0 1
    outer loop
      vertex 48.2 0 12
      vertex 46.8 -1.4 12
      vertex 48.2 -12 12
    endloop
  endfacet
  facet normal 0 0 1
    outer loop
      vertex 48.2 0 12
      vertex 38.8 -1.4 12
      vertex 46.8 -1.4 12
    endloop
  endfacet
  facet normal -0 0 1
    outer loop
      vertex 37.4 0 12
      vertex 38.8 -1.4 12
      vertex 48.2 0 12
    endloop
  endfacet
  facet normal 0 0 1
    outer loop
      vertex 37.4 -10.6 12
      vertex 38.8 -1.4 12
      vertex 37.4 0 12
    endloop
  endfacet
  facet normal 0 0 1
    outer loop
      vertex 38.8 -1.4 12
      vertex 37.4 -10.6 12
      vertex 38.8 -12 12
    endloop
  endfacet
  facet normal -0 0 1
    outer loop
      vertex 35.4 -10.6 12
      vertex 38.8 -12 12
      vertex 37.4 -10.6 12
    endloop
  endfacet
  facet normal 0 0 1
    outer loop
      vertex 35.4 -10.6 12
      vertex 34 -12 12
      vertex 38.8 -12 12
    endloop
  endfacet
  facet normal 0 0 1
    outer loop
      vertex 34 -12 12
      vertex 35.4 -10.6 12
      vertex 34 -1.4 12
    endloop
  endfacet
  facet normal 0 0 1
    outer loop
      vertex 48.2 -12 12
      vertex 46.8 -1.4 12
      vertex 46.8 -12 12
    endloop
  endfacet
  facet normal 0 0 -1
    outer loop
      vertex 4.8 -12 0
      vertex 3.4 -10.6 0
      vertex 4.8 -1.4 0
    endloop
  endfacet
  facet normal 0 0 -1
    outer loop
      vertex 4.8 -12 0
      vertex -4.6 -10.6 0
      vertex 3.4 -10.6 0
    endloop
  endfacet
  facet normal 0 0 -1
    outer loop
      vertex -6 -12 0
      vertex -4.6 -10.6 0
      vertex 4.8 -12 0
    endloop
  endfacet
  facet normal 0 0 -1
    outer loop
      vertex -6 0 0
      vertex -4.6 -10.6 0
      vertex -6 -12 0
    endloop
  endfacet
  facet normal 0 0 -1
    outer loop
      vertex -4.6 -10.6 0
      vertex -6 0 0
      vertex -4.6 0 0
    endloop
  endfacet
  facet normal 0 0 -1
    outer loop
      vertex 11.6 -12 0
      vertex 10.2 -10.6 0
      vertex 11.6 -1.4 0
    endloop
  endfacet
  facet normal 0 0 -1
    outer loop
      vertex 11.6 -12 0
      vertex 8.2 -10.6 0
      vertex 10.2 -10.6 0
    endloop
  endfacet
  facet normal 0 0 -1
    outer loop
      vertex 6.8 -12 0
      vertex 8.2 -10.6 0
      vertex 11.6 -12 0
    endloop
  endfacet
  facet normal 0 0 -1
    outer loop
      vertex 6.8 -1.4 0
      vertex 8.2 -10.6 0
      vertex 6.8 -12 0
    endloop
  endfacet
  facet normal 0 0 -1
    outer loop
      vertex 8.2 -10.6 0
      vertex 6.8 -1.4 0
      vertex 8.2 0 0
    endloop
  endfacet
  facet normal 0 0 -1
    outer loop
      vertex 4.8 -1.4 0
      vertex 8.2 0 0
      vertex 6.8 -1.4 0
    endloop
  endfacet
  facet normal 0 0 -1
    outer loop
      vertex 4.8 -1.4 0
      vertex 3.4 0 0
      vertex 8.2 0 0
    endloop
  endfacet
  facet normal 0 0 -1
    outer loop
      vertex 3.4 0 0
      vertex 4.8 -1.4 0
      vertex 3.4 -10.6 0
    endloop
  endfacet
  facet normal 0 0 -1
    outer loop
      vertex 18.4 -12 0
      vertex 17 -10.6 0
      vertex 18.4 -1.4 0
    endloop
  endfacet
  facet normal 0 0 -1
    outer loop
      vertex 18.4 -12 0
      vertex 15 -10.6 0
      vertex 17 -10.6 0
    endloop
  endfacet
  facet normal 0 0 -1
    outer loop
      vertex 13.6 -12 0
      vertex 15 -10.6 0
      vertex 18.4 -12 0
    endloop
  endfacet
  facet normal 0 0 -1
    outer loop
      vertex 13.6 -1.4 0
      vertex 15 -10.6 0
      vertex 13.6 -12 0
    endloop
  endfacet
  facet normal 0 0 -1
    outer loop
      vertex 15 -10.6 0
      vertex 13.6 -1.4 0
      vertex 15 0 0
    endloop
  endfacet
  facet normal 0 0 -1
    outer loop
      vertex 11.6 -1.4 0
      vertex 15 0 0
      vertex 13.6 -1.4 0
    endloop
  endfacet
  facet normal 0 0 -1
    outer loop
      vertex 11.6 -1.4 0
      vertex 10.2 0 0
      vertex 15 0 0
    endloop
  endfacet
  facet normal 0 0 -1
    outer loop
      vertex 10.2 0 0
      vertex 11.6 -1.4 0
      vertex 10.2 -10.6 0
    endloop
  endfacet
  facet normal 0 0 -1
    outer loop
      vertex 25.2 -12 0
      vertex 23.8 -10.6 0
      vertex 25.2 -1.4 0
    endloop
  endfacet
  facet normal 0 0 -1
    outer loop
      vertex 25.2 -12 0
      vertex 21.8 -10.6 0
      vertex 23.8 -10.6 0
    endloop
  endfacet
  facet normal 0 0 -1
    outer loop
      vertex 20.4 -12 0
      vertex 21.8 -10.6 0
      vertex 25.2 -12 0
    endloop
  endfacet
  facet normal 0 0 -1
    outer loop
      vertex 20.4 -1.4 0
      vertex 21.8 -10.6 0
      vertex 20.4 -12 0
    endloop
  endfacet
  facet normal 0 0 -1
    outer loop
      vertex 21.8 -10.6 0
      vertex 20.4 -1.4 0
      vertex 21.8 0 0
    endloop
  endfacet
  facet normal 0 0 -1
    outer loop
      vertex 18.4 -1.4 0
      vertex 21.8 0 0
      vertex 20.4 -1.4 0
    endloop
  endfacet
  facet normal 0 0 -1
    outer loop
      vertex 18.4 -1.4 0
      vertex 17 0 0
      vertex 21.8 0 0
    endloop
  endfacet
  facet normal 0 0 -1
    outer loop
      vertex 17 0 0
      vertex 18.4 -1.4 0
      vertex 17 -10.6 0
    endloop
  endfacet
  facet normal 0 0 -1
    outer loop
      vertex 30.6 -10.6 0
      vertex 32 -10.6 0
      vertex 32 -12 0
    endloop
  endfacet
  facet normal 0 0 -1
    outer loop
      vertex 32 -10.6 0
      vertex 30.6 -10.6 0
      vertex 32 -1.4 0
    endloop
  endfacet
  facet normal 0 0 -1
    outer loop
      vertex 32 -12 0
      vertex 28.6 -10.6 0
      vertex 30.6 -10.6 0
    endloop
  endfacet
  facet normal 0 0 -1
    outer loop
      vertex 27.2 -12 0
      vertex 28.6 -10.6 0
      vertex 32 -12 0
    endloop
  endfacet
  facet normal 0 0 -1
    outer loop
      vertex 27.2 -1.4 0
      vertex 28.6 -10.6 0
      vertex 27.2 -12 0
    endloop
  endfacet
  facet normal 0 0 -1
    outer loop
      vertex 28.6 -10.6 0
      vertex 27.2 -1.4 0
      vertex 28.6 0 0
    endloop
  endfacet
  facet normal 0 0 -1
    outer loop
      vertex 25.2 -1.4 0
      vertex 28.6 0 0
      vertex 27.2 -1.4 0
    endloop
  endfacet
  facet normal 0 0 -1
    outer loop
      vertex 25.2 -1.4 0
      vertex 23.8 0 0
      vertex 28.6 0 0
    endloop
  endfacet
  facet normal 0 0 -1
    outer loop
      vertex 23.8 0 0
      vertex 25.2 -1.4 0
      vertex 23.8 -10.6 0
    endloop
  endfacet
  facet normal 0 0 -1
    outer loop
      vertex 38.8 -12 0
      vertex 37.4 -10.6 0
      vertex 38.8 -1.4 0
    endloop
  endfacet
  facet normal 0 0 -1
    outer loop
      vertex 38.8 -12 0
      vertex 35.4 -10.6 0
      vertex 37.4 -10.6 0
    endloop
  endfacet
  facet normal 0 0 -1
    outer loop
      vertex 34 -12 0
      vertex 35.4 -10.6 0
      vertex 38.8 -12 0
    endloop
  endfacet
  facet normal 0 0 -1
    outer loop
      vertex 34 -1.4 0
      vertex 35.4 -10.6 0
      vertex 34 -12 0
    endloop
  endfacet
  facet normal 0 0 -1
    outer loop
      vertex 35.4 -10.6 0
      vertex 34 -1.4 0
      vertex 35.4 0 0
    endloop
  endfacet
  facet normal 0 0 -1
    outer loop
      vertex 32 -1.4 0
      vertex 35.4 0 0
      vertex 34 -1.4 0
    endloop
  endfacet
  facet normal 0 0 -1
    outer loop
      vertex 32 -1.4 0
      vertex 30.6 0 0
      vertex 35.4 0 0
    endloop
  endfacet
  facet normal 0 0 -1
    outer loop
      vertex 30.6 0 0
      vertex 32 -1.4 0
      vertex 30.6 -10.6 0
    endloop
  endfacet
  facet normal 0 0 -1
    outer loop
      vertex 46.8 -1.4 0
      vertex 48.2 -12 0
      vertex 46.8 -12 0
    endloop
  endfacet
  facet normal 0 0 -1
    outer loop
      vertex 48.2 -12 0
      vertex 46.8 -1.4 0
      vertex 48.2 0 0
    endloop
  endfacet
  facet normal 0 0 -1
    outer loop
      vertex 38.8 -1.4 0
      vertex 48.2 0 0
      vertex 46.8 -1.4 0
    endloop
  endfacet
  facet normal 0 0 -1
    outer loop
      vertex 38.8 -1.4 0
      vertex 37.4 0 0
      vertex 48.2 0 0
    endloop
  endfacet
  facet normal 0 0 -1
    outer loop
      vertex 37.4 0 0
      vertex 38.8 -1.4 0
      vertex 37.4 -10.6 0
    endloop
  endfacet
  facet normal 1 -0 0
    outer loop
      vertex 8.2 -10.6 12
      vertex 8.2 0 0
      vertex 8.2 0 12
    endloop
  endfacet
  facet normal 1 0 0
    outer loop
      vertex 8.2 0 0
      vertex 8.2 -10.6 12
      vertex 8.2 -10.6 0
    endloop
  endfacet
  facet normal 0 -1 0
    outer loop
      vertex 6.8 -12 0
      vertex 11.6 -12 12
      vertex 6.8 -12 12
    endloop
  endfacet
  facet normal 0 -1 -0
    outer loop
      vertex 11.6 -12 12
      vertex 6.8 -12 0
      vertex 11.6 -12 0
    endloop
  endfacet
  facet normal -1 0 0
    outer loop
      vertex 6.8 -12 0
      vertex 6.8 -1.4 12
      vertex 6.8 -1.4 0
    endloop
  endfacet
  facet normal -1 -0 0
    outer loop
      vertex 6.8 -1.4 12
      vertex 6.8 -12 0
      vertex 6.8 -12 12
    endloop
  endfacet
  facet normal 1 -0 0
    outer loop
      vertex 11.6 -12 12
      vertex 11.6 -1.4 0
      vertex 11.6 -1.4 12
    endloop
  endfacet
  facet normal 1 0 0
    outer loop
      vertex 11.6 -1.4 0
      vertex 11.6 -12 12
      vertex 11.6 -12 0
    endloop
  endfacet
  facet normal 0 1 -0
    outer loop
      vertex 15 0 0
      vertex 10.2 0 12
      vertex 15 0 12
    endloop
  endfacet
  facet normal 0 1 0
    outer loop
      vertex 10.2 0 12
      vertex 15 0 0
      vertex 10.2 0 0
    endloop
  endfacet
  facet normal -1 0 0
    outer loop
      vertex 10.2 -10.6 0
      vertex 10.2 0 12
      vertex 10.2 0 0
    endloop
  endfacet
  facet normal -1 -0 0
    outer loop
      vertex 10.2 0 12
      vertex 10.2 -10.6 0
      vertex 10.2 -10.6 12
    endloop
  endfacet
  facet normal 1 -0 0
    outer loop
      vertex 15 -10.6 12
      vertex 15 0 0
      vertex 15 0 12
    endloop
  endfacet
  facet normal 1 0 0
    outer loop
      vertex 15 0 0
      vertex 15 -10.6 12
      vertex 15 -10.6 0
    endloop
  endfacet
  facet normal 0 -1 0
    outer loop
      vertex 13.6 -12 0
      vertex 18.4 -12 12
      vertex 13.6 -12 12
    endloop
  endfacet
  facet normal 0 -1 -0
    outer loop
      vertex 18.4 -12 12
      vertex 13.6 -12 0
      vertex 18.4 -12 0
    endloop
  endfacet
  facet normal -1 0 0
    outer loop
      vertex 13.6 -12 0
      vertex 13.6 -1.4 12
      vertex 13.6 -1.4 0
    endloop
  endfacet
  facet normal -1 -0 0
    outer loop
      vertex 13.6 -1.4 12
      vertex 13.6 -12 0
      vertex 13.6 -12 12
    endloop
  endfacet
  facet normal 1 -0 0
    outer loop
      vertex 18.4 -12 12
      vertex 18.4 -1.4 0
      vertex 18.4 -1.4 12
    endloop
  endfacet
  facet normal 1 0 0
    outer loop
      vertex 18.4 -1.4 0
      vertex 18.4 -12 12
      vertex 18.4 -12 0
    endloop
  endfacet
  facet normal 0 1 -0
    outer loop
      vertex 21.8 0 0
      vertex 17 0 12
      vertex 21.8 0 12
    endloop
  endfacet
  facet normal 0 1 0
    outer loop
      vertex 17 0 12
      vertex 21.8 0 0
      vertex 17 0 0
    endloop
  endfacet
  facet normal -1 0 0
    outer loop
      vertex 17 -10.6 0
      vertex 17 0 12
      vertex 17 0 0
    endloop
  endfacet
  facet normal -1 -0 0
    outer loop
      vertex 17 0 12
      vertex 17 -10.6 0
      vertex 17 -10.6 12
    endloop
  endfacet
  facet normal 1 -0 0
    outer loop
      vertex 21.8 -10.6 12
      vertex 21.8 0 0
      vertex 21.8 0 12
    endloop
  endfacet
  facet normal 1 0 0
    outer loop
      vertex 21.8 0 0
      vertex 21.8 -10.6 12
      vertex 21.8 -10.6 0
    endloop
  endfacet
  facet normal 0 -1 0
    outer loop
      vertex 20.4 -12 0
      vertex 25.2 -12 12
      vertex 20.4 -12 12
    endloop
  endfacet
  facet normal 0 -1 -0
    outer loop
      vertex 25.2 -12 12
      vertex 20.4 -12 0
      vertex 25.2 -12 0
    endloop
  endfacet
  facet normal -1 0 0
    outer loop
      vertex 20.4 -12 0
      vertex 20.4 -1.4 12
      vertex 20.4 -1.4 0
    endloop
  endfacet
  facet normal -1 -0 0
    outer loop
      vertex 20.4 -1.4 12
      vertex 20.4 -12 0
      vertex 20.4 -12 12
    endloop
  endfacet
  facet normal 1 -0 0
    outer loop
      vertex 25.2 -12 12
      vertex 25.2 -1.4 0
      vertex 25.2 -1.4 12
    endloop
  endfacet
  facet normal 1 0 0
    outer loop
      vertex 25.2 -1.4 0
      vertex 25.2 -12 12
      vertex 25.2 -12 0
    endloop
  endfacet
  facet normal 0 1 -0
    outer loop
      vertex 28.6 0 0
      vertex 23.8 0 12
      vertex 28.6 0 12
    endloop
  endfacet
  facet normal 0 1 0
    outer loop
      vertex 23.8 0 12
      vertex 28.6 0 0
      vertex 23.8 0 0
    endloop
  endfacet
  facet normal -1 0 0
    outer loop
      vertex 23.8 -10.6 0
      vertex 23.8 0 12
      vertex 23.8 0 0
    endloop
  endfacet
  facet normal -1 -0 0
    outer loop
      vertex 23.8 0 12
      vertex 23.8 -10.6 0
      vertex 23.8 -10.6 12
    endloop
  endfacet
  facet normal 1 -0 0
    outer loop
      vertex 28.6 -10.6 12
      vertex 28.6 0 0
      vertex 28.6 0 12
    endloop
  endfacet
  facet normal 1 0 0
    outer loop
      vertex 28.6 0 0
      vertex 28.6 -10.6 12
      vertex 28.6 -10.6 0
    endloop
  endfacet
  facet normal 0 -1 0
    outer loop
      vertex 27.2 -12 0
      vertex 32 -12 12
      vertex 27.2 -12 12
    endloop
  endfacet
  facet normal 0 -1 -0
    outer loop
      vertex 32 -12 12
      vertex 27.2 -12 0
      vertex 32 -12 0
    endloop
  endfacet
  facet normal -1 0 0
    outer loop
      vertex 27.2 -12 0
      vertex 27.2 -1.4 12
      vertex 27.2 -1.4 0
    endloop
  endfacet
  facet normal -1 -0 0
    outer loop
      vertex 27.2 -1.4 12
      vertex 27.2 -12 0
      vertex 27.2 -12 12
    endloop
  endfacet
  facet normal 1 -0 0
    outer loop
      vertex 32 -10.6 12
      vertex 32 -1.4 0
      vertex 32 -1.4 12
    endloop
  endfacet
  facet normal 1 0 0
    outer loop
      vertex 32 -1.4 0
      vertex 32 -10.6 12
      vertex 32 -10.6 0
    endloop
  endfacet
  facet normal 0 1 -0
    outer loop
      vertex 35.4 0 0
      vertex 30.6 0 12
      vertex 35.4 0 12
    endloop
  endfacet
  facet normal 0 1 0
    outer loop
      vertex 30.6 0 12
      vertex 35.4 0 0
      vertex 30.6 0 0
    endloop
  endfacet
  facet normal -1 0 0
    outer loop
      vertex 30.6 -10.6 0
      vertex 30.6 0 12
      vertex 30.6 0 0
    endloop
  endfacet
  facet normal -1 -0 0
    outer loop
      vertex 30.6 0 12
      vertex 30.6 -10.6 0
      vertex 30.6 -10.6 12
    endloop
  endfacet
  facet normal 1 -0 0
    outer loop
      vertex 35.4 -10.6 12
      vertex 35.4 0 0
      vertex 35.4 0 12
    endloop
  endfacet
  facet normal 1 0 0
    outer loop
      vertex 35.4 0 0
      vertex 35.4 -10.6 12
      vertex 35.4 -10.6 0
    endloop
  endfacet
  facet normal 0 -1 0
    outer loop
      vertex 34 -12 0
      vertex 38.8 -12 12
      vertex 34 -12 12
    endloop
  endfacet
  facet normal 0 -1 -0
    outer loop
      vertex 38.8 -12 12
      vertex 34 -12 0
      vertex 38.8 -12 0
    endloop
  endfacet
  facet normal -1 0 0
    outer loop
      vertex 34 -12 0
      vertex 34 -1.4 12
      vertex 34 -1.4 0
    endloop
  endfacet
  facet normal -1 -0 0
    outer loop
      vertex 34 -1.4 12
      vertex 34 -12 0
      vertex 34 -12 12
    endloop
  endfacet
  facet normal 1 -0 0
    outer loop
      vertex 38.8 -12 12
      vertex 38.8 -1.4 0
      vertex 38.8 -1.4 12
    endloop
  endfacet
  facet normal 1 0 0
    outer loop
      vertex 38.8 -1.4 0
      vertex 38.8 -12 12
      vertex 38.8 -12 0
    endloop
  endfacet
  facet normal 0 1 -0
    outer loop
      vertex 48.2 0 0
      vertex 37.4 0 12
      vertex 48.2 0 12
    endloop
  endfacet
  facet normal 0 1 0
    outer loop
      vertex 37.4 0 12
      vertex 48.2 0 0
      vertex 37.4 0 0
    endloop
  endfacet
  facet normal -1 0 0
    outer loop
      vertex 37.4 -10.6 0
      vertex 37.4 0 12
      vertex 37.4 0 0
    endloop
  endfacet
  facet normal -1 -0 0
    outer loop
      vertex 37.4 0 12
      vertex 37.4 -10.6 0
      vertex 37.4 -10.6 12
    endloop
  endfacet
  facet normal 0 1 -0
    outer loop
      vertex 3.4 -10.6 0
      vertex -4.6 -10.6 12
      vertex 3.4 -10.6 12
    endloop
  endfacet
  facet normal 0 1 0
    outer loop
      vertex -4.6 -10.6 12
      vertex 3.4 -10.6 0
      vertex -4.6 -10.6 0
    endloop
  endfacet
  facet normal -1 0 0
    outer loop
      vertex -6 0 0
      vertex -6 -4.3 6
      vertex -6 0 12
    endloop
  endfacet
  facet normal -1 0 0
    outer loop
      vertex -6 0 0
      vertex -6 -4.34582 5.60795
      vertex -6 -4.3 6
    endloop
  endfacet
  facet normal -1 0 0
    outer loop
      vertex -6 0 0
      vertex -6 -4.48082 5.23704
      vertex -6 -4.34582 5.60795
    endloop
  endfacet
  facet normal -1 0 0
    outer loop
      vertex -6 0 0
      vertex -6 -4.69772 4.90726
      vertex -6 -4.48082 5.23704
    endloop
  endfacet
  facet normal -1 0 0
    outer loop
      vertex -6 0 0
      vertex -6 -4.98483 4.63639
      vertex -6 -4.69772 4.90726
    endloop
  endfacet
  facet normal -1 0 0
    outer loop
      vertex -6 0 0
      vertex -6 -5.32666 4.43903
      vertex -6 -4.98483 4.63639
    endloop
  endfacet
  facet normal -1 0 0
    outer loop
      vertex -6 0 0
      vertex -6 -5.7048 4.32583
      vertex -6 -5.32666 4.43903
    endloop
  endfacet
  facet normal -1 0 0
    outer loop
      vertex -6 0 0
      vertex -6 -6.09885 4.30288
      vertex -6 -5.7048 4.32583
    endloop
  endfacet
  facet normal -1 0 0
    outer loop
      vertex -6 -12 0
      vertex -6 -6.09885 4.30288
      vertex -6 0 0
    endloop
  endfacet
  facet normal -1 -0 0
    outer loop
      vertex -6 -6.09885 4.30288
      vertex -6 -12 0
      vertex -6 -6.48757 4.37142
    endloop
  endfacet
  facet normal -1 -0 0
    outer loop
      vertex -6 -7.68851 5.80264
      vertex -6 -12 0
      vertex -6 -7.68851 6.19736
    endloop
  endfacet
  facet normal -1 -0 0
    outer loop
      vertex -6 -7.59748 5.41857
      vertex -6 -12 0
      vertex -6 -7.68851 5.80264
    endloop
  endfacet
  facet normal -1 -0 0
    outer loop
      vertex -6 -7.42033 5.06583
      vertex -6 -12 0
      vertex -6 -7.59748 5.41857
    endloop
  endfacet
  facet normal -1 -0 0
    outer loop
      vertex -6 -7.16661 4.76346
      vertex -6 -12 0
      vertex -6 -7.42033 5.06583
    endloop
  endfacet
  facet normal -1 -0 0
    outer loop
      vertex -6 -6.85 4.52776
      vertex -6 -12 0
      vertex -6 -7.16661 4.76346
    endloop
  endfacet
  facet normal -1 -0 0
    outer loop
      vertex -6 -6.48757 4.37142
      vertex -6 -12 0
      vertex -6 -6.85 4.52776
    endloop
  endfacet
  facet normal -1 0 0
    outer loop
      vertex -6 -4.34582 6.39205
      vertex -6 0 12
      vertex -6 -4.3 6
    endloop
  endfacet
  facet normal -1 0 0
    outer loop
      vertex -6 -4.48082 6.76296
      vertex -6 0 12
      vertex -6 -4.34582 6.39205
    endloop
  endfacet
  facet normal -1 0 0
    outer loop
      vertex -6 -4.69772 7.09274
      vertex -6 0 12
      vertex -6 -4.48082 6.76296
    endloop
  endfacet
  facet normal -1 0 0
    outer loop
      vertex -6 -4.98483 7.36361
      vertex -6 0 12
      vertex -6 -4.69772 7.09274
    endloop
  endfacet
  facet normal -1 0 0
    outer loop
      vertex -6 -5.32666 7.56097
      vertex -6 0 12
      vertex -6 -4.98483 7.36361
    endloop
  endfacet
  facet normal -1 0 0
    outer loop
      vertex -6 -5.7048 7.67417
      vertex -6 0 12
      vertex -6 -5.32666 7.56097
    endloop
  endfacet
  facet normal -1 0 0
    outer loop
      vertex -6 -6.09885 7.69712
      vertex -6 0 12
      vertex -6 -5.7048 7.67417
    endloop
  endfacet
  facet normal -1 0 0
    outer loop
      vertex -6 -12 12
      vertex -6 -6.09885 7.69712
      vertex -6 -6.48757 7.62858
    endloop
  endfacet
  facet normal -1 0 0
    outer loop
      vertex -6 -12 12
      vertex -6 -6.48757 7.62858
      vertex -6 -6.85 7.47224
    endloop
  endfacet
  facet normal -1 0 0
    outer loop
      vertex -6 -12 12
      vertex -6 -7.68851 6.19736
      vertex -6 -12 0
    endloop
  endfacet
  facet normal -1 0 0
    outer loop
      vertex -6 -7.68851 6.19736
      vertex -6 -12 12
      vertex -6 -7.59748 6.58143
    endloop
  endfacet
  facet normal -1 0 0
    outer loop
      vertex -6 -6.09885 7.69712
      vertex -6 -12 12
      vertex -6 0 12
    endloop
  endfacet
  facet normal -1 0 0
    outer loop
      vertex -6 -7.16661 7.23654
      vertex -6 -12 12
      vertex -6 -6.85 7.47224
    endloop
  endfacet
  facet normal -1 0 0
    outer loop
      vertex -6 -7.42033 6.93417
      vertex -6 -12 12
      vertex -6 -7.16661 7.23654
    endloop
  endfacet
  facet normal -1 0 0
    outer loop
      vertex -6 -7.59748 6.58143
      vertex -6 -12 12
      vertex -6 -7.42033 6.93417
    endloop
  endfacet
  facet normal 1 0 0
    outer loop
      vertex -4.6 0 12
      vertex -4.6 -4.3 6
      vertex -4.6 0 0
    endloop
  endfacet
  facet normal 1 0 0
    outer loop
      vertex -4.6 0 12
      vertex -4.6 -4.34582 6.39205
      vertex -4.6 -4.3 6
    endloop
  endfacet
  facet normal 1 0 0
    outer loop
      vertex -4.6 0 12
      vertex -4.6 -4.48082 6.76296
      vertex -4.6 -4.34582 6.39205
    endloop
  endfacet
  facet normal 1 0 0
    outer loop
      vertex -4.6 0 12
      vertex -4.6 -4.69772 7.09274
      vertex -4.6 -4.48082 6.76296
    endloop
  endfacet
  facet normal 1 0 0
    outer loop
      vertex -4.6 0 12
      vertex -4.6 -4.98483 7.36361
      vertex -4.6 -4.69772 7.09274
    endloop
  endfacet
  facet normal 1 0 0
    outer loop
      vertex -4.6 0 12
      vertex -4.6 -5.32666 7.56097
      vertex -4.6 -4.98483 7.36361
    endloop
  endfacet
  facet normal 1 0 0
    outer loop
      vertex -4.6 0 12
      vertex -4.6 -5.7048 7.67417
      vertex -4.6 -5.32666 7.56097
    endloop
  endfacet
  facet normal 1 -0 0
    outer loop
      vertex -4.6 -10.6 12
      vertex -4.6 -5.7048 7.67417
      vertex -4.6 0 12
    endloop
  endfacet
  facet normal 1 0 0
    outer loop
      vertex -4.6 -5.7048 7.67417
      vertex -4.6 -10.6 12
      vertex -4.6 -6.09885 7.69712
    endloop
  endfacet
  facet normal 1 0 0
    outer loop
      vertex -4.6 -6.09885 7.69712
      vertex -4.6 -10.6 12
      vertex -4.6 -6.48757 7.62858
    endloop
  endfacet
  facet normal 1 0 0
    outer loop
      vertex -4.6 -7.68851 6.19736
      vertex -4.6 -10.6 12
      vertex -4.6 -7.68851 5.80264
    endloop
  endfacet
  facet normal 1 0 0
    outer loop
      vertex -4.6 -7.59748 6.58143
      vertex -4.6 -10.6 12
      vertex -4.6 -7.68851 6.19736
    endloop
  endfacet
  facet normal 1 0 0
    outer loop
      vertex -4.6 -7.42033 6.93417
      vertex -4.6 -10.6 12
      vertex -4.6 -7.59748 6.58143
    endloop
  endfacet
  facet normal 1 0 0
    outer loop
      vertex -4.6 -7.16661 7.23654
      vertex -4.6 -10.6 12
      vertex -4.6 -7.42033 6.93417
    endloop
  endfacet
  facet normal 1 0 0
    outer loop
      vertex -4.6 -6.85 7.47224
      vertex -4.6 -10.6 12
      vertex -4.6 -7.16661 7.23654
    endloop
  endfacet
  facet normal 1 0 0
    outer loop
      vertex -4.6 -6.48757 7.62858
      vertex -4.6 -10.6 12
      vertex -4.6 -6.85 7.47224
    endloop
  endfacet
  facet normal 1 -0 0
    outer loop
      vertex -4.6 -4.34582 5.60795
      vertex -4.6 0 0
      vertex -4.6 -4.3 6
    endloop
  endfacet
  facet normal 1 -0 0
    outer loop
      vertex -4.6 -4.48082 5.23704
      vertex -4.6 0 0
      vertex -4.6 -4.34582 5.60795
    endloop
  endfacet
  facet normal 1 -0 0
    outer loop
      vertex -4.6 -4.69772 4.90726
      vertex -4.6 0 0
      vertex -4.6 -4.48082 5.23704
    endloop
  endfacet
  facet normal 1 -0 0
    outer loop
      vertex -4.6 -4.98483 4.63639
      vertex -4.6 0 0
      vertex -4.6 -4.69772 4.90726
    endloop
  endfacet
  facet normal 1 -0 0
    outer loop
      vertex -4.6 -5.32666 4.43903
      vertex -4.6 0 0
      vertex -4.6 -4.98483 4.63639
    endloop
  endfacet
  facet normal 1 -0 0
    outer loop
      vertex -4.6 -5.7048 4.32583
      vertex -4.6 0 0
      vertex -4.6 -5.32666 4.43903
    endloop
  endfacet
  facet normal 1 0 0
    outer loop
      vertex -4.6 -10.6 0
      vertex -4.6 -5.7048 4.32583
      vertex -4.6 -6.09885 4.30288
    endloop
  endfacet
  facet normal 1 0 0
    outer loop
      vertex -4.6 -10.6 0
      vertex -4.6 -6.09885 4.30288
      vertex -4.6 -6.48757 4.37142
    endloop
  endfacet
  facet normal 1 0 0
    outer loop
      vertex -4.6 -10.6 0
      vertex -4.6 -6.48757 4.37142
      vertex -4.6 -6.85 4.52776
    endloop
  endfacet
  facet normal 1 0 0
    outer loop
      vertex -4.6 -10.6 0
      vertex -4.6 -7.68851 5.80264
      vertex -4.6 -10.6 12
    endloop
  endfacet
  facet normal 1 0 0
    outer loop
      vertex -4.6 -5.7048 4.32583
      vertex -4.6 -10.6 0
      vertex -4.6 0 0
    endloop
  endfacet
  facet normal 1 0 0
    outer loop
      vertex -4.6 -7.16661 4.76346
      vertex -4.6 -10.6 0
      vertex -4.6 -6.85 4.52776
    endloop
  endfacet
  facet normal 1 0 0
    outer loop
      vertex -4.6 -7.42033 5.06583
      vertex -4.6 -10.6 0
      vertex -4.6 -7.16661 4.76346
    endloop
  endfacet
  facet normal 1 0 0
    outer loop
      vertex -4.6 -7.59748 5.41857
      vertex -4.6 -10.6 0
      vertex -4.6 -7.42033 5.06583
    endloop
  endfacet
  facet normal 1 0 0
    outer loop
      vertex -4.6 -7.68851 5.80264
      vertex -4.6 -10.6 0
      vertex -4.6 -7.59748 5.41857
    endloop
  endfacet
  facet normal 0 1 -0
    outer loop
      vertex -4.6 0 0
      vertex -6 0 12
      vertex -4.6 0 12
    endloop
  endfacet
  facet normal 0 1 0
    outer loop
      vertex -6 0 12
      vertex -4.6 0 0
      vertex -6 0 0
    endloop
  endfacet
  facet normal 1 0 0
    outer loop
      vertex 48.2 0 12
      vertex 48.2 -4.3 6
      vertex 48.2 0 0
    endloop
  endfacet
  facet normal 1 0 0
    outer loop
      vertex 48.2 0 12
      vertex 48.2 -4.34582 6.39205
      vertex 48.2 -4.3 6
    endloop
  endfacet
  facet normal 1 0 0
    outer loop
      vertex 48.2 0 12
      vertex 48.2 -4.48082 6.76296
      vertex 48.2 -4.34582 6.39205
    endloop
  endfacet
  facet normal 1 0 0
    outer loop
      vertex 48.2 0 12
      vertex 48.2 -4.69772 7.09274
      vertex 48.2 -4.48082 6.76296
    endloop
  endfacet
  facet normal 1 0 0
    outer loop
      vertex 48.2 0 12
      vertex 48.2 -4.98483 7.36361
      vertex 48.2 -4.69772 7.09274
    endloop
  endfacet
  facet normal 1 0 0
    outer loop
      vertex 48.2 0 12
      vertex 48.2 -5.32666 7.56097
      vertex 48.2 -4.98483 7.36361
    endloop
  endfacet
  facet normal 1 0 0
    outer loop
      vertex 48.2 0 12
      vertex 48.2 -5.7048 7.67417
      vertex 48.2 -5.32666 7.56097
    endloop
  endfacet
  facet normal 1 0 0
    outer loop
      vertex 48.2 0 12
      vertex 48.2 -6.09885 7.69712
      vertex 48.2 -5.7048 7.67417
    endloop
  endfacet
  facet normal 1 -0 0
    outer loop
      vertex 48.2 -12 12
      vertex 48.2 -6.09885 7.69712
      vertex 48.2 0 12
    endloop
  endfacet
  facet normal 1 0 0
    outer loop
      vertex 48.2 -6.09885 7.69712
      vertex 48.2 -12 12
      vertex 48.2 -6.48757 7.62858
    endloop
  endfacet
  facet normal 1 0 0
    outer loop
      vertex 48.2 -7.68851 6.19736
      vertex 48.2 -12 12
      vertex 48.2 -7.68851 5.80264
    endloop
  endfacet
  facet normal 1 0 0
    outer loop
      vertex 48.2 -7.59748 6.58143
      vertex 48.2 -12 12
      vertex 48.2 -7.68851 6.19736
    endloop
  endfacet
  facet normal 1 0 0
    outer loop
      vertex 48.2 -7.42033 6.93417
      vertex 48.2 -12 12
      vertex 48.2 -7.59748 6.58143
    endloop
  endfacet
  facet normal 1 0 0
    outer loop
      vertex 48.2 -7.16661 7.23654
      vertex 48.2 -12 12
      vertex 48.2 -7.42033 6.93417
    endloop
  endfacet
  facet normal 1 0 0
    outer loop
      vertex 48.2 -6.85 7.47224
      vertex 48.2 -12 12
      vertex 48.2 -7.16661 7.23654
    endloop
  endfacet
  facet normal 1 0 0
    outer loop
      vertex 48.2 -6.48757 7.62858
      vertex 48.2 -12 12
      vertex 48.2 -6.85 7.47224
    endloop
  endfacet
  facet normal 1 -0 0
    outer loop
      vertex 48.2 -4.34582 5.60795
      vertex 48.2 0 0
      vertex 48.2 -4.3 6
    endloop
  endfacet
  facet normal 1 -0 0
    outer loop
      vertex 48.2 -4.48082 5.23704
      vertex 48.2 0 0
      vertex 48.2 -4.34582 5.60795
    endloop
  endfacet
  facet normal 1 -0 0
    outer loop
      vertex 48.2 -4.69772 4.90726
      vertex 48.2 0 0
      vertex 48.2 -4.48082 5.23704
    endloop
  endfacet
  facet normal 1 -0 0
    outer loop
      vertex 48.2 -4.98483 4.63639
      vertex 48.2 0 0
      vertex 48.2 -4.69772 4.90726
    endloop
  endfacet
  facet normal 1 -0 0
    outer loop
      vertex 48.2 -5.32666 4.43903
      vertex 48.2 0 0
      vertex 48.2 -4.98483 4.63639
    endloop
  endfacet
  facet normal 1 -0 0
    outer loop
      vertex 48.2 -5.7048 4.32583
      vertex 48.2 0 0
      vertex 48.2 -5.32666 4.43903
    endloop
  endfacet
  facet normal 1 -0 0
    outer loop
      vertex 48.2 -6.09885 4.30288
      vertex 48.2 0 0
      vertex 48.2 -5.7048 4.32583
    endloop
  endfacet
  facet normal 1 0 0
    outer loop
      vertex 48.2 -12 0
      vertex 48.2 -6.09885 4.30288
      vertex 48.2 -6.48757 4.37142
    endloop
  endfacet
  facet normal 1 0 0
    outer loop
      vertex 48.2 -12 0
      vertex 48.2 -6.48757 4.37142
      vertex 48.2 -6.85 4.52776
    endloop
  endfacet
  facet normal 1 0 0
    outer loop
      vertex 48.2 -12 0
      vertex 48.2 -7.68851 5.80264
      vertex 48.2 -12 12
    endloop
  endfacet
  facet normal 1 0 0
    outer loop
      vertex 48.2 -7.68851 5.80264
      vertex 48.2 -12 0
      vertex 48.2 -7.59748 5.41857
    endloop
  endfacet
  facet normal 1 0 0
    outer loop
      vertex 48.2 -6.09885 4.30288
      vertex 48.2 -12 0
      vertex 48.2 0 0
    endloop
  endfacet
  facet normal 1 0 0
    outer loop
      vertex 48.2 -7.16661 4.76346
      vertex 48.2 -12 0
      vertex 48.2 -6.85 4.52776
    endloop
  endfacet
  facet normal 1 0 0
    outer loop
      vertex 48.2 -7.42033 5.06583
      vertex 48.2 -12 0
      vertex 48.2 -7.16661 4.76346
    endloop
  endfacet
  facet normal 1 0 0
    outer loop
      vertex 48.2 -7.59748 5.41857
      vertex 48.2 -12 0
      vertex 48.2 -7.42033 5.06583
    endloop
  endfacet
  facet normal 0 -1 0
    outer loop
      vertex 46.8 -12 0
      vertex 48.2 -12 12
      vertex 46.8 -12 12
    endloop
  endfacet
  facet normal 0 -1 -0
    outer loop
      vertex 48.2 -12 12
      vertex 46.8 -12 0
      vertex 48.2 -12 0
    endloop
  endfacet
  facet normal -1 0 0
    outer loop
      vertex 46.8 -1.4 0
      vertex 46.8 -4.3 6
      vertex 46.8 -1.4 12
    endloop
  endfacet
  facet normal -1 0 0
    outer loop
      vertex 46.8 -1.4 0
      vertex 46.8 -4.34582 5.60795
      vertex 46.8 -4.3 6
    endloop
  endfacet
  facet normal -1 0 0
    outer loop
      vertex 46.8 -1.4 0
      vertex 46.8 -4.48082 5.23704
      vertex 46.8 -4.34582 5.60795
    endloop
  endfacet
  facet normal -1 0 0
    outer loop
      vertex 46.8 -1.4 0
      vertex 46.8 -4.69772 4.90726
      vertex 46.8 -4.48082 5.23704
    endloop
  endfacet
  facet normal -1 0 0
    outer loop
      vertex 46.8 -1.4 0
      vertex 46.8 -4.98483 4.63639
      vertex 46.8 -4.69772 4.90726
    endloop
  endfacet
  facet normal -1 0 0
    outer loop
      vertex 46.8 -1.4 0
      vertex 46.8 -5.32666 4.43903
      vertex 46.8 -4.98483 4.63639
    endloop
  endfacet
  facet normal -1 0 0
    outer loop
      vertex 46.8 -1.4 0
      vertex 46.8 -5.7048 4.32583
      vertex 46.8 -5.32666 4.43903
    endloop
  endfacet
  facet normal -1 0 0
    outer loop
      vertex 46.8 -1.4 0
      vertex 46.8 -6.09885 4.30288
      vertex 46.8 -5.7048 4.32583
    endloop
  endfacet
  facet normal -1 0 0
    outer loop
      vertex 46.8 -12 0
      vertex 46.8 -6.09885 4.30288
      vertex 46.8 -1.4 0
    endloop
  endfacet
  facet normal -1 -0 0
    outer loop
      vertex 46.8 -6.09885 4.30288
      vertex 46.8 -12 0
      vertex 46.8 -6.48757 4.37142
    endloop
  endfacet
  facet normal -1 -0 0
    outer loop
      vertex 46.8 -6.48757 4.37142
      vertex 46.8 -12 0
      vertex 46.8 -6.85 4.52776
    endloop
  endfacet
  facet normal -1 -0 0
    outer loop
      vertex 46.8 -7.68851 5.80264
      vertex 46.8 -12 0
      vertex 46.8 -7.68851 6.19736
    endloop
  endfacet
  facet normal -1 -0 0
    outer loop
      vertex 46.8 -7.59748 5.41857
      vertex 46.8 -12 0
      vertex 46.8 -7.68851 5.80264
    endloop
  endfacet
  facet normal -1 -0 0
    outer loop
      vertex 46.8 -7.42033 5.06583
      vertex 46.8 -12 0
      vertex 46.8 -7.59748 5.41857
    endloop
  endfacet
  facet normal -1 -0 0
    outer loop
      vertex 46.8 -7.16661 4.76346
      vertex 46.8 -12 0
      vertex 46.8 -7.42033 5.06583
    endloop
  endfacet
  facet normal -1 -0 0
    outer loop
      vertex 46.8 -6.85 4.52776
      vertex 46.8 -12 0
      vertex 46.8 -7.16661 4.76346
    endloop
  endfacet
  facet normal -1 0 0
    outer loop
      vertex 46.8 -4.34582 6.39205
      vertex 46.8 -1.4 12
      vertex 46.8 -4.3 6
    endloop
  endfacet
  facet normal -1 0 0
    outer loop
      vertex 46.8 -4.48082 6.76296
      vertex 46.8 -1.4 12
      vertex 46.8 -4.34582 6.39205
    endloop
  endfacet
  facet normal -1 0 0
    outer loop
      vertex 46.8 -4.69772 7.09274
      vertex 46.8 -1.4 12
      vertex 46.8 -4.48082 6.76296
    endloop
  endfacet
  facet normal -1 0 0
    outer loop
      vertex 46.8 -4.98483 7.36361
      vertex 46.8 -1.4 12
      vertex 46.8 -4.69772 7.09274
    endloop
  endfacet
  facet normal -1 0 0
    outer loop
      vertex 46.8 -5.32666 7.56097
      vertex 46.8 -1.4 12
      vertex 46.8 -4.98483 7.36361
    endloop
  endfacet
  facet normal -1 0 0
    outer loop
      vertex 46.8 -5.7048 7.67417
      vertex 46.8 -1.4 12
      vertex 46.8 -5.32666 7.56097
    endloop
  endfacet
  facet normal -1 0 0
    outer loop
      vertex 46.8 -6.09885 7.69712
      vertex 46.8 -1.4 12
      vertex 46.8 -5.7048 7.67417
    endloop
  endfacet
  facet normal -1 0 0
    outer loop
      vertex 46.8 -12 12
      vertex 46.8 -6.09885 7.69712
      vertex 46.8 -6.48757 7.62858
    endloop
  endfacet
  facet normal -1 0 0
    outer loop
      vertex 46.8 -12 12
      vertex 46.8 -6.48757 7.62858
      vertex 46.8 -6.85 7.47224
    endloop
  endfacet
  facet normal -1 0 0
    outer loop
      vertex 46.8 -12 12
      vertex 46.8 -6.85 7.47224
      vertex 46.8 -7.16661 7.23654
    endloop
  endfacet
  facet normal -1 0 0
    outer loop
      vertex 46.8 -12 12
      vertex 46.8 -7.68851 6.19736
      vertex 46.8 -12 0
    endloop
  endfacet
  facet normal -1 0 0
    outer loop
      vertex 46.8 -7.68851 6.19736
      vertex 46.8 -12 12
      vertex 46.8 -7.59748 6.58143
    endloop
  endfacet
  facet normal -1 0 0
    outer loop
      vertex 46.8 -6.09885 7.69712
      vertex 46.8 -12 12
      vertex 46.8 -1.4 12
    endloop
  endfacet
  facet normal -1 0 0
    outer loop
      vertex 46.8 -7.42033 6.93417
      vertex 46.8 -12 12
      vertex 46.8 -7.16661 7.23654
    endloop
  endfacet
  facet normal -1 0 0
    outer loop
      vertex 46.8 -7.59748 6.58143
      vertex 46.8 -12 12
      vertex 46.8 -7.42033 6.93417
    endloop
  endfacet
  facet normal 0 -1 0
    outer loop
      vertex 38.8 -1.4 0
      vertex 46.8 -1.4 12
      vertex 38.8 -1.4 12
    endloop
  endfacet
  facet normal 0 -1 -0
    outer loop
      vertex 46.8 -1.4 12
      vertex 38.8 -1.4 0
      vertex 46.8 -1.4 0
    endloop
  endfacet
  facet normal 0 -1 0
    outer loop
      vertex 4.8 -1.4 0
      vertex 6.8 -1.4 12
      vertex 4.8 -1.4 12
    endloop
  endfacet
  facet normal 0 -1 -0
    outer loop
      vertex 6.8 -1.4 12
      vertex 4.8 -1.4 0
      vertex 6.8 -1.4 0
    endloop
  endfacet
  facet normal 0 1 -0
    outer loop
      vertex 10.2 -10.6 0
      vertex 8.2 -10.6 12
      vertex 10.2 -10.6 12
    endloop
  endfacet
  facet normal 0 1 0
    outer loop
      vertex 8.2 -10.6 12
      vertex 10.2 -10.6 0
      vertex 8.2 -10.6 0
    endloop
  endfacet
  facet normal 0 -1 0
    outer loop
      vertex 11.6 -1.4 0
      vertex 13.6 -1.4 12
      vertex 11.6 -1.4 12
    endloop
  endfacet
  facet normal 0 -1 -0
    outer loop
      vertex 13.6 -1.4 12
      vertex 11.6 -1.4 0
      vertex 13.6 -1.4 0
    endloop
  endfacet
  facet normal 0 1 -0
    outer loop
      vertex 17 -10.6 0
      vertex 15 -10.6 12
      vertex 17 -10.6 12
    endloop
  endfacet
  facet normal 0 1 0
    outer loop
      vertex 15 -10.6 12
      vertex 17 -10.6 0
      vertex 15 -10.6 0
    endloop
  endfacet
  facet normal 0 -1 0
    outer loop
      vertex 18.4 -1.4 0
      vertex 20.4 -1.4 12
      vertex 18.4 -1.4 12
    endloop
  endfacet
  facet normal 0 -1 -0
    outer loop
      vertex 20.4 -1.4 12
      vertex 18.4 -1.4 0
      vertex 20.4 -1.4 0
    endloop
  endfacet
  facet normal 0 1 -0
    outer loop
      vertex 23.8 -10.6 0
      vertex 21.8 -10.6 12
      vertex 23.8 -10.6 12
    endloop
  endfacet
  facet normal 0 1 0
    outer loop
      vertex 21.8 -10.6 12
      vertex 23.8 -10.6 0
      vertex 21.8 -10.6 0
    endloop
  endfacet
  facet normal 0 -1 0
    outer loop
      vertex 25.2 -1.4 0
      vertex 27.2 -1.4 12
      vertex 25.2 -1.4 12
    endloop
  endfacet
  facet normal 0 -1 -0
    outer loop
      vertex 27.2 -1.4 12
      vertex 25.2 -1.4 0
      vertex 27.2 -1.4 0
    endloop
  endfacet
  facet normal 1 -0 0
    outer loop
      vertex 32 -12 12
      vertex 32 -10.6 0
      vertex 32 -10.6 12
    endloop
  endfacet
  facet normal 1 0 0
    outer loop
      vertex 32 -10.6 0
      vertex 32 -12 12
      vertex 32 -12 0
    endloop
  endfacet
  facet normal 0 1 -0
    outer loop
      vertex 30.6 -10.6 0
      vertex 28.6 -10.6 12
      vertex 30.6 -10.6 12
    endloop
  endfacet
  facet normal 0 1 0
    outer loop
      vertex 28.6 -10.6 12
      vertex 30.6 -10.6 0
      vertex 28.6 -10.6 0
    endloop
  endfacet
  facet normal 0 -1 0
    outer loop
      vertex 32 -1.4 0
      vertex 34 -1.4 12
      vertex 32 -1.4 12
    endloop
  endfacet
  facet normal 0 -1 -0
    outer loop
      vertex 34 -1.4 12
      vertex 32 -1.4 0
      vertex 34 -1.4 0
    endloop
  endfacet
  facet normal 0 1 -0
    outer loop
      vertex 37.4 -10.6 0
      vertex 35.4 -10.6 12
      vertex 37.4 -10.6 12
    endloop
  endfacet
  facet normal 0 1 0
    outer loop
      vertex 35.4 -10.6 12
      vertex 37.4 -10.6 0
      vertex 35.4 -10.6 0
    endloop
  endfacet
  facet normal 0 -0.286785 0.957995
    outer loop
      vertex -6 -5.32666 4.43903
      vertex -4.6 -5.7048 4.32583
      vertex -4.6 -5.32666 4.43903
    endloop
  endfacet
  facet normal 0 -0.286785 0.957995
    outer loop
      vertex -4.6 -5.7048 4.32583
      vertex -6 -5.32666 4.43903
      vertex -6 -5.7048 4.32583
    endloop
  endfacet
  facet normal 0 1 -0
    outer loop
      vertex -4.6 -7.68851 5.80264
      vertex -6 -7.68851 6.19736
      vertex -4.6 -7.68851 6.19736
    endloop
  endfacet
  facet normal 0 1 0
    outer loop
      vertex -6 -7.68851 6.19736
      vertex -4.6 -7.68851 5.80264
      vertex -6 -7.68851 5.80264
    endloop
  endfacet
  facet normal 0 -0.99324 -0.116083
    outer loop
      vertex -6 -4.3 6
      vertex -4.6 -4.34582 6.39205
      vertex -6 -4.34582 6.39205
    endloop
  endfacet
  facet normal 0 -0.99324 -0.116083
    outer loop
      vertex -4.6 -4.34582 6.39205
      vertex -6 -4.3 6
      vertex -4.6 -4.3 6
    endloop
  endfacet
  facet normal 0 0.766043 -0.64279
    outer loop
      vertex -4.6 -7.42033 6.93417
      vertex -6 -7.16661 7.23654
      vertex -4.6 -7.16661 7.23654
    endloop
  endfacet
  facet normal 0 0.766043 -0.64279
    outer loop
      vertex -6 -7.16661 7.23654
      vertex -4.6 -7.42033 6.93417
      vertex -6 -7.42033 6.93417
    endloop
  endfacet
  facet normal 0 -0.0581428 0.998308
    outer loop
      vertex -6 -5.7048 4.32583
      vertex -4.6 -6.09885 4.30288
      vertex -4.6 -5.7048 4.32583
    endloop
  endfacet
  facet normal 0 -0.0581428 0.998308
    outer loop
      vertex -4.6 -6.09885 4.30288
      vertex -6 -5.7048 4.32583
      vertex -6 -6.09885 4.30288
    endloop
  endfacet
  facet normal 0 -0.99324 0.116083
    outer loop
      vertex -6 -4.34582 5.60795
      vertex -4.6 -4.3 6
      vertex -6 -4.3 6
    endloop
  endfacet
  facet normal 0 -0.99324 0.116083
    outer loop
      vertex -4.6 -4.3 6
      vertex -6 -4.34582 5.60795
      vertex -4.6 -4.34582 5.60795
    endloop
  endfacet
  facet normal 0 -0.0581428 -0.998308
    outer loop
      vertex -6 -6.09885 7.69712
      vertex -4.6 -5.7048 7.67417
      vertex -4.6 -6.09885 7.69712
    endloop
  endfacet
  facet normal -0 -0.0581428 -0.998308
    outer loop
      vertex -4.6 -5.7048 7.67417
      vertex -6 -6.09885 7.69712
      vertex -6 -5.7048 7.67417
    endloop
  endfacet
  facet normal 0 -0.686236 0.727379
    outer loop
      vertex -6 -4.69772 4.90726
      vertex -4.6 -4.98483 4.63639
      vertex -4.6 -4.69772 4.90726
    endloop
  endfacet
  facet normal 0 -0.686236 0.727379
    outer loop
      vertex -4.6 -4.98483 4.63639
      vertex -6 -4.69772 4.90726
      vertex -6 -4.98483 4.63639
    endloop
  endfacet
  facet normal 0 -0.686236 -0.727379
    outer loop
      vertex -6 -4.98483 7.36361
      vertex -4.6 -4.69772 7.09274
      vertex -4.6 -4.98483 7.36361
    endloop
  endfacet
  facet normal -0 -0.686236 -0.727379
    outer loop
      vertex -4.6 -4.69772 7.09274
      vertex -6 -4.98483 7.36361
      vertex -6 -4.69772 7.09274
    endloop
  endfacet
  facet normal 0 -0.939693 -0.34202
    outer loop
      vertex -6 -4.34582 6.39205
      vertex -4.6 -4.48082 6.76296
      vertex -6 -4.48082 6.76296
    endloop
  endfacet
  facet normal 0 -0.939693 -0.34202
    outer loop
      vertex -4.6 -4.48082 6.76296
      vertex -6 -4.34582 6.39205
      vertex -4.6 -4.34582 6.39205
    endloop
  endfacet
  facet normal -0 0.396086 0.918213
    outer loop
      vertex -6 -6.48757 4.37142
      vertex -4.6 -6.85 4.52776
      vertex -4.6 -6.48757 4.37142
    endloop
  endfacet
  facet normal 0 0.396086 0.918213
    outer loop
      vertex -4.6 -6.85 4.52776
      vertex -6 -6.48757 4.37142
      vertex -6 -6.85 4.52776
    endloop
  endfacet
  facet normal 0 -0.286785 -0.957995
    outer loop
      vertex -6 -5.7048 7.67417
      vertex -4.6 -5.32666 7.56097
      vertex -4.6 -5.7048 7.67417
    endloop
  endfacet
  facet normal -0 -0.286785 -0.957995
    outer loop
      vertex -4.6 -5.32666 7.56097
      vertex -6 -5.7048 7.67417
      vertex -6 -5.32666 7.56097
    endloop
  endfacet
  facet normal -0 0.173644 0.984809
    outer loop
      vertex -6 -6.09885 4.30288
      vertex -4.6 -6.48757 4.37142
      vertex -4.6 -6.09885 4.30288
    endloop
  endfacet
  facet normal 0 0.173644 0.984809
    outer loop
      vertex -4.6 -6.48757 4.37142
      vertex -6 -6.09885 4.30288
      vertex -6 -6.48757 4.37142
    endloop
  endfacet
  facet normal 0 0.396086 -0.918213
    outer loop
      vertex -6 -6.85 7.47224
      vertex -4.6 -6.48757 7.62858
      vertex -4.6 -6.85 7.47224
    endloop
  endfacet
  facet normal 0 0.396086 -0.918213
    outer loop
      vertex -4.6 -6.48757 7.62858
      vertex -6 -6.85 7.47224
      vertex -6 -6.48757 7.62858
    endloop
  endfacet
  facet normal 0 0.893635 -0.448794
    outer loop
      vertex -4.6 -7.59748 6.58143
      vertex -6 -7.42033 6.93417
      vertex -4.6 -7.42033 6.93417
    endloop
  endfacet
  facet normal 0 0.893635 -0.448794
    outer loop
      vertex -6 -7.42033 6.93417
      vertex -4.6 -7.59748 6.58143
      vertex -6 -7.59748 6.58143
    endloop
  endfacet
  facet normal 0 -0.939693 0.34202
    outer loop
      vertex -6 -4.48082 5.23704
      vertex -4.6 -4.34582 5.60795
      vertex -6 -4.34582 5.60795
    endloop
  endfacet
  facet normal 0 -0.939693 0.34202
    outer loop
      vertex -4.6 -4.34582 5.60795
      vertex -6 -4.48082 5.23704
      vertex -4.6 -4.48082 5.23704
    endloop
  endfacet
  facet normal 0 -0.835487 0.549509
    outer loop
      vertex -6 -4.69772 4.90726
      vertex -4.6 -4.48082 5.23704
      vertex -6 -4.48082 5.23704
    endloop
  endfacet
  facet normal 0 -0.835487 0.549509
    outer loop
      vertex -4.6 -4.48082 5.23704
      vertex -6 -4.69772 4.90726
      vertex -4.6 -4.69772 4.90726
    endloop
  endfacet
  facet normal -0 0.597147 0.802132
    outer loop
      vertex -6 -6.85 4.52776
      vertex -4.6 -7.16661 4.76346
      vertex -4.6 -6.85 4.52776
    endloop
  endfacet
  facet normal 0 0.597147 0.802132
    outer loop
      vertex -4.6 -7.16661 4.76346
      vertex -6 -6.85 4.52776
      vertex -6 -7.16661 4.76346
    endloop
  endfacet
  facet normal 0 0.766043 0.64279
    outer loop
      vertex -4.6 -7.16661 4.76346
      vertex -6 -7.42033 5.06583
      vertex -4.6 -7.42033 5.06583
    endloop
  endfacet
  facet normal 0 0.766043 0.64279
    outer loop
      vertex -6 -7.42033 5.06583
      vertex -4.6 -7.16661 4.76346
      vertex -6 -7.16661 4.76346
    endloop
  endfacet
  facet normal 0 0.173644 -0.984809
    outer loop
      vertex -6 -6.48757 7.62858
      vertex -4.6 -6.09885 7.69712
      vertex -4.6 -6.48757 7.62858
    endloop
  endfacet
  facet normal 0 0.173644 -0.984809
    outer loop
      vertex -4.6 -6.09885 7.69712
      vertex -6 -6.48757 7.62858
      vertex -6 -6.09885 7.69712
    endloop
  endfacet
  facet normal 0 -0.500008 -0.866021
    outer loop
      vertex -6 -5.32666 7.56097
      vertex -4.6 -4.98483 7.36361
      vertex -4.6 -5.32666 7.56097
    endloop
  endfacet
  facet normal -0 -0.500008 -0.866021
    outer loop
      vertex -4.6 -4.98483 7.36361
      vertex -6 -5.32666 7.56097
      vertex -6 -4.98483 7.36361
    endloop
  endfacet
  facet normal 0 -0.500008 0.866021
    outer loop
      vertex -6 -4.98483 4.63639
      vertex -4.6 -5.32666 4.43903
      vertex -4.6 -4.98483 4.63639
    endloop
  endfacet
  facet normal 0 -0.500008 0.866021
    outer loop
      vertex -4.6 -5.32666 4.43903
      vertex -6 -4.98483 4.63639
      vertex -6 -5.32666 4.43903
    endloop
  endfacet
  facet normal 0 -0.835487 -0.549509
    outer loop
      vertex -6 -4.48082 6.76296
      vertex -4.6 -4.69772 7.09274
      vertex -6 -4.69772 7.09274
    endloop
  endfacet
  facet normal 0 -0.835487 -0.549509
    outer loop
      vertex -4.6 -4.69772 7.09274
      vertex -6 -4.48082 6.76296
      vertex -4.6 -4.48082 6.76296
    endloop
  endfacet
  facet normal 0 0.597147 -0.802132
    outer loop
      vertex -6 -7.16661 7.23654
      vertex -4.6 -6.85 7.47224
      vertex -4.6 -7.16661 7.23654
    endloop
  endfacet
  facet normal 0 0.597147 -0.802132
    outer loop
      vertex -4.6 -6.85 7.47224
      vertex -6 -7.16661 7.23654
      vertex -6 -6.85 7.47224
    endloop
  endfacet
  facet normal 0 0.973043 0.230625
    outer loop
      vertex -4.6 -7.59748 5.41857
      vertex -6 -7.68851 5.80264
      vertex -4.6 -7.68851 5.80264
    endloop
  endfacet
  facet normal 0 0.973043 0.230625
    outer loop
      vertex -6 -7.68851 5.80264
      vertex -4.6 -7.59748 5.41857
      vertex -6 -7.59748 5.41857
    endloop
  endfacet
  facet normal 0 0.893635 0.448794
    outer loop
      vertex -4.6 -7.42033 5.06583
      vertex -6 -7.59748 5.41857
      vertex -4.6 -7.59748 5.41857
    endloop
  endfacet
  facet normal 0 0.893635 0.448794
    outer loop
      vertex -6 -7.59748 5.41857
      vertex -4.6 -7.42033 5.06583
      vertex -6 -7.42033 5.06583
    endloop
  endfacet
  facet normal 0 0.973043 -0.230625
    outer loop
      vertex -4.6 -7.68851 6.19736
      vertex -6 -7.59748 6.58143
      vertex -4.6 -7.59748 6.58143
    endloop
  endfacet
  facet normal 0 0.973043 -0.230625
    outer loop
      vertex -6 -7.59748 6.58143
      vertex -4.6 -7.68851 6.19736
      vertex -6 -7.68851 6.19736
    endloop
  endfacet
  facet normal 0 -0.286785 0.957995
    outer loop
      vertex 46.8 -5.32666 4.43903
      vertex 48.2 -5.7048 4.32583
      vertex 48.2 -5.32666 4.43903
    endloop
  endfacet
  facet normal 0 -0.286785 0.957995
    outer loop
      vertex 48.2 -5.7048 4.32583
      vertex 46.8 -5.32666 4.43903
      vertex 46.8 -5.7048 4.32583
    endloop
  endfacet
  facet normal 0 1 -0
    outer loop
      vertex 48.2 -7.68851 5.80264
      vertex 46.8 -7.68851 6.19736
      vertex 48.2 -7.68851 6.19736
    endloop
  endfacet
  facet normal 0 1 0
    outer loop
      vertex 46.8 -7.68851 6.19736
      vertex 48.2 -7.68851 5.80264
      vertex 46.8 -7.68851 5.80264
    endloop
  endfacet
  facet normal 0 -0.99324 -0.116083
    outer loop
      vertex 46.8 -4.3 6
      vertex 48.2 -4.34582 6.39205
      vertex 46.8 -4.34582 6.39205
    endloop
  endfacet
  facet normal 0 -0.99324 -0.116083
    outer loop
      vertex 48.2 -4.34582 6.39205
      vertex 46.8 -4.3 6
      vertex 48.2 -4.3 6
    endloop
  endfacet
  facet normal 0 0.766043 -0.64279
    outer loop
      vertex 48.2 -7.42033 6.93417
      vertex 46.8 -7.16661 7.23654
      vertex 48.2 -7.16661 7.23654
    endloop
  endfacet
  facet normal 0 0.766043 -0.64279
    outer loop
      vertex 46.8 -7.16661 7.23654
      vertex 48.2 -7.42033 6.93417
      vertex 46.8 -7.42033 6.93417
    endloop
  endfacet
  facet normal 0 -0.0581428 0.998308
    outer loop
      vertex 46.8 -5.7048 4.32583
      vertex 48.2 -6.09885 4.30288
      vertex 48.2 -5.7048 4.32583
    endloop
  endfacet
  facet normal 0 -0.0581428 0.998308
    outer loop
      vertex 48.2 -6.09885 4.30288
      vertex 46.8 -5.7048 4.32583
      vertex 46.8 -6.09885 4.30288
    endloop
  endfacet
  facet normal 0 -0.99324 0.116083
    outer loop
      vertex 46.8 -4.34582 5.60795
      vertex 48.2 -4.3 6
      vertex 46.8 -4.3 6
    endloop
  endfacet
  facet normal 0 -0.99324 0.116083
    outer loop
      vertex 48.2 -4.3 6
      vertex 46.8 -4.34582 5.60795
      vertex 48.2 -4.34582 5.60795
    endloop
  endfacet
  facet normal 0 -0.0581428 -0.998308
    outer loop
      vertex 46.8 -6.09885 7.69712
      vertex 48.2 -5.7048 7.67417
      vertex 48.2 -6.09885 7.69712
    endloop
  endfacet
  facet normal -0 -0.0581428 -0.998308
    outer loop
      vertex 48.2 -5.7048 7.67417
      vertex 46.8 -6.09885 7.69712
      vertex 46.8 -5.7048 7.67417
    endloop
  endfacet
  facet normal 0 -0.686236 0.727379
    outer loop
      vertex 46.8 -4.69772 4.90726
      vertex 48.2 -4.98483 4.63639
      vertex 48.2 -4.69772 4.90726
    endloop
  endfacet
  facet normal 0 -0.686236 0.727379
    outer loop
      vertex 48.2 -4.98483 4.63639
      vertex 46.8 -4.69772 4.90726
      vertex 46.8 -4.98483 4.63639
    endloop
  endfacet
  facet normal 0 -0.686236 -0.727379
    outer loop
      vertex 46.8 -4.98483 7.36361
      vertex 48.2 -4.69772 7.09274
      vertex 48.2 -4.98483 7.36361
    endloop
  endfacet
  facet normal -0 -0.686236 -0.727379
    outer loop
      vertex 48.2 -4.69772 7.09274
      vertex 46.8 -4.98483 7.36361
      vertex 46.8 -4.69772 7.09274
    endloop
  endfacet
  facet normal 0 -0.939693 -0.34202
    outer loop
      vertex 46.8 -4.34582 6.39205
      vertex 48.2 -4.48082 6.76296
      vertex 46.8 -4.48082 6.76296
    endloop
  endfacet
  facet normal 0 -0.939693 -0.34202
    outer loop
      vertex 48.2 -4.48082 6.76296
      vertex 46.8 -4.34582 6.39205
      vertex 48.2 -4.34582 6.39205
    endloop
  endfacet
  facet normal -0 0.396086 0.918213
    outer loop
      vertex 46.8 -6.48757 4.37142
      vertex 48.2 -6.85 4.52776
      vertex 48.2 -6.48757 4.37142
    endloop
  endfacet
  facet normal 0 0.396086 0.918213
    outer loop
      vertex 48.2 -6.85 4.52776
      vertex 46.8 -6.48757 4.37142
      vertex 46.8 -6.85 4.52776
    endloop
  endfacet
  facet normal 0 -0.286785 -0.957995
    outer loop
      vertex 46.8 -5.7048 7.67417
      vertex 48.2 -5.32666 7.56097
      vertex 48.2 -5.7048 7.67417
    endloop
  endfacet
  facet normal -0 -0.286785 -0.957995
    outer loop
      vertex 48.2 -5.32666 7.56097
      vertex 46.8 -5.7048 7.67417
      vertex 46.8 -5.32666 7.56097
    endloop
  endfacet
  facet normal -0 0.173644 0.984809
    outer loop
      vertex 46.8 -6.09885 4.30288
      vertex 48.2 -6.48757 4.37142
      vertex 48.2 -6.09885 4.30288
    endloop
  endfacet
  facet normal 0 0.173644 0.984809
    outer loop
      vertex 48.2 -6.48757 4.37142
      vertex 46.8 -6.09885 4.30288
      vertex 46.8 -6.48757 4.37142
    endloop
  endfacet
  facet normal 0 0.396086 -0.918213
    outer loop
      vertex 46.8 -6.85 7.47224
      vertex 48.2 -6.48757 7.62858
      vertex 48.2 -6.85 7.47224
    endloop
  endfacet
  facet normal 0 0.396086 -0.918213
    outer loop
      vertex 48.2 -6.48757 7.62858
      vertex 46.8 -6.85 7.47224
      vertex 46.8 -6.48757 7.62858
    endloop
  endfacet
  facet normal 0 0.893635 -0.448794
    outer loop
      vertex 48.2 -7.59748 6.58143
      vertex 46.8 -7.42033 6.93417
      vertex 48.2 -7.42033 6.93417
    endloop
  endfacet
  facet normal 0 0.893635 -0.448794
    outer loop
      vertex 46.8 -7.42033 6.93417
      vertex 48.2 -7.59748 6.58143
      vertex 46.8 -7.59748 6.58143
    endloop
  endfacet
  facet normal 0 -0.939693 0.34202
    outer loop
      vertex 46.8 -4.48082 5.23704
      vertex 48.2 -4.34582 5.60795
      vertex 46.8 -4.34582 5.60795
    endloop
  endfacet
  facet normal 0 -0.939693 0.34202
    outer loop
      vertex 48.2 -4.34582 5.60795
      vertex 46.8 -4.48082 5.23704
      vertex 48.2 -4.48082 5.23704
    endloop
  endfacet
  facet normal 0 -0.835487 0.549509
    outer loop
      vertex 46.8 -4.69772 4.90726
      vertex 48.2 -4.48082 5.23704
      vertex 46.8 -4.48082 5.23704
    endloop
  endfacet
  facet normal 0 -0.835487 0.549509
    outer loop
      vertex 48.2 -4.48082 5.23704
      vertex 46.8 -4.69772 4.90726
      vertex 48.2 -4.69772 4.90726
    endloop
  endfacet
  facet normal -0 0.597147 0.802132
    outer loop
      vertex 46.8 -6.85 4.52776
      vertex 48.2 -7.16661 4.76346
      vertex 48.2 -6.85 4.52776
    endloop
  endfacet
  facet normal 0 0.597147 0.802132
    outer loop
      vertex 48.2 -7.16661 4.76346
      vertex 46.8 -6.85 4.52776
      vertex 46.8 -7.16661 4.76346
    endloop
  endfacet
  facet normal 0 0.766043 0.64279
    outer loop
      vertex 48.2 -7.16661 4.76346
      vertex 46.8 -7.42033 5.06583
      vertex 48.2 -7.42033 5.06583
    endloop
  endfacet
  facet normal 0 0.766043 0.64279
    outer loop
      vertex 46.8 -7.42033 5.06583
      vertex 48.2 -7.16661 4.76346
      vertex 46.8 -7.16661 4.76346
    endloop
  endfacet
  facet normal 0 0.173644 -0.984809
    outer loop
      vertex 46.8 -6.48757 7.62858
      vertex 48.2 -6.09885 7.69712
      vertex 48.2 -6.48757 7.62858
    endloop
  endfacet
  facet normal 0 0.173644 -0.984809
    outer loop
      vertex 48.2 -6.09885 7.69712
      vertex 46.8 -6.48757 7.62858
      vertex 46.8 -6.09885 7.69712
    endloop
  endfacet
  facet normal 0 -0.500008 -0.866021
    outer loop
      vertex 46.8 -5.32666 7.56097
      vertex 48.2 -4.98483 7.36361
      vertex 48.2 -5.32666 7.56097
    endloop
  endfacet
  facet normal -0 -0.500008 -0.866021
    outer loop
      vertex 48.2 -4.98483 7.36361
      vertex 46.8 -5.32666 7.56097
      vertex 46.8 -4.98483 7.36361
    endloop
  endfacet
  facet normal 0 -0.500008 0.866021
    outer loop
      vertex 46.8 -4.98483 4.63639
      vertex 48.2 -5.32666 4.43903
      vertex 48.2 -4.98483 4.63639
    endloop
  endfacet
  facet normal 0 -0.500008 0.866021
    outer loop
      vertex 48.2 -5.32666 4.43903
      vertex 46.8 -4.98483 4.63639
      vertex 46.8 -5.32666 4.43903
    endloop
  endfacet
  facet normal 0 -0.835487 -0.549509
    outer loop
      vertex 46.8 -4.48082 6.76296
      vertex 48.2 -4.69772 7.09274
      vertex 46.8 -4.69772 7.09274
    endloop
  endfacet
  facet normal 0 -0.835487 -0.549509
    outer loop
      vertex 48.2 -4.69772 7.09274
      vertex 46.8 -4.48082 6.76296
      vertex 48.2 -4.48082 6.76296
    endloop
  endfacet
  facet normal 0 0.597147 -0.802132
    outer loop
      vertex 46.8 -7.16661 7.23654
      vertex 48.2 -6.85 7.47224
      vertex 48.2 -7.16661 7.23654
    endloop
  endfacet
  facet normal 0 0.597147 -0.802132
    outer loop
      vertex 48.2 -6.85 7.47224
      vertex 46.8 -7.16661 7.23654
      vertex 46.8 -6.85 7.47224
    endloop
  endfacet
  facet normal 0 0.973043 0.230625
    outer loop
      vertex 48.2 -7.59748 5.41857
      vertex 46.8 -7.68851 5.80264
      vertex 48.2 -7.68851 5.80264
    endloop
  endfacet
  facet normal 0 0.973043 0.230625
    outer loop
      vertex 46.8 -7.68851 5.80264
      vertex 48.2 -7.59748 5.41857
      vertex 46.8 -7.59748 5.41857
    endloop
  endfacet
  facet normal 0 0.893635 0.448794
    outer loop
      vertex 48.2 -7.42033 5.06583
      vertex 46.8 -7.59748 5.41857
      vertex 48.2 -7.59748 5.41857
    endloop
  endfacet
  facet normal 0 0.893635 0.448794
    outer loop
      vertex 46.8 -7.59748 5.41857
      vertex 48.2 -7.42033 5.06583
      vertex 46.8 -7.42033 5.06583
    endloop
  endfacet
  facet normal 0 0.973043 -0.230625
    outer loop
      vertex 48.2 -7.68851 6.19736
      vertex 46.8 -7.59748 6.58143
      vertex 48.2 -7.59748 6.58143
    endloop
  endfacet
  facet normal 0 0.973043 -0.230625
    outer loop
      vertex 46.8 -7.59748 6.58143
      vertex 48.2 -7.68851 6.19736
      vertex 46.8 -7.68851 6.19736
    endloop
  endfacet
endsolid OpenSCAD_Model
