solid OpenSCAD_Model
  facet normal 1 -0 0
    outer loop
      vertex 113 0 25
      vertex 113 87 0
      vertex 113 87 25
    endloop
  endfacet
  facet normal 1 0 0
    outer loop
      vertex 113 87 0
      vertex 113 0 25
      vertex 113 0 0
    endloop
  endfacet
  facet normal 0 0 1
    outer loop
      vertex 113 87 25
      vertex 111 85 25
      vertex 113 0 25
    endloop
  endfacet
  facet normal 0 0 1
    outer loop
      vertex 113 87 25
      vertex 2 85 25
      vertex 111 85 25
    endloop
  endfacet
  facet normal 0 0 1
    outer loop
      vertex 2 85 25
      vertex 0 87 25
      vertex 2 2 25
    endloop
  endfacet
  facet normal -0 0 1
    outer loop
      vertex 0 87 25
      vertex 2 85 25
      vertex 113 87 25
    endloop
  endfacet
  facet normal -0 0 1
    outer loop
      vertex 111 2 25
      vertex 113 0 25
      vertex 111 85 25
    endloop
  endfacet
  facet normal 0 0 1
    outer loop
      vertex 64 0 25
      vertex 111 2 25
      vertex 64 2 25
    endloop
  endfacet
  facet normal 0 0 1
    outer loop
      vertex 111 2 25
      vertex 64 0 25
      vertex 113 0 25
    endloop
  endfacet
  facet normal -0 0 1
    outer loop
      vertex 2 2 25
      vertex 49 0 25
      vertex 49 2 25
    endloop
  endfacet
  facet normal 0 0 1
    outer loop
      vertex 2 2 25
      vertex 0 0 25
      vertex 49 0 25
    endloop
  endfacet
  facet normal 0 0 1
    outer loop
      vertex 0 0 25
      vertex 2 2 25
      vertex 0 87 25
    endloop
  endfacet
  facet normal 0 0 -1
    outer loop
      vertex 113 0 0
      vertex 101 12 0
      vertex 113 87 0
    endloop
  endfacet
  facet normal 0 0 -1
    outer loop
      vertex 113 0 0
      vertex 12 12 0
      vertex 101 12 0
    endloop
  endfacet
  facet normal -0 0 -1
    outer loop
      vertex 12 12 0
      vertex 0 0 0
      vertex 12 75 0
    endloop
  endfacet
  facet normal 0 0 -1
    outer loop
      vertex 0 0 0
      vertex 12 12 0
      vertex 113 0 0
    endloop
  endfacet
  facet normal 0 0 -1
    outer loop
      vertex 101 75 0
      vertex 113 87 0
      vertex 101 12 0
    endloop
  endfacet
  facet normal 0 0 -1
    outer loop
      vertex 12 75 0
      vertex 113 87 0
      vertex 101 75 0
    endloop
  endfacet
  facet normal 0 0 -1
    outer loop
      vertex 12 75 0
      vertex 0 87 0
      vertex 113 87 0
    endloop
  endfacet
  facet normal 0 0 -1
    outer loop
      vertex 0 87 0
      vertex 12 75 0
      vertex 0 0 0
    endloop
  endfacet
  facet normal -1 0 0
    outer loop
      vertex 0 68.561 18.3267
      vertex 0 87 25
      vertex 0 87 0
    endloop
  endfacet
  facet normal -1 0 0
    outer loop
      vertex 0 87 25
      vertex 0 68.6742 18.7048
      vertex 0 68.6971 19.0988
    endloop
  endfacet
  facet normal -1 0 0
    outer loop
      vertex 0 87 25
      vertex 0 68.561 18.3267
      vertex 0 68.6742 18.7048
    endloop
  endfacet
  facet normal -1 0 0
    outer loop
      vertex 0 87 0
      vertex 0 68.3636 17.9848
      vertex 0 68.561 18.3267
    endloop
  endfacet
  facet normal -1 0 0
    outer loop
      vertex 0 87 0
      vertex 0 68.0927 17.6977
      vertex 0 68.3636 17.9848
    endloop
  endfacet
  facet normal -1 0 0
    outer loop
      vertex 0 87 0
      vertex 0 67.763 17.4808
      vertex 0 68.0927 17.6977
    endloop
  endfacet
  facet normal -1 0 0
    outer loop
      vertex 0 87 0
      vertex 0 67.392 17.3458
      vertex 0 67.763 17.4808
    endloop
  endfacet
  facet normal -1 0 0
    outer loop
      vertex 0 87 0
      vertex 0 67 17.3
      vertex 0 67.392 17.3458
    endloop
  endfacet
  facet normal -1 0 0
    outer loop
      vertex 0 87 0
      vertex 0 66.608 17.3458
      vertex 0 67 17.3
    endloop
  endfacet
  facet normal -1 0 0
    outer loop
      vertex 0 87 0
      vertex 0 66.237 17.4808
      vertex 0 66.608 17.3458
    endloop
  endfacet
  facet normal -1 0 0
    outer loop
      vertex 0 20.763 17.4808
      vertex 0 66.237 17.4808
      vertex 0 87 0
    endloop
  endfacet
  facet normal -1 0 0
    outer loop
      vertex 0 65.3258 18.7048
      vertex 0 21.6971 19.0988
      vertex 0 65.3029 19.0988
    endloop
  endfacet
  facet normal -1 0 0
    outer loop
      vertex 0 21.6742 18.7048
      vertex 0 65.3258 18.7048
      vertex 0 65.439 18.3267
    endloop
  endfacet
  facet normal -1 0 0
    outer loop
      vertex 0 21.561 18.3267
      vertex 0 65.439 18.3267
      vertex 0 65.6364 17.9848
    endloop
  endfacet
  facet normal -1 0 0
    outer loop
      vertex 0 21.3636 17.9848
      vertex 0 65.6364 17.9848
      vertex 0 65.9073 17.6977
    endloop
  endfacet
  facet normal -1 0 0
    outer loop
      vertex 0 66.237 17.4808
      vertex 0 20.763 17.4808
      vertex 0 65.9073 17.6977
    endloop
  endfacet
  facet normal -1 0 0
    outer loop
      vertex 0 65.3258 18.7048
      vertex 0 21.6742 18.7048
      vertex 0 21.6971 19.0988
    endloop
  endfacet
  facet normal -1 0 0
    outer loop
      vertex 0 65.439 18.3267
      vertex 0 21.561 18.3267
      vertex 0 21.6742 18.7048
    endloop
  endfacet
  facet normal -1 0 0
    outer loop
      vertex 0 65.6364 17.9848
      vertex 0 21.3636 17.9848
      vertex 0 21.561 18.3267
    endloop
  endfacet
  facet normal -1 0 0
    outer loop
      vertex 0 65.9073 17.6977
      vertex 0 21.0927 17.6977
      vertex 0 21.3636 17.9848
    endloop
  endfacet
  facet normal -1 -0 0
    outer loop
      vertex 0 65.9073 17.6977
      vertex 0 20.763 17.4808
      vertex 0 21.0927 17.6977
    endloop
  endfacet
  facet normal -1 0 0
    outer loop
      vertex 0 0 0
      vertex 0 20.763 17.4808
      vertex 0 87 0
    endloop
  endfacet
  facet normal -1 0 0
    outer loop
      vertex 0 20.763 17.4808
      vertex 0 0 0
      vertex 0 20.392 17.3458
    endloop
  endfacet
  facet normal -1 0 0
    outer loop
      vertex 0 20.392 17.3458
      vertex 0 0 0
      vertex 0 20 17.3
    endloop
  endfacet
  facet normal -1 0 0
    outer loop
      vertex 0 18.439 18.3267
      vertex 0 0 25
      vertex 0 18.3258 18.7048
    endloop
  endfacet
  facet normal -1 0 0
    outer loop
      vertex 0 0 25
      vertex 0 18.439 18.3267
      vertex 0 0 0
    endloop
  endfacet
  facet normal -1 -0 0
    outer loop
      vertex 0 18.6364 17.9848
      vertex 0 0 0
      vertex 0 18.439 18.3267
    endloop
  endfacet
  facet normal -1 -0 0
    outer loop
      vertex 0 18.9073 17.6977
      vertex 0 0 0
      vertex 0 18.6364 17.9848
    endloop
  endfacet
  facet normal -1 -0 0
    outer loop
      vertex 0 19.237 17.4808
      vertex 0 0 0
      vertex 0 18.9073 17.6977
    endloop
  endfacet
  facet normal -1 -0 0
    outer loop
      vertex 0 19.608 17.3458
      vertex 0 0 0
      vertex 0 19.237 17.4808
    endloop
  endfacet
  facet normal -1 -0 0
    outer loop
      vertex 0 20 17.3
      vertex 0 0 0
      vertex 0 19.608 17.3458
    endloop
  endfacet
  facet normal -1 0 0
    outer loop
      vertex 0 68.6286 19.4876
      vertex 0 87 25
      vertex 0 68.6971 19.0988
    endloop
  endfacet
  facet normal -1 0 0
    outer loop
      vertex 0 68.4722 19.85
      vertex 0 87 25
      vertex 0 68.6286 19.4876
    endloop
  endfacet
  facet normal -1 0 0
    outer loop
      vertex 0 68.2365 20.1666
      vertex 0 87 25
      vertex 0 68.4722 19.85
    endloop
  endfacet
  facet normal -1 0 0
    outer loop
      vertex 0 67.9342 20.4203
      vertex 0 87 25
      vertex 0 68.2365 20.1666
    endloop
  endfacet
  facet normal -1 0 0
    outer loop
      vertex 0 67.5814 20.5975
      vertex 0 87 25
      vertex 0 67.9342 20.4203
    endloop
  endfacet
  facet normal -1 0 0
    outer loop
      vertex 0 67.1974 20.6885
      vertex 0 87 25
      vertex 0 67.5814 20.5975
    endloop
  endfacet
  facet normal -1 0 0
    outer loop
      vertex 0 66.8026 20.6885
      vertex 0 87 25
      vertex 0 67.1974 20.6885
    endloop
  endfacet
  facet normal -1 0 0
    outer loop
      vertex 0 21.6971 19.0988
      vertex 0 65.3714 19.4876
      vertex 0 65.3029 19.0988
    endloop
  endfacet
  facet normal -1 0 0
    outer loop
      vertex 0 21.6286 19.4876
      vertex 0 65.3714 19.4876
      vertex 0 21.6971 19.0988
    endloop
  endfacet
  facet normal -1 0 0
    outer loop
      vertex 0 65.3714 19.4876
      vertex 0 21.6286 19.4876
      vertex 0 65.5278 19.85
    endloop
  endfacet
  facet normal -1 0 0
    outer loop
      vertex 0 21.4722 19.85
      vertex 0 65.5278 19.85
      vertex 0 21.6286 19.4876
    endloop
  endfacet
  facet normal -1 0 0
    outer loop
      vertex 0 65.5278 19.85
      vertex 0 21.4722 19.85
      vertex 0 65.7635 20.1666
    endloop
  endfacet
  facet normal -1 0 0
    outer loop
      vertex 0 21.2365 20.1666
      vertex 0 65.7635 20.1666
      vertex 0 21.4722 19.85
    endloop
  endfacet
  facet normal -1 0 0
    outer loop
      vertex 0 65.7635 20.1666
      vertex 0 21.2365 20.1666
      vertex 0 66.0658 20.4203
    endloop
  endfacet
  facet normal -1 0 0
    outer loop
      vertex 0 20.9342 20.4203
      vertex 0 66.0658 20.4203
      vertex 0 21.2365 20.1666
    endloop
  endfacet
  facet normal -1 0 0
    outer loop
      vertex 0 66.0658 20.4203
      vertex 0 20.9342 20.4203
      vertex 0 66.4186 20.5975
    endloop
  endfacet
  facet normal -1 0 0
    outer loop
      vertex 0 20.5814 20.5975
      vertex 0 66.4186 20.5975
      vertex 0 20.9342 20.4203
    endloop
  endfacet
  facet normal -1 0 0
    outer loop
      vertex 0 66.4186 20.5975
      vertex 0 20.5814 20.5975
      vertex 0 66.8026 20.6885
    endloop
  endfacet
  facet normal -1 0 0
    outer loop
      vertex 0 20.1974 20.6885
      vertex 0 66.8026 20.6885
      vertex 0 20.5814 20.5975
    endloop
  endfacet
  facet normal -1 0 0
    outer loop
      vertex 0 66.8026 20.6885
      vertex 0 20.1974 20.6885
      vertex 0 87 25
    endloop
  endfacet
  facet normal -1 0 0
    outer loop
      vertex 0 0 25
      vertex 0 20.1974 20.6885
      vertex 0 19.8026 20.6885
    endloop
  endfacet
  facet normal -1 0 0
    outer loop
      vertex 0 18.3258 18.7048
      vertex 0 0 25
      vertex 0 18.3029 19.0988
    endloop
  endfacet
  facet normal -1 0 0
    outer loop
      vertex 0 18.3029 19.0988
      vertex 0 0 25
      vertex 0 18.3714 19.4876
    endloop
  endfacet
  facet normal -1 0 0
    outer loop
      vertex 0 18.3714 19.4876
      vertex 0 0 25
      vertex 0 18.5278 19.85
    endloop
  endfacet
  facet normal -1 0 0
    outer loop
      vertex 0 20.1974 20.6885
      vertex 0 0 25
      vertex 0 87 25
    endloop
  endfacet
  facet normal -1 0 0
    outer loop
      vertex 0 19.4186 20.5975
      vertex 0 0 25
      vertex 0 19.8026 20.6885
    endloop
  endfacet
  facet normal -1 0 0
    outer loop
      vertex 0 19.0658 20.4203
      vertex 0 0 25
      vertex 0 19.4186 20.5975
    endloop
  endfacet
  facet normal -1 0 0
    outer loop
      vertex 0 18.7635 20.1666
      vertex 0 0 25
      vertex 0 19.0658 20.4203
    endloop
  endfacet
  facet normal -1 0 0
    outer loop
      vertex 0 18.5278 19.85
      vertex 0 0 25
      vertex 0 18.7635 20.1666
    endloop
  endfacet
  facet normal 0 1 -0
    outer loop
      vertex 113 87 0
      vertex 0 87 25
      vertex 113 87 25
    endloop
  endfacet
  facet normal 0 1 0
    outer loop
      vertex 0 87 25
      vertex 113 87 0
      vertex 0 87 0
    endloop
  endfacet
  facet normal 0 -1 0
    outer loop
      vertex 0 0 25
      vertex 19.9012 0 20.6971
      vertex 49 0 25
    endloop
  endfacet
  facet normal 0 -1 0
    outer loop
      vertex 0 0 25
      vertex 19.5124 0 20.6286
      vertex 19.9012 0 20.6971
    endloop
  endfacet
  facet normal 0 -1 0
    outer loop
      vertex 0 0 25
      vertex 19.15 0 20.4722
      vertex 19.5124 0 20.6286
    endloop
  endfacet
  facet normal 0 -1 0
    outer loop
      vertex 0 0 25
      vertex 18.8334 0 20.2365
      vertex 19.15 0 20.4722
    endloop
  endfacet
  facet normal 0 -1 0
    outer loop
      vertex 0 0 25
      vertex 18.5797 0 19.9342
      vertex 18.8334 0 20.2365
    endloop
  endfacet
  facet normal 0 -1 0
    outer loop
      vertex 0 0 25
      vertex 18.4025 0 19.5814
      vertex 18.5797 0 19.9342
    endloop
  endfacet
  facet normal 0 -1 0
    outer loop
      vertex 0 0 25
      vertex 18.3115 0 19.1974
      vertex 18.4025 0 19.5814
    endloop
  endfacet
  facet normal 0 -1 0
    outer loop
      vertex 0 0 25
      vertex 18.3115 0 18.8026
      vertex 18.3115 0 19.1974
    endloop
  endfacet
  facet normal 0 -1 0
    outer loop
      vertex 0 0 25
      vertex 18.4025 0 18.4186
      vertex 18.3115 0 18.8026
    endloop
  endfacet
  facet normal 0 -1 0
    outer loop
      vertex 0 0 0
      vertex 18.4025 0 18.4186
      vertex 0 0 25
    endloop
  endfacet
  facet normal 0 -1 -0
    outer loop
      vertex 18.4025 0 18.4186
      vertex 0 0 0
      vertex 18.5797 0 18.0658
    endloop
  endfacet
  facet normal 0 -1 -0
    outer loop
      vertex 18.5797 0 18.0658
      vertex 0 0 0
      vertex 18.8334 0 17.7635
    endloop
  endfacet
  facet normal 0 -1 -0
    outer loop
      vertex 18.8334 0 17.7635
      vertex 0 0 0
      vertex 19.15 0 17.5278
    endloop
  endfacet
  facet normal 0 -1 0
    outer loop
      vertex 0 0 0
      vertex 19.9012 0 17.3029
      vertex 19.5124 0 17.3714
    endloop
  endfacet
  facet normal 0 -1 -0
    outer loop
      vertex 49 0 8
      vertex 0 0 0
      vertex 64 0 8
    endloop
  endfacet
  facet normal 0 -1 -0
    outer loop
      vertex 19.9012 0 17.3029
      vertex 0 0 0
      vertex 49 0 8
    endloop
  endfacet
  facet normal 0 -1 -0
    outer loop
      vertex 19.15 0 17.5278
      vertex 0 0 0
      vertex 19.5124 0 17.3714
    endloop
  endfacet
  facet normal 0 -1 0
    outer loop
      vertex 20.2952 0 20.6742
      vertex 49 0 25
      vertex 19.9012 0 20.6971
    endloop
  endfacet
  facet normal 0 -1 0
    outer loop
      vertex 20.6733 0 20.561
      vertex 49 0 25
      vertex 20.2952 0 20.6742
    endloop
  endfacet
  facet normal 0 -1 0
    outer loop
      vertex 21.0152 0 20.3636
      vertex 49 0 25
      vertex 20.6733 0 20.561
    endloop
  endfacet
  facet normal 0 -1 0
    outer loop
      vertex 21.3023 0 20.0927
      vertex 49 0 25
      vertex 21.0152 0 20.3636
    endloop
  endfacet
  facet normal 0 -1 0
    outer loop
      vertex 21.5192 0 19.763
      vertex 49 0 25
      vertex 21.3023 0 20.0927
    endloop
  endfacet
  facet normal 0 -1 0
    outer loop
      vertex 21.6542 0 19.392
      vertex 49 0 25
      vertex 21.5192 0 19.763
    endloop
  endfacet
  facet normal 0 -1 0
    outer loop
      vertex 21.7 0 19
      vertex 49 0 25
      vertex 21.6542 0 19.392
    endloop
  endfacet
  facet normal 0 -1 0
    outer loop
      vertex 21.6542 0 18.608
      vertex 49 0 25
      vertex 21.7 0 19
    endloop
  endfacet
  facet normal 0 -1 0
    outer loop
      vertex 49 0 8
      vertex 21.6542 0 18.608
      vertex 21.5192 0 18.237
    endloop
  endfacet
  facet normal 0 -1 0
    outer loop
      vertex 49 0 8
      vertex 21.5192 0 18.237
      vertex 21.3023 0 17.9073
    endloop
  endfacet
  facet normal 0 -1 0
    outer loop
      vertex 49 0 8
      vertex 21.3023 0 17.9073
      vertex 21.0152 0 17.6364
    endloop
  endfacet
  facet normal 0 -1 0
    outer loop
      vertex 49 0 8
      vertex 21.0152 0 17.6364
      vertex 20.6733 0 17.439
    endloop
  endfacet
  facet normal 0 -1 0
    outer loop
      vertex 49 0 8
      vertex 20.6733 0 17.439
      vertex 20.2952 0 17.3258
    endloop
  endfacet
  facet normal 0 -1 0
    outer loop
      vertex 21.6542 0 18.608
      vertex 49 0 8
      vertex 49 0 25
    endloop
  endfacet
  facet normal 0 -1 0
    outer loop
      vertex 49 0 8
      vertex 20.2952 0 17.3258
      vertex 19.9012 0 17.3029
    endloop
  endfacet
  facet normal 0 -1 0
    outer loop
      vertex 64 0 25
      vertex 92.9012 0 20.6971
      vertex 113 0 25
    endloop
  endfacet
  facet normal 0 -1 0
    outer loop
      vertex 64 0 25
      vertex 92.5124 0 20.6286
      vertex 92.9012 0 20.6971
    endloop
  endfacet
  facet normal 0 -1 0
    outer loop
      vertex 64 0 25
      vertex 92.15 0 20.4722
      vertex 92.5124 0 20.6286
    endloop
  endfacet
  facet normal 0 -1 0
    outer loop
      vertex 64 0 25
      vertex 91.8334 0 20.2365
      vertex 92.15 0 20.4722
    endloop
  endfacet
  facet normal 0 -1 0
    outer loop
      vertex 64 0 25
      vertex 91.5797 0 19.9342
      vertex 91.8334 0 20.2365
    endloop
  endfacet
  facet normal 0 -1 0
    outer loop
      vertex 64 0 25
      vertex 91.4025 0 19.5814
      vertex 91.5797 0 19.9342
    endloop
  endfacet
  facet normal 0 -1 0
    outer loop
      vertex 64 0 25
      vertex 91.3115 0 19.1974
      vertex 91.4025 0 19.5814
    endloop
  endfacet
  facet normal 0 -1 0
    outer loop
      vertex 64 0 25
      vertex 91.3115 0 18.8026
      vertex 91.3115 0 19.1974
    endloop
  endfacet
  facet normal 0 -1 0
    outer loop
      vertex 64 0 8
      vertex 91.3115 0 18.8026
      vertex 64 0 25
    endloop
  endfacet
  facet normal 0 -1 -0
    outer loop
      vertex 91.3115 0 18.8026
      vertex 64 0 8
      vertex 91.4025 0 18.4186
    endloop
  endfacet
  facet normal 0 -1 -0
    outer loop
      vertex 91.4025 0 18.4186
      vertex 64 0 8
      vertex 91.5797 0 18.0658
    endloop
  endfacet
  facet normal 0 -1 -0
    outer loop
      vertex 91.5797 0 18.0658
      vertex 64 0 8
      vertex 91.8334 0 17.7635
    endloop
  endfacet
  facet normal 0 -1 -0
    outer loop
      vertex 91.8334 0 17.7635
      vertex 64 0 8
      vertex 92.15 0 17.5278
    endloop
  endfacet
  facet normal 0 -1 0
    outer loop
      vertex 113 0 0
      vertex 92.5124 0 17.3714
      vertex 64 0 8
    endloop
  endfacet
  facet normal 0 -1 -0
    outer loop
      vertex 92.15 0 17.5278
      vertex 64 0 8
      vertex 92.5124 0 17.3714
    endloop
  endfacet
  facet normal 0 -1 0
    outer loop
      vertex 93.2952 0 20.6742
      vertex 113 0 25
      vertex 92.9012 0 20.6971
    endloop
  endfacet
  facet normal 0 -1 0
    outer loop
      vertex 93.6733 0 20.561
      vertex 113 0 25
      vertex 93.2952 0 20.6742
    endloop
  endfacet
  facet normal 0 -1 0
    outer loop
      vertex 94.0152 0 20.3636
      vertex 113 0 25
      vertex 93.6733 0 20.561
    endloop
  endfacet
  facet normal 0 -1 0
    outer loop
      vertex 94.3023 0 20.0927
      vertex 113 0 25
      vertex 94.0152 0 20.3636
    endloop
  endfacet
  facet normal 0 -1 0
    outer loop
      vertex 94.5192 0 19.763
      vertex 113 0 25
      vertex 94.3023 0 20.0927
    endloop
  endfacet
  facet normal 0 -1 0
    outer loop
      vertex 94.6542 0 19.392
      vertex 113 0 25
      vertex 94.5192 0 19.763
    endloop
  endfacet
  facet normal 0 -1 0
    outer loop
      vertex 94.7 0 19
      vertex 113 0 25
      vertex 94.6542 0 19.392
    endloop
  endfacet
  facet normal 0 -1 0
    outer loop
      vertex 94.6542 0 18.608
      vertex 113 0 25
      vertex 94.7 0 19
    endloop
  endfacet
  facet normal 0 -1 0
    outer loop
      vertex 94.5192 0 18.237
      vertex 113 0 25
      vertex 94.6542 0 18.608
    endloop
  endfacet
  facet normal 0 -1 0
    outer loop
      vertex 113 0 0
      vertex 94.5192 0 18.237
      vertex 94.3023 0 17.9073
    endloop
  endfacet
  facet normal 0 -1 0
    outer loop
      vertex 113 0 0
      vertex 94.3023 0 17.9073
      vertex 94.0152 0 17.6364
    endloop
  endfacet
  facet normal 0 -1 0
    outer loop
      vertex 113 0 0
      vertex 94.0152 0 17.6364
      vertex 93.6733 0 17.439
    endloop
  endfacet
  facet normal 0 -1 0
    outer loop
      vertex 92.5124 0 17.3714
      vertex 113 0 0
      vertex 92.9012 0 17.3029
    endloop
  endfacet
  facet normal 0 -1 0
    outer loop
      vertex 92.9012 0 17.3029
      vertex 113 0 0
      vertex 93.2952 0 17.3258
    endloop
  endfacet
  facet normal 0 -1 0
    outer loop
      vertex 94.5192 0 18.237
      vertex 113 0 0
      vertex 113 0 25
    endloop
  endfacet
  facet normal 0 -1 0
    outer loop
      vertex 93.2952 0 17.3258
      vertex 113 0 0
      vertex 93.6733 0 17.439
    endloop
  endfacet
  facet normal 0 -1 0
    outer loop
      vertex 113 0 0
      vertex 64 0 8
      vertex 0 0 0
    endloop
  endfacet
  facet normal -1 0 0
    outer loop
      vertex 111 2 2
      vertex 111 85 25
      vertex 111 85 2
    endloop
  endfacet
  facet normal -1 -0 0
    outer loop
      vertex 111 85 25
      vertex 111 2 2
      vertex 111 2 25
    endloop
  endfacet
  facet normal 0 0 1
    outer loop
      vertex 111 85 2
      vertex 101 75 2
      vertex 111 2 2
    endloop
  endfacet
  facet normal 0 0 1
    outer loop
      vertex 111 85 2
      vertex 12 75 2
      vertex 101 75 2
    endloop
  endfacet
  facet normal 0 0 1
    outer loop
      vertex 12 75 2
      vertex 2 85 2
      vertex 12 12 2
    endloop
  endfacet
  facet normal -0 0 1
    outer loop
      vertex 2 85 2
      vertex 12 75 2
      vertex 111 85 2
    endloop
  endfacet
  facet normal -0 0 1
    outer loop
      vertex 101 12 2
      vertex 111 2 2
      vertex 101 75 2
    endloop
  endfacet
  facet normal -0 0 1
    outer loop
      vertex 12 12 2
      vertex 111 2 2
      vertex 101 12 2
    endloop
  endfacet
  facet normal 0 0 1
    outer loop
      vertex 12 12 2
      vertex 2 2 2
      vertex 111 2 2
    endloop
  endfacet
  facet normal 0 0 1
    outer loop
      vertex 2 2 2
      vertex 12 12 2
      vertex 2 85 2
    endloop
  endfacet
  facet normal 1 0 0
    outer loop
      vertex 2 68.6742 18.7048
      vertex 2 85 25
      vertex 2 68.6971 19.0988
    endloop
  endfacet
  facet normal 1 0 0
    outer loop
      vertex 2 85 25
      vertex 2 68.6286 19.4876
      vertex 2 68.6971 19.0988
    endloop
  endfacet
  facet normal 1 0 0
    outer loop
      vertex 2 85 25
      vertex 2 68.4722 19.85
      vertex 2 68.6286 19.4876
    endloop
  endfacet
  facet normal 1 0 0
    outer loop
      vertex 2 85 25
      vertex 2 68.2365 20.1666
      vertex 2 68.4722 19.85
    endloop
  endfacet
  facet normal 1 0 0
    outer loop
      vertex 2 85 25
      vertex 2 67.9342 20.4203
      vertex 2 68.2365 20.1666
    endloop
  endfacet
  facet normal 1 0 0
    outer loop
      vertex 2 85 25
      vertex 2 67.5814 20.5975
      vertex 2 67.9342 20.4203
    endloop
  endfacet
  facet normal 1 0 0
    outer loop
      vertex 2 85 25
      vertex 2 67.1974 20.6885
      vertex 2 67.5814 20.5975
    endloop
  endfacet
  facet normal 1 0 0
    outer loop
      vertex 2 85 25
      vertex 2 66.8026 20.6885
      vertex 2 67.1974 20.6885
    endloop
  endfacet
  facet normal 1 0 0
    outer loop
      vertex 2 65.3714 19.4876
      vertex 2 21.6971 19.0988
      vertex 2 65.3029 19.0988
    endloop
  endfacet
  facet normal 1 0 0
    outer loop
      vertex 2 21.6286 19.4876
      vertex 2 65.3714 19.4876
      vertex 2 65.5278 19.85
    endloop
  endfacet
  facet normal 1 0 0
    outer loop
      vertex 2 21.4722 19.85
      vertex 2 65.5278 19.85
      vertex 2 65.7635 20.1666
    endloop
  endfacet
  facet normal 1 0 0
    outer loop
      vertex 2 21.2365 20.1666
      vertex 2 65.7635 20.1666
      vertex 2 66.0658 20.4203
    endloop
  endfacet
  facet normal 1 0 0
    outer loop
      vertex 2 20.9342 20.4203
      vertex 2 66.0658 20.4203
      vertex 2 66.4186 20.5975
    endloop
  endfacet
  facet normal 1 0 0
    outer loop
      vertex 2 20.5814 20.5975
      vertex 2 66.4186 20.5975
      vertex 2 66.8026 20.6885
    endloop
  endfacet
  facet normal 1 0 0
    outer loop
      vertex 2 20.1974 20.6885
      vertex 2 66.8026 20.6885
      vertex 2 85 25
    endloop
  endfacet
  facet normal 1 0 0
    outer loop
      vertex 2 65.3714 19.4876
      vertex 2 21.6286 19.4876
      vertex 2 21.6971 19.0988
    endloop
  endfacet
  facet normal 1 0 0
    outer loop
      vertex 2 65.5278 19.85
      vertex 2 21.4722 19.85
      vertex 2 21.6286 19.4876
    endloop
  endfacet
  facet normal 1 0 0
    outer loop
      vertex 2 65.7635 20.1666
      vertex 2 21.2365 20.1666
      vertex 2 21.4722 19.85
    endloop
  endfacet
  facet normal 1 0 0
    outer loop
      vertex 2 66.0658 20.4203
      vertex 2 20.9342 20.4203
      vertex 2 21.2365 20.1666
    endloop
  endfacet
  facet normal 1 0 0
    outer loop
      vertex 2 66.4186 20.5975
      vertex 2 20.5814 20.5975
      vertex 2 20.9342 20.4203
    endloop
  endfacet
  facet normal 1 0 0
    outer loop
      vertex 2 66.8026 20.6885
      vertex 2 20.1974 20.6885
      vertex 2 20.5814 20.5975
    endloop
  endfacet
  facet normal 1 -0 0
    outer loop
      vertex 2 2 25
      vertex 2 20.1974 20.6885
      vertex 2 85 25
    endloop
  endfacet
  facet normal 1 0 0
    outer loop
      vertex 2 18.3714 19.4876
      vertex 2 2 25
      vertex 2 18.3029 19.0988
    endloop
  endfacet
  facet normal 1 0 0
    outer loop
      vertex 2 18.5278 19.85
      vertex 2 2 25
      vertex 2 18.3714 19.4876
    endloop
  endfacet
  facet normal 1 0 0
    outer loop
      vertex 2 18.7635 20.1666
      vertex 2 2 25
      vertex 2 18.5278 19.85
    endloop
  endfacet
  facet normal 1 0 0
    outer loop
      vertex 2 19.0658 20.4203
      vertex 2 2 25
      vertex 2 18.7635 20.1666
    endloop
  endfacet
  facet normal 1 0 0
    outer loop
      vertex 2 19.4186 20.5975
      vertex 2 2 25
      vertex 2 19.0658 20.4203
    endloop
  endfacet
  facet normal 1 0 0
    outer loop
      vertex 2 19.8026 20.6885
      vertex 2 2 25
      vertex 2 19.4186 20.5975
    endloop
  endfacet
  facet normal 1 0 0
    outer loop
      vertex 2 20.1974 20.6885
      vertex 2 2 25
      vertex 2 19.8026 20.6885
    endloop
  endfacet
  facet normal 1 0 0
    outer loop
      vertex 2 68.561 18.3267
      vertex 2 85 25
      vertex 2 68.6742 18.7048
    endloop
  endfacet
  facet normal 1 0 0
    outer loop
      vertex 2 85 25
      vertex 2 68.561 18.3267
      vertex 2 85 2
    endloop
  endfacet
  facet normal 1 -0 0
    outer loop
      vertex 2 68.3636 17.9848
      vertex 2 85 2
      vertex 2 68.561 18.3267
    endloop
  endfacet
  facet normal 1 -0 0
    outer loop
      vertex 2 68.0927 17.6977
      vertex 2 85 2
      vertex 2 68.3636 17.9848
    endloop
  endfacet
  facet normal 1 -0 0
    outer loop
      vertex 2 67.763 17.4808
      vertex 2 85 2
      vertex 2 68.0927 17.6977
    endloop
  endfacet
  facet normal 1 -0 0
    outer loop
      vertex 2 67.392 17.3458
      vertex 2 85 2
      vertex 2 67.763 17.4808
    endloop
  endfacet
  facet normal 1 -0 0
    outer loop
      vertex 2 67 17.3
      vertex 2 85 2
      vertex 2 67.392 17.3458
    endloop
  endfacet
  facet normal 1 0 0
    outer loop
      vertex 2 66.608 17.3458
      vertex 2 85 2
      vertex 2 67 17.3
    endloop
  endfacet
  facet normal 1 0 0
    outer loop
      vertex 2 66.237 17.4808
      vertex 2 85 2
      vertex 2 66.608 17.3458
    endloop
  endfacet
  facet normal 1 0 0
    outer loop
      vertex 2 20.763 17.4808
      vertex 2 66.237 17.4808
      vertex 2 65.9073 17.6977
    endloop
  endfacet
  facet normal 1 -0 0
    outer loop
      vertex 2 21.6971 19.0988
      vertex 2 65.3258 18.7048
      vertex 2 65.3029 19.0988
    endloop
  endfacet
  facet normal 1 0 0
    outer loop
      vertex 2 21.6742 18.7048
      vertex 2 65.3258 18.7048
      vertex 2 21.6971 19.0988
    endloop
  endfacet
  facet normal 1 0 0
    outer loop
      vertex 2 65.3258 18.7048
      vertex 2 21.6742 18.7048
      vertex 2 65.439 18.3267
    endloop
  endfacet
  facet normal 1 0 0
    outer loop
      vertex 2 21.561 18.3267
      vertex 2 65.439 18.3267
      vertex 2 21.6742 18.7048
    endloop
  endfacet
  facet normal 1 0 0
    outer loop
      vertex 2 65.439 18.3267
      vertex 2 21.561 18.3267
      vertex 2 65.6364 17.9848
    endloop
  endfacet
  facet normal 1 0 0
    outer loop
      vertex 2 21.3636 17.9848
      vertex 2 65.6364 17.9848
      vertex 2 21.561 18.3267
    endloop
  endfacet
  facet normal 1 0 0
    outer loop
      vertex 2 65.6364 17.9848
      vertex 2 21.3636 17.9848
      vertex 2 65.9073 17.6977
    endloop
  endfacet
  facet normal 1 0 0
    outer loop
      vertex 2 21.0927 17.6977
      vertex 2 65.9073 17.6977
      vertex 2 21.3636 17.9848
    endloop
  endfacet
  facet normal 1 0 0
    outer loop
      vertex 2 20.763 17.4808
      vertex 2 65.9073 17.6977
      vertex 2 21.0927 17.6977
    endloop
  endfacet
  facet normal 1 0 0
    outer loop
      vertex 2 66.237 17.4808
      vertex 2 20.763 17.4808
      vertex 2 85 2
    endloop
  endfacet
  facet normal 1 0 0
    outer loop
      vertex 2 2 2
      vertex 2 20.763 17.4808
      vertex 2 20.392 17.3458
    endloop
  endfacet
  facet normal 1 0 0
    outer loop
      vertex 2 2 2
      vertex 2 20.392 17.3458
      vertex 2 20 17.3
    endloop
  endfacet
  facet normal 1 0 0
    outer loop
      vertex 2 2 2
      vertex 2 20 17.3
      vertex 2 19.608 17.3458
    endloop
  endfacet
  facet normal 1 0 0
    outer loop
      vertex 2 2 25
      vertex 2 18.3258 18.7048
      vertex 2 18.3029 19.0988
    endloop
  endfacet
  facet normal 1 0 0
    outer loop
      vertex 2 2 25
      vertex 2 18.439 18.3267
      vertex 2 18.3258 18.7048
    endloop
  endfacet
  facet normal 1 0 0
    outer loop
      vertex 2 2 2
      vertex 2 18.439 18.3267
      vertex 2 2 25
    endloop
  endfacet
  facet normal 1 0 0
    outer loop
      vertex 2 18.439 18.3267
      vertex 2 2 2
      vertex 2 18.6364 17.9848
    endloop
  endfacet
  facet normal 1 0 0
    outer loop
      vertex 2 18.6364 17.9848
      vertex 2 2 2
      vertex 2 18.9073 17.6977
    endloop
  endfacet
  facet normal 1 0 0
    outer loop
      vertex 2 20.763 17.4808
      vertex 2 2 2
      vertex 2 85 2
    endloop
  endfacet
  facet normal 1 0 0
    outer loop
      vertex 2 19.237 17.4808
      vertex 2 2 2
      vertex 2 19.608 17.3458
    endloop
  endfacet
  facet normal 1 0 0
    outer loop
      vertex 2 18.9073 17.6977
      vertex 2 2 2
      vertex 2 19.237 17.4808
    endloop
  endfacet
  facet normal 0 -1 0
    outer loop
      vertex 2 85 2
      vertex 111 85 25
      vertex 2 85 25
    endloop
  endfacet
  facet normal 0 -1 -0
    outer loop
      vertex 111 85 25
      vertex 2 85 2
      vertex 111 85 2
    endloop
  endfacet
  facet normal 0 1 0
    outer loop
      vertex 111 2 25
      vertex 92.9012 2 20.6971
      vertex 64 2 25
    endloop
  endfacet
  facet normal 0 1 0
    outer loop
      vertex 111 2 25
      vertex 93.2952 2 20.6742
      vertex 92.9012 2 20.6971
    endloop
  endfacet
  facet normal 0 1 0
    outer loop
      vertex 111 2 25
      vertex 93.6733 2 20.561
      vertex 93.2952 2 20.6742
    endloop
  endfacet
  facet normal 0 1 0
    outer loop
      vertex 111 2 25
      vertex 94.0152 2 20.3636
      vertex 93.6733 2 20.561
    endloop
  endfacet
  facet normal 0 1 0
    outer loop
      vertex 111 2 25
      vertex 94.3023 2 20.0927
      vertex 94.0152 2 20.3636
    endloop
  endfacet
  facet normal 0 1 0
    outer loop
      vertex 111 2 25
      vertex 94.5192 2 19.763
      vertex 94.3023 2 20.0927
    endloop
  endfacet
  facet normal 0 1 0
    outer loop
      vertex 111 2 25
      vertex 94.6542 2 19.392
      vertex 94.5192 2 19.763
    endloop
  endfacet
  facet normal 0 1 0
    outer loop
      vertex 111 2 25
      vertex 94.7 2 19
      vertex 94.6542 2 19.392
    endloop
  endfacet
  facet normal 0 1 0
    outer loop
      vertex 111 2 25
      vertex 94.6542 2 18.608
      vertex 94.7 2 19
    endloop
  endfacet
  facet normal 0 1 0
    outer loop
      vertex 111 2 25
      vertex 94.5192 2 18.237
      vertex 94.6542 2 18.608
    endloop
  endfacet
  facet normal 0 1 -0
    outer loop
      vertex 111 2 2
      vertex 94.5192 2 18.237
      vertex 111 2 25
    endloop
  endfacet
  facet normal 0 1 0
    outer loop
      vertex 94.5192 2 18.237
      vertex 111 2 2
      vertex 94.3023 2 17.9073
    endloop
  endfacet
  facet normal 0 1 0
    outer loop
      vertex 94.3023 2 17.9073
      vertex 111 2 2
      vertex 94.0152 2 17.6364
    endloop
  endfacet
  facet normal 0 1 0
    outer loop
      vertex 111 2 2
      vertex 92.9012 2 17.3029
      vertex 93.2952 2 17.3258
    endloop
  endfacet
  facet normal 0 1 0
    outer loop
      vertex 111 2 2
      vertex 93.2952 2 17.3258
      vertex 93.6733 2 17.439
    endloop
  endfacet
  facet normal 0 1 0
    outer loop
      vertex 64 2 8
      vertex 111 2 2
      vertex 49 2 8
    endloop
  endfacet
  facet normal 0 1 0
    outer loop
      vertex 92.9012 2 17.3029
      vertex 111 2 2
      vertex 64 2 8
    endloop
  endfacet
  facet normal 0 1 0
    outer loop
      vertex 94.0152 2 17.6364
      vertex 111 2 2
      vertex 93.6733 2 17.439
    endloop
  endfacet
  facet normal 0 1 -0
    outer loop
      vertex 92.5124 2 20.6286
      vertex 64 2 25
      vertex 92.9012 2 20.6971
    endloop
  endfacet
  facet normal 0 1 -0
    outer loop
      vertex 92.15 2 20.4722
      vertex 64 2 25
      vertex 92.5124 2 20.6286
    endloop
  endfacet
  facet normal 0 1 -0
    outer loop
      vertex 91.8334 2 20.2365
      vertex 64 2 25
      vertex 92.15 2 20.4722
    endloop
  endfacet
  facet normal 0 1 -0
    outer loop
      vertex 91.5797 2 19.9342
      vertex 64 2 25
      vertex 91.8334 2 20.2365
    endloop
  endfacet
  facet normal 0 1 -0
    outer loop
      vertex 91.4025 2 19.5814
      vertex 64 2 25
      vertex 91.5797 2 19.9342
    endloop
  endfacet
  facet normal 0 1 -0
    outer loop
      vertex 91.3115 2 19.1974
      vertex 64 2 25
      vertex 91.4025 2 19.5814
    endloop
  endfacet
  facet normal 0 1 -0
    outer loop
      vertex 91.3115 2 18.8026
      vertex 64 2 25
      vertex 91.3115 2 19.1974
    endloop
  endfacet
  facet normal 0 1 0
    outer loop
      vertex 64 2 8
      vertex 91.3115 2 18.8026
      vertex 91.4025 2 18.4186
    endloop
  endfacet
  facet normal 0 1 0
    outer loop
      vertex 64 2 8
      vertex 91.4025 2 18.4186
      vertex 91.5797 2 18.0658
    endloop
  endfacet
  facet normal 0 1 0
    outer loop
      vertex 64 2 8
      vertex 91.5797 2 18.0658
      vertex 91.8334 2 17.7635
    endloop
  endfacet
  facet normal 0 1 0
    outer loop
      vertex 64 2 8
      vertex 91.8334 2 17.7635
      vertex 92.15 2 17.5278
    endloop
  endfacet
  facet normal 0 1 0
    outer loop
      vertex 64 2 8
      vertex 92.15 2 17.5278
      vertex 92.5124 2 17.3714
    endloop
  endfacet
  facet normal 0 1 0
    outer loop
      vertex 91.3115 2 18.8026
      vertex 64 2 8
      vertex 64 2 25
    endloop
  endfacet
  facet normal 0 1 0
    outer loop
      vertex 64 2 8
      vertex 92.5124 2 17.3714
      vertex 92.9012 2 17.3029
    endloop
  endfacet
  facet normal 0 1 -0
    outer loop
      vertex 20.2952 2 20.6742
      vertex 2 2 25
      vertex 49 2 25
    endloop
  endfacet
  facet normal 0 1 0
    outer loop
      vertex 2 2 25
      vertex 20.2952 2 20.6742
      vertex 19.9012 2 20.6971
    endloop
  endfacet
  facet normal 0 1 0
    outer loop
      vertex 49 2 25
      vertex 20.6733 2 20.561
      vertex 20.2952 2 20.6742
    endloop
  endfacet
  facet normal 0 1 0
    outer loop
      vertex 49 2 25
      vertex 21.0152 2 20.3636
      vertex 20.6733 2 20.561
    endloop
  endfacet
  facet normal 0 1 0
    outer loop
      vertex 49 2 25
      vertex 21.3023 2 20.0927
      vertex 21.0152 2 20.3636
    endloop
  endfacet
  facet normal 0 1 0
    outer loop
      vertex 49 2 25
      vertex 21.5192 2 19.763
      vertex 21.3023 2 20.0927
    endloop
  endfacet
  facet normal 0 1 0
    outer loop
      vertex 49 2 25
      vertex 21.6542 2 19.392
      vertex 21.5192 2 19.763
    endloop
  endfacet
  facet normal 0 1 0
    outer loop
      vertex 49 2 25
      vertex 21.7 2 19
      vertex 21.6542 2 19.392
    endloop
  endfacet
  facet normal 0 1 0
    outer loop
      vertex 49 2 25
      vertex 21.6542 2 18.608
      vertex 21.7 2 19
    endloop
  endfacet
  facet normal 0 1 -0
    outer loop
      vertex 49 2 8
      vertex 21.6542 2 18.608
      vertex 49 2 25
    endloop
  endfacet
  facet normal 0 1 0
    outer loop
      vertex 21.6542 2 18.608
      vertex 49 2 8
      vertex 21.5192 2 18.237
    endloop
  endfacet
  facet normal 0 1 0
    outer loop
      vertex 21.5192 2 18.237
      vertex 49 2 8
      vertex 21.3023 2 17.9073
    endloop
  endfacet
  facet normal 0 1 0
    outer loop
      vertex 21.3023 2 17.9073
      vertex 49 2 8
      vertex 21.0152 2 17.6364
    endloop
  endfacet
  facet normal 0 1 0
    outer loop
      vertex 21.0152 2 17.6364
      vertex 49 2 8
      vertex 20.6733 2 17.439
    endloop
  endfacet
  facet normal 0 1 0
    outer loop
      vertex 2 2 2
      vertex 20.2952 2 17.3258
      vertex 49 2 8
    endloop
  endfacet
  facet normal 0 1 0
    outer loop
      vertex 20.6733 2 17.439
      vertex 49 2 8
      vertex 20.2952 2 17.3258
    endloop
  endfacet
  facet normal 0 1 -0
    outer loop
      vertex 19.5124 2 20.6286
      vertex 2 2 25
      vertex 19.9012 2 20.6971
    endloop
  endfacet
  facet normal 0 1 -0
    outer loop
      vertex 19.15 2 20.4722
      vertex 2 2 25
      vertex 19.5124 2 20.6286
    endloop
  endfacet
  facet normal 0 1 -0
    outer loop
      vertex 18.8334 2 20.2365
      vertex 2 2 25
      vertex 19.15 2 20.4722
    endloop
  endfacet
  facet normal 0 1 -0
    outer loop
      vertex 18.5797 2 19.9342
      vertex 2 2 25
      vertex 18.8334 2 20.2365
    endloop
  endfacet
  facet normal 0 1 -0
    outer loop
      vertex 18.4025 2 19.5814
      vertex 2 2 25
      vertex 18.5797 2 19.9342
    endloop
  endfacet
  facet normal 0 1 -0
    outer loop
      vertex 18.3115 2 19.1974
      vertex 2 2 25
      vertex 18.4025 2 19.5814
    endloop
  endfacet
  facet normal 0 1 -0
    outer loop
      vertex 18.3115 2 18.8026
      vertex 2 2 25
      vertex 18.3115 2 19.1974
    endloop
  endfacet
  facet normal 0 1 0
    outer loop
      vertex 18.4025 2 18.4186
      vertex 2 2 25
      vertex 18.3115 2 18.8026
    endloop
  endfacet
  facet normal 0 1 0
    outer loop
      vertex 2 2 2
      vertex 18.4025 2 18.4186
      vertex 18.5797 2 18.0658
    endloop
  endfacet
  facet normal 0 1 0
    outer loop
      vertex 2 2 2
      vertex 18.5797 2 18.0658
      vertex 18.8334 2 17.7635
    endloop
  endfacet
  facet normal 0 1 0
    outer loop
      vertex 2 2 2
      vertex 18.8334 2 17.7635
      vertex 19.15 2 17.5278
    endloop
  endfacet
  facet normal 0 1 0
    outer loop
      vertex 20.2952 2 17.3258
      vertex 2 2 2
      vertex 19.9012 2 17.3029
    endloop
  endfacet
  facet normal 0 1 0
    outer loop
      vertex 18.4025 2 18.4186
      vertex 2 2 2
      vertex 2 2 25
    endloop
  endfacet
  facet normal 0 1 0
    outer loop
      vertex 19.5124 2 17.3714
      vertex 2 2 2
      vertex 19.15 2 17.5278
    endloop
  endfacet
  facet normal 0 1 0
    outer loop
      vertex 19.9012 2 17.3029
      vertex 2 2 2
      vertex 19.5124 2 17.3714
    endloop
  endfacet
  facet normal 0 1 0
    outer loop
      vertex 2 2 2
      vertex 49 2 8
      vertex 111 2 2
    endloop
  endfacet
  facet normal -1 0 0
    outer loop
      vertex 101 12 0
      vertex 101 75 2
      vertex 101 75 0
    endloop
  endfacet
  facet normal -1 -0 0
    outer loop
      vertex 101 75 2
      vertex 101 12 0
      vertex 101 12 2
    endloop
  endfacet
  facet normal 1 -0 0
    outer loop
      vertex 12 12 2
      vertex 12 75 0
      vertex 12 75 2
    endloop
  endfacet
  facet normal 1 0 0
    outer loop
      vertex 12 75 0
      vertex 12 12 2
      vertex 12 12 0
    endloop
  endfacet
  facet normal 0 -1 0
    outer loop
      vertex 12 75 0
      vertex 101 75 2
      vertex 12 75 2
    endloop
  endfacet
  facet normal 0 -1 -0
    outer loop
      vertex 101 75 2
      vertex 12 75 0
      vertex 101 75 0
    endloop
  endfacet
  facet normal 0 1 -0
    outer loop
      vertex 101 12 0
      vertex 12 12 2
      vertex 101 12 2
    endloop
  endfacet
  facet normal 0 1 0
    outer loop
      vertex 12 12 2
      vertex 101 12 0
      vertex 12 12 0
    endloop
  endfacet
  facet normal 0.173511 0 0.984832
    outer loop
      vertex 19.5124 2 17.3714
      vertex 19.9012 0 17.3029
      vertex 19.9012 2 17.3029
    endloop
  endfacet
  facet normal 0.173511 0 0.984832
    outer loop
      vertex 19.9012 0 17.3029
      vertex 19.5124 2 17.3714
      vertex 19.5124 0 17.3714
    endloop
  endfacet
  facet normal -0.993244 0 -0.116047
    outer loop
      vertex 21.7 0 19
      vertex 21.6542 2 19.392
      vertex 21.7 2 19
    endloop
  endfacet
  facet normal -0.993244 -0 -0.116047
    outer loop
      vertex 21.6542 2 19.392
      vertex 21.7 0 19
      vertex 21.6542 0 19.392
    endloop
  endfacet
  facet normal -0.286813 0 0.957987
    outer loop
      vertex 20.2952 2 17.3258
      vertex 20.6733 0 17.439
      vertex 20.6733 2 17.439
    endloop
  endfacet
  facet normal -0.286813 0 0.957987
    outer loop
      vertex 20.6733 0 17.439
      vertex 20.2952 2 17.3258
      vertex 20.2952 0 17.3258
    endloop
  endfacet
  facet normal -0.939719 0 -0.341946
    outer loop
      vertex 21.6542 0 19.392
      vertex 21.5192 2 19.763
      vertex 21.6542 2 19.392
    endloop
  endfacet
  facet normal -0.939719 -0 -0.341946
    outer loop
      vertex 21.5192 2 19.763
      vertex 21.6542 0 19.392
      vertex 21.5192 0 19.763
    endloop
  endfacet
  facet normal -0.500007 0 0.866021
    outer loop
      vertex 20.6733 2 17.439
      vertex 21.0152 0 17.6364
      vertex 21.0152 2 17.6364
    endloop
  endfacet
  facet normal -0.500007 0 0.866021
    outer loop
      vertex 21.0152 0 17.6364
      vertex 20.6733 2 17.439
      vertex 20.6733 0 17.439
    endloop
  endfacet
  facet normal 1 -0 0
    outer loop
      vertex 18.3115 0 19.1974
      vertex 18.3115 2 18.8026
      vertex 18.3115 2 19.1974
    endloop
  endfacet
  facet normal 1 0 0
    outer loop
      vertex 18.3115 2 18.8026
      vertex 18.3115 0 19.1974
      vertex 18.3115 0 18.8026
    endloop
  endfacet
  facet normal -0.939719 0 0.341946
    outer loop
      vertex 21.5192 0 18.237
      vertex 21.6542 2 18.608
      vertex 21.5192 2 18.237
    endloop
  endfacet
  facet normal -0.939719 0 0.341946
    outer loop
      vertex 21.6542 2 18.608
      vertex 21.5192 0 18.237
      vertex 21.6542 0 18.608
    endloop
  endfacet
  facet normal 0.396242 0 -0.918146
    outer loop
      vertex 19.15 0 20.4722
      vertex 19.5124 2 20.6286
      vertex 19.5124 0 20.6286
    endloop
  endfacet
  facet normal 0.396242 0 -0.918146
    outer loop
      vertex 19.5124 2 20.6286
      vertex 19.15 0 20.4722
      vertex 19.15 2 20.4722
    endloop
  endfacet
  facet normal -0.993244 0 0.116047
    outer loop
      vertex 21.6542 0 18.608
      vertex 21.7 2 19
      vertex 21.6542 2 18.608
    endloop
  endfacet
  facet normal -0.993244 0 0.116047
    outer loop
      vertex 21.7 2 19
      vertex 21.6542 0 18.608
      vertex 21.7 0 19
    endloop
  endfacet
  facet normal -0.835426 0 -0.549603
    outer loop
      vertex 21.5192 0 19.763
      vertex 21.3023 2 20.0927
      vertex 21.5192 2 19.763
    endloop
  endfacet
  facet normal -0.835426 -0 -0.549603
    outer loop
      vertex 21.3023 2 20.0927
      vertex 21.5192 0 19.763
      vertex 21.3023 0 20.0927
    endloop
  endfacet
  facet normal -0.286813 0 -0.957987
    outer loop
      vertex 20.2952 0 20.6742
      vertex 20.6733 2 20.561
      vertex 20.6733 0 20.561
    endloop
  endfacet
  facet normal -0.286813 0 -0.957987
    outer loop
      vertex 20.6733 2 20.561
      vertex 20.2952 0 20.6742
      vertex 20.2952 2 20.6742
    endloop
  endfacet
  facet normal -0.0580239 0 0.998315
    outer loop
      vertex 19.9012 2 17.3029
      vertex 20.2952 0 17.3258
      vertex 20.2952 2 17.3258
    endloop
  endfacet
  facet normal -0.0580239 0 0.998315
    outer loop
      vertex 20.2952 0 17.3258
      vertex 19.9012 2 17.3029
      vertex 19.9012 0 17.3029
    endloop
  endfacet
  facet normal 0.97305 -0 0.230593
    outer loop
      vertex 18.3115 0 18.8026
      vertex 18.4025 2 18.4186
      vertex 18.3115 2 18.8026
    endloop
  endfacet
  facet normal 0.97305 0 0.230593
    outer loop
      vertex 18.4025 2 18.4186
      vertex 18.3115 0 18.8026
      vertex 18.4025 0 18.4186
    endloop
  endfacet
  facet normal 0.396242 0 0.918146
    outer loop
      vertex 19.15 2 17.5278
      vertex 19.5124 0 17.3714
      vertex 19.5124 2 17.3714
    endloop
  endfacet
  facet normal 0.396242 0 0.918146
    outer loop
      vertex 19.5124 0 17.3714
      vertex 19.15 2 17.5278
      vertex 19.15 0 17.5278
    endloop
  endfacet
  facet normal 0.893615 0 -0.448834
    outer loop
      vertex 18.5797 0 19.9342
      vertex 18.4025 2 19.5814
      vertex 18.5797 2 19.9342
    endloop
  endfacet
  facet normal 0.893615 0 -0.448834
    outer loop
      vertex 18.4025 2 19.5814
      vertex 18.5797 0 19.9342
      vertex 18.4025 0 19.5814
    endloop
  endfacet
  facet normal -0.0580239 0 -0.998315
    outer loop
      vertex 19.9012 0 20.6971
      vertex 20.2952 2 20.6742
      vertex 20.2952 0 20.6742
    endloop
  endfacet
  facet normal -0.0580239 0 -0.998315
    outer loop
      vertex 20.2952 2 20.6742
      vertex 19.9012 0 20.6971
      vertex 19.9012 2 20.6971
    endloop
  endfacet
  facet normal 0.765994 0 -0.642847
    outer loop
      vertex 18.8334 0 20.2365
      vertex 18.5797 2 19.9342
      vertex 18.8334 2 20.2365
    endloop
  endfacet
  facet normal 0.765994 0 -0.642847
    outer loop
      vertex 18.5797 2 19.9342
      vertex 18.8334 0 20.2365
      vertex 18.5797 0 19.9342
    endloop
  endfacet
  facet normal 0.765994 -0 0.642847
    outer loop
      vertex 18.5797 0 18.0658
      vertex 18.8334 2 17.7635
      vertex 18.5797 2 18.0658
    endloop
  endfacet
  facet normal 0.765994 0 0.642847
    outer loop
      vertex 18.8334 2 17.7635
      vertex 18.5797 0 18.0658
      vertex 18.8334 0 17.7635
    endloop
  endfacet
  facet normal -0.500007 0 -0.866021
    outer loop
      vertex 20.6733 0 20.561
      vertex 21.0152 2 20.3636
      vertex 21.0152 0 20.3636
    endloop
  endfacet
  facet normal -0.500007 0 -0.866021
    outer loop
      vertex 21.0152 2 20.3636
      vertex 20.6733 0 20.561
      vertex 20.6733 2 20.561
    endloop
  endfacet
  facet normal -0.686289 0 -0.727329
    outer loop
      vertex 21.0152 0 20.3636
      vertex 21.3023 2 20.0927
      vertex 21.3023 0 20.0927
    endloop
  endfacet
  facet normal -0.686289 0 -0.727329
    outer loop
      vertex 21.3023 2 20.0927
      vertex 21.0152 0 20.3636
      vertex 21.0152 2 20.3636
    endloop
  endfacet
  facet normal 0.597159 0 0.802123
    outer loop
      vertex 18.8334 2 17.7635
      vertex 19.15 0 17.5278
      vertex 19.15 2 17.5278
    endloop
  endfacet
  facet normal 0.597159 0 0.802123
    outer loop
      vertex 19.15 0 17.5278
      vertex 18.8334 2 17.7635
      vertex 18.8334 0 17.7635
    endloop
  endfacet
  facet normal 0.597159 0 -0.802123
    outer loop
      vertex 18.8334 0 20.2365
      vertex 19.15 2 20.4722
      vertex 19.15 0 20.4722
    endloop
  endfacet
  facet normal 0.597159 0 -0.802123
    outer loop
      vertex 19.15 2 20.4722
      vertex 18.8334 0 20.2365
      vertex 18.8334 2 20.2365
    endloop
  endfacet
  facet normal 0.893615 -0 0.448834
    outer loop
      vertex 18.4025 0 18.4186
      vertex 18.5797 2 18.0658
      vertex 18.4025 2 18.4186
    endloop
  endfacet
  facet normal 0.893615 0 0.448834
    outer loop
      vertex 18.5797 2 18.0658
      vertex 18.4025 0 18.4186
      vertex 18.5797 0 18.0658
    endloop
  endfacet
  facet normal 0.173511 0 -0.984832
    outer loop
      vertex 19.5124 0 20.6286
      vertex 19.9012 2 20.6971
      vertex 19.9012 0 20.6971
    endloop
  endfacet
  facet normal 0.173511 0 -0.984832
    outer loop
      vertex 19.9012 2 20.6971
      vertex 19.5124 0 20.6286
      vertex 19.5124 2 20.6286
    endloop
  endfacet
  facet normal -0.835426 0 0.549603
    outer loop
      vertex 21.3023 0 17.9073
      vertex 21.5192 2 18.237
      vertex 21.3023 2 17.9073
    endloop
  endfacet
  facet normal -0.835426 0 0.549603
    outer loop
      vertex 21.5192 2 18.237
      vertex 21.3023 0 17.9073
      vertex 21.5192 0 18.237
    endloop
  endfacet
  facet normal -0.686289 0 0.727329
    outer loop
      vertex 21.0152 2 17.6364
      vertex 21.3023 0 17.9073
      vertex 21.3023 2 17.9073
    endloop
  endfacet
  facet normal -0.686289 0 0.727329
    outer loop
      vertex 21.3023 0 17.9073
      vertex 21.0152 2 17.6364
      vertex 21.0152 0 17.6364
    endloop
  endfacet
  facet normal 0.97305 0 -0.230593
    outer loop
      vertex 18.4025 0 19.5814
      vertex 18.3115 2 19.1974
      vertex 18.4025 2 19.5814
    endloop
  endfacet
  facet normal 0.97305 0 -0.230593
    outer loop
      vertex 18.3115 2 19.1974
      vertex 18.4025 0 19.5814
      vertex 18.3115 0 19.1974
    endloop
  endfacet
  facet normal -0.0580239 0 -0.998315
    outer loop
      vertex 92.9012 0 20.6971
      vertex 93.2952 2 20.6742
      vertex 93.2952 0 20.6742
    endloop
  endfacet
  facet normal -0.0580239 0 -0.998315
    outer loop
      vertex 93.2952 2 20.6742
      vertex 92.9012 0 20.6971
      vertex 92.9012 2 20.6971
    endloop
  endfacet
  facet normal -0.939719 0 -0.341946
    outer loop
      vertex 94.6542 0 19.392
      vertex 94.5192 2 19.763
      vertex 94.6542 2 19.392
    endloop
  endfacet
  facet normal -0.939719 -0 -0.341946
    outer loop
      vertex 94.5192 2 19.763
      vertex 94.6542 0 19.392
      vertex 94.5192 0 19.763
    endloop
  endfacet
  facet normal -0.993244 0 -0.116047
    outer loop
      vertex 94.7 0 19
      vertex 94.6542 2 19.392
      vertex 94.7 2 19
    endloop
  endfacet
  facet normal -0.993244 -0 -0.116047
    outer loop
      vertex 94.6542 2 19.392
      vertex 94.7 0 19
      vertex 94.6542 0 19.392
    endloop
  endfacet
  facet normal 1 -0 0
    outer loop
      vertex 91.3115 0 19.1974
      vertex 91.3115 2 18.8026
      vertex 91.3115 2 19.1974
    endloop
  endfacet
  facet normal 1 0 0
    outer loop
      vertex 91.3115 2 18.8026
      vertex 91.3115 0 19.1974
      vertex 91.3115 0 18.8026
    endloop
  endfacet
  facet normal -0.286813 0 0.957987
    outer loop
      vertex 93.2952 2 17.3258
      vertex 93.6733 0 17.439
      vertex 93.6733 2 17.439
    endloop
  endfacet
  facet normal -0.286813 0 0.957987
    outer loop
      vertex 93.6733 0 17.439
      vertex 93.2952 2 17.3258
      vertex 93.2952 0 17.3258
    endloop
  endfacet
  facet normal -0.286813 0 -0.957987
    outer loop
      vertex 93.2952 0 20.6742
      vertex 93.6733 2 20.561
      vertex 93.6733 0 20.561
    endloop
  endfacet
  facet normal -0.286813 0 -0.957987
    outer loop
      vertex 93.6733 2 20.561
      vertex 93.2952 0 20.6742
      vertex 93.2952 2 20.6742
    endloop
  endfacet
  facet normal -0.500007 0 -0.866021
    outer loop
      vertex 93.6733 0 20.561
      vertex 94.0152 2 20.3636
      vertex 94.0152 0 20.3636
    endloop
  endfacet
  facet normal -0.500007 0 -0.866021
    outer loop
      vertex 94.0152 2 20.3636
      vertex 93.6733 0 20.561
      vertex 93.6733 2 20.561
    endloop
  endfacet
  facet normal 0.765994 0 -0.642847
    outer loop
      vertex 91.8334 0 20.2365
      vertex 91.5797 2 19.9342
      vertex 91.8334 2 20.2365
    endloop
  endfacet
  facet normal 0.765994 0 -0.642847
    outer loop
      vertex 91.5797 2 19.9342
      vertex 91.8334 0 20.2365
      vertex 91.5797 0 19.9342
    endloop
  endfacet
  facet normal -0.993244 0 0.116047
    outer loop
      vertex 94.6542 0 18.608
      vertex 94.7 2 19
      vertex 94.6542 2 18.608
    endloop
  endfacet
  facet normal -0.993244 0 0.116047
    outer loop
      vertex 94.7 2 19
      vertex 94.6542 0 18.608
      vertex 94.7 0 19
    endloop
  endfacet
  facet normal -0.835426 0 -0.549603
    outer loop
      vertex 94.5192 0 19.763
      vertex 94.3023 2 20.0927
      vertex 94.5192 2 19.763
    endloop
  endfacet
  facet normal -0.835426 -0 -0.549603
    outer loop
      vertex 94.3023 2 20.0927
      vertex 94.5192 0 19.763
      vertex 94.3023 0 20.0927
    endloop
  endfacet
  facet normal 0.173511 0 0.984832
    outer loop
      vertex 92.5124 2 17.3714
      vertex 92.9012 0 17.3029
      vertex 92.9012 2 17.3029
    endloop
  endfacet
  facet normal 0.173511 0 0.984832
    outer loop
      vertex 92.9012 0 17.3029
      vertex 92.5124 2 17.3714
      vertex 92.5124 0 17.3714
    endloop
  endfacet
  facet normal -0.686289 0 0.727329
    outer loop
      vertex 94.0152 2 17.6364
      vertex 94.3023 0 17.9073
      vertex 94.3023 2 17.9073
    endloop
  endfacet
  facet normal -0.686289 0 0.727329
    outer loop
      vertex 94.3023 0 17.9073
      vertex 94.0152 2 17.6364
      vertex 94.0152 0 17.6364
    endloop
  endfacet
  facet normal 0.893615 0 -0.448834
    outer loop
      vertex 91.5797 0 19.9342
      vertex 91.4025 2 19.5814
      vertex 91.5797 2 19.9342
    endloop
  endfacet
  facet normal 0.893615 0 -0.448834
    outer loop
      vertex 91.4025 2 19.5814
      vertex 91.5797 0 19.9342
      vertex 91.4025 0 19.5814
    endloop
  endfacet
  facet normal 0.765994 -0 0.642847
    outer loop
      vertex 91.5797 0 18.0658
      vertex 91.8334 2 17.7635
      vertex 91.5797 2 18.0658
    endloop
  endfacet
  facet normal 0.765994 0 0.642847
    outer loop
      vertex 91.8334 2 17.7635
      vertex 91.5797 0 18.0658
      vertex 91.8334 0 17.7635
    endloop
  endfacet
  facet normal -0.500007 0 0.866021
    outer loop
      vertex 93.6733 2 17.439
      vertex 94.0152 0 17.6364
      vertex 94.0152 2 17.6364
    endloop
  endfacet
  facet normal -0.500007 0 0.866021
    outer loop
      vertex 94.0152 0 17.6364
      vertex 93.6733 2 17.439
      vertex 93.6733 0 17.439
    endloop
  endfacet
  facet normal 0.396242 0 -0.918146
    outer loop
      vertex 92.15 0 20.4722
      vertex 92.5124 2 20.6286
      vertex 92.5124 0 20.6286
    endloop
  endfacet
  facet normal 0.396242 0 -0.918146
    outer loop
      vertex 92.5124 2 20.6286
      vertex 92.15 0 20.4722
      vertex 92.15 2 20.4722
    endloop
  endfacet
  facet normal -0.939719 0 0.341946
    outer loop
      vertex 94.5192 0 18.237
      vertex 94.6542 2 18.608
      vertex 94.5192 2 18.237
    endloop
  endfacet
  facet normal -0.939719 0 0.341946
    outer loop
      vertex 94.6542 2 18.608
      vertex 94.5192 0 18.237
      vertex 94.6542 0 18.608
    endloop
  endfacet
  facet normal -0.835426 0 0.549603
    outer loop
      vertex 94.3023 0 17.9073
      vertex 94.5192 2 18.237
      vertex 94.3023 2 17.9073
    endloop
  endfacet
  facet normal -0.835426 0 0.549603
    outer loop
      vertex 94.5192 2 18.237
      vertex 94.3023 0 17.9073
      vertex 94.5192 0 18.237
    endloop
  endfacet
  facet normal -0.0580239 0 0.998315
    outer loop
      vertex 92.9012 2 17.3029
      vertex 93.2952 0 17.3258
      vertex 93.2952 2 17.3258
    endloop
  endfacet
  facet normal -0.0580239 0 0.998315
    outer loop
      vertex 93.2952 0 17.3258
      vertex 92.9012 2 17.3029
      vertex 92.9012 0 17.3029
    endloop
  endfacet
  facet normal 0.597159 0 0.802123
    outer loop
      vertex 91.8334 2 17.7635
      vertex 92.15 0 17.5278
      vertex 92.15 2 17.5278
    endloop
  endfacet
  facet normal 0.597159 0 0.802123
    outer loop
      vertex 92.15 0 17.5278
      vertex 91.8334 2 17.7635
      vertex 91.8334 0 17.7635
    endloop
  endfacet
  facet normal -0.686289 0 -0.727329
    outer loop
      vertex 94.0152 0 20.3636
      vertex 94.3023 2 20.0927
      vertex 94.3023 0 20.0927
    endloop
  endfacet
  facet normal -0.686289 0 -0.727329
    outer loop
      vertex 94.3023 2 20.0927
      vertex 94.0152 0 20.3636
      vertex 94.0152 2 20.3636
    endloop
  endfacet
  facet normal 0.893615 -0 0.448834
    outer loop
      vertex 91.4025 0 18.4186
      vertex 91.5797 2 18.0658
      vertex 91.4025 2 18.4186
    endloop
  endfacet
  facet normal 0.893615 0 0.448834
    outer loop
      vertex 91.5797 2 18.0658
      vertex 91.4025 0 18.4186
      vertex 91.5797 0 18.0658
    endloop
  endfacet
  facet normal 0.597159 0 -0.802123
    outer loop
      vertex 91.8334 0 20.2365
      vertex 92.15 2 20.4722
      vertex 92.15 0 20.4722
    endloop
  endfacet
  facet normal 0.597159 0 -0.802123
    outer loop
      vertex 92.15 2 20.4722
      vertex 91.8334 0 20.2365
      vertex 91.8334 2 20.2365
    endloop
  endfacet
  facet normal 0.97305 -0 0.230593
    outer loop
      vertex 91.3115 0 18.8026
      vertex 91.4025 2 18.4186
      vertex 91.3115 2 18.8026
    endloop
  endfacet
  facet normal 0.97305 0 0.230593
    outer loop
      vertex 91.4025 2 18.4186
      vertex 91.3115 0 18.8026
      vertex 91.4025 0 18.4186
    endloop
  endfacet
  facet normal 0.97305 0 -0.230593
    outer loop
      vertex 91.4025 0 19.5814
      vertex 91.3115 2 19.1974
      vertex 91.4025 2 19.5814
    endloop
  endfacet
  facet normal 0.97305 0 -0.230593
    outer loop
      vertex 91.3115 2 19.1974
      vertex 91.4025 0 19.5814
      vertex 91.3115 0 19.1974
    endloop
  endfacet
  facet normal 0.173511 0 -0.984832
    outer loop
      vertex 92.5124 0 20.6286
      vertex 92.9012 2 20.6971
      vertex 92.9012 0 20.6971
    endloop
  endfacet
  facet normal 0.173511 0 -0.984832
    outer loop
      vertex 92.9012 2 20.6971
      vertex 92.5124 0 20.6286
      vertex 92.5124 2 20.6286
    endloop
  endfacet
  facet normal 0.396242 0 0.918146
    outer loop
      vertex 92.15 2 17.5278
      vertex 92.5124 0 17.3714
      vertex 92.5124 2 17.3714
    endloop
  endfacet
  facet normal 0.396242 0 0.918146
    outer loop
      vertex 92.5124 0 17.3714
      vertex 92.15 2 17.5278
      vertex 92.15 0 17.5278
    endloop
  endfacet
  facet normal 0 0.957987 0.286813
    outer loop
      vertex 2 18.439 18.3267
      vertex 0 18.3258 18.7048
      vertex 2 18.3258 18.7048
    endloop
  endfacet
  facet normal 0 0.957987 0.286813
    outer loop
      vertex 0 18.3258 18.7048
      vertex 2 18.439 18.3267
      vertex 0 18.439 18.3267
    endloop
  endfacet
  facet normal 0 0 -1
    outer loop
      vertex 0 19.8026 20.6885
      vertex 2 20.1974 20.6885
      vertex 2 19.8026 20.6885
    endloop
  endfacet
  facet normal -0 0 -1
    outer loop
      vertex 2 20.1974 20.6885
      vertex 0 19.8026 20.6885
      vertex 0 20.1974 20.6885
    endloop
  endfacet
  facet normal 0 -0.116047 0.993244
    outer loop
      vertex 0 20.392 17.3458
      vertex 2 20 17.3
      vertex 2 20.392 17.3458
    endloop
  endfacet
  facet normal 0 -0.116047 0.993244
    outer loop
      vertex 2 20 17.3
      vertex 0 20.392 17.3458
      vertex 0 20 17.3
    endloop
  endfacet
  facet normal 0 -0.642847 -0.765994
    outer loop
      vertex 0 20.9342 20.4203
      vertex 2 21.2365 20.1666
      vertex 2 20.9342 20.4203
    endloop
  endfacet
  facet normal -0 -0.642847 -0.765994
    outer loop
      vertex 2 21.2365 20.1666
      vertex 0 20.9342 20.4203
      vertex 0 21.2365 20.1666
    endloop
  endfacet
  facet normal 0 0.998315 0.0580239
    outer loop
      vertex 2 18.3258 18.7048
      vertex 0 18.3029 19.0988
      vertex 2 18.3029 19.0988
    endloop
  endfacet
  facet normal 0 0.998315 0.0580239
    outer loop
      vertex 0 18.3029 19.0988
      vertex 2 18.3258 18.7048
      vertex 0 18.3258 18.7048
    endloop
  endfacet
  facet normal -0 0.116047 0.993244
    outer loop
      vertex 0 20 17.3
      vertex 2 19.608 17.3458
      vertex 2 20 17.3
    endloop
  endfacet
  facet normal 0 0.116047 0.993244
    outer loop
      vertex 2 19.608 17.3458
      vertex 0 20 17.3
      vertex 0 19.608 17.3458
    endloop
  endfacet
  facet normal 0 -0.998315 0.0580239
    outer loop
      vertex 0 21.6742 18.7048
      vertex 2 21.6971 19.0988
      vertex 0 21.6971 19.0988
    endloop
  endfacet
  facet normal 0 -0.998315 0.0580239
    outer loop
      vertex 2 21.6971 19.0988
      vertex 0 21.6742 18.7048
      vertex 2 21.6742 18.7048
    endloop
  endfacet
  facet normal 0 0.727329 0.686289
    outer loop
      vertex 2 18.9073 17.6977
      vertex 0 18.6364 17.9848
      vertex 2 18.6364 17.9848
    endloop
  endfacet
  facet normal 0 0.727329 0.686289
    outer loop
      vertex 0 18.6364 17.9848
      vertex 2 18.9073 17.6977
      vertex 0 18.9073 17.6977
    endloop
  endfacet
  facet normal 0 -0.727329 0.686289
    outer loop
      vertex 0 21.0927 17.6977
      vertex 2 21.3636 17.9848
      vertex 0 21.3636 17.9848
    endloop
  endfacet
  facet normal 0 -0.727329 0.686289
    outer loop
      vertex 2 21.3636 17.9848
      vertex 0 21.0927 17.6977
      vertex 2 21.0927 17.6977
    endloop
  endfacet
  facet normal 0 -0.341946 0.939719
    outer loop
      vertex 0 20.763 17.4808
      vertex 2 20.392 17.3458
      vertex 2 20.763 17.4808
    endloop
  endfacet
  facet normal 0 -0.341946 0.939719
    outer loop
      vertex 2 20.392 17.3458
      vertex 0 20.763 17.4808
      vertex 0 20.392 17.3458
    endloop
  endfacet
  facet normal 0 0.918146 -0.396242
    outer loop
      vertex 2 18.3714 19.4876
      vertex 0 18.5278 19.85
      vertex 2 18.5278 19.85
    endloop
  endfacet
  facet normal 0 0.918146 -0.396242
    outer loop
      vertex 0 18.5278 19.85
      vertex 2 18.3714 19.4876
      vertex 0 18.3714 19.4876
    endloop
  endfacet
  facet normal 0 -0.957987 0.286813
    outer loop
      vertex 0 21.561 18.3267
      vertex 2 21.6742 18.7048
      vertex 0 21.6742 18.7048
    endloop
  endfacet
  facet normal 0 -0.957987 0.286813
    outer loop
      vertex 2 21.6742 18.7048
      vertex 0 21.561 18.3267
      vertex 2 21.561 18.3267
    endloop
  endfacet
  facet normal 0 0.984832 -0.173511
    outer loop
      vertex 2 18.3029 19.0988
      vertex 0 18.3714 19.4876
      vertex 2 18.3714 19.4876
    endloop
  endfacet
  facet normal 0 0.984832 -0.173511
    outer loop
      vertex 0 18.3714 19.4876
      vertex 2 18.3029 19.0988
      vertex 0 18.3029 19.0988
    endloop
  endfacet
  facet normal 0 -0.918146 -0.396242
    outer loop
      vertex 0 21.6286 19.4876
      vertex 2 21.4722 19.85
      vertex 0 21.4722 19.85
    endloop
  endfacet
  facet normal 0 -0.918146 -0.396242
    outer loop
      vertex 2 21.4722 19.85
      vertex 0 21.6286 19.4876
      vertex 2 21.6286 19.4876
    endloop
  endfacet
  facet normal 0 -0.448834 -0.893615
    outer loop
      vertex 0 20.5814 20.5975
      vertex 2 20.9342 20.4203
      vertex 2 20.5814 20.5975
    endloop
  endfacet
  facet normal -0 -0.448834 -0.893615
    outer loop
      vertex 2 20.9342 20.4203
      vertex 0 20.5814 20.5975
      vertex 0 20.9342 20.4203
    endloop
  endfacet
  facet normal -0 0.341946 0.939719
    outer loop
      vertex 0 19.608 17.3458
      vertex 2 19.237 17.4808
      vertex 2 19.608 17.3458
    endloop
  endfacet
  facet normal 0 0.341946 0.939719
    outer loop
      vertex 2 19.237 17.4808
      vertex 0 19.608 17.3458
      vertex 0 19.237 17.4808
    endloop
  endfacet
  facet normal -0 0.549603 0.835426
    outer loop
      vertex 0 19.237 17.4808
      vertex 2 18.9073 17.6977
      vertex 2 19.237 17.4808
    endloop
  endfacet
  facet normal 0 0.549603 0.835426
    outer loop
      vertex 2 18.9073 17.6977
      vertex 0 19.237 17.4808
      vertex 0 18.9073 17.6977
    endloop
  endfacet
  facet normal 0 0.802123 -0.597159
    outer loop
      vertex 2 18.5278 19.85
      vertex 0 18.7635 20.1666
      vertex 2 18.7635 20.1666
    endloop
  endfacet
  facet normal 0 0.802123 -0.597159
    outer loop
      vertex 0 18.7635 20.1666
      vertex 2 18.5278 19.85
      vertex 0 18.5278 19.85
    endloop
  endfacet
  facet normal 0 0.642847 -0.765994
    outer loop
      vertex 0 18.7635 20.1666
      vertex 2 19.0658 20.4203
      vertex 2 18.7635 20.1666
    endloop
  endfacet
  facet normal 0 0.642847 -0.765994
    outer loop
      vertex 2 19.0658 20.4203
      vertex 0 18.7635 20.1666
      vertex 0 19.0658 20.4203
    endloop
  endfacet
  facet normal 0 -0.984832 -0.173511
    outer loop
      vertex 0 21.6971 19.0988
      vertex 2 21.6286 19.4876
      vertex 0 21.6286 19.4876
    endloop
  endfacet
  facet normal 0 -0.984832 -0.173511
    outer loop
      vertex 2 21.6286 19.4876
      vertex 0 21.6971 19.0988
      vertex 2 21.6971 19.0988
    endloop
  endfacet
  facet normal 0 -0.866021 0.500007
    outer loop
      vertex 0 21.3636 17.9848
      vertex 2 21.561 18.3267
      vertex 0 21.561 18.3267
    endloop
  endfacet
  facet normal 0 -0.866021 0.500007
    outer loop
      vertex 2 21.561 18.3267
      vertex 0 21.3636 17.9848
      vertex 2 21.3636 17.9848
    endloop
  endfacet
  facet normal 0 0.866021 0.500007
    outer loop
      vertex 2 18.6364 17.9848
      vertex 0 18.439 18.3267
      vertex 2 18.439 18.3267
    endloop
  endfacet
  facet normal 0 0.866021 0.500007
    outer loop
      vertex 0 18.439 18.3267
      vertex 2 18.6364 17.9848
      vertex 0 18.6364 17.9848
    endloop
  endfacet
  facet normal 0 -0.549603 0.835426
    outer loop
      vertex 0 21.0927 17.6977
      vertex 2 20.763 17.4808
      vertex 2 21.0927 17.6977
    endloop
  endfacet
  facet normal 0 -0.549603 0.835426
    outer loop
      vertex 2 20.763 17.4808
      vertex 0 21.0927 17.6977
      vertex 0 20.763 17.4808
    endloop
  endfacet
  facet normal 0 -0.802123 -0.597159
    outer loop
      vertex 0 21.4722 19.85
      vertex 2 21.2365 20.1666
      vertex 0 21.2365 20.1666
    endloop
  endfacet
  facet normal 0 -0.802123 -0.597159
    outer loop
      vertex 2 21.2365 20.1666
      vertex 0 21.4722 19.85
      vertex 2 21.4722 19.85
    endloop
  endfacet
  facet normal 0 0.230593 -0.97305
    outer loop
      vertex 0 19.4186 20.5975
      vertex 2 19.8026 20.6885
      vertex 2 19.4186 20.5975
    endloop
  endfacet
  facet normal 0 0.230593 -0.97305
    outer loop
      vertex 2 19.8026 20.6885
      vertex 0 19.4186 20.5975
      vertex 0 19.8026 20.6885
    endloop
  endfacet
  facet normal 0 0.448834 -0.893615
    outer loop
      vertex 0 19.0658 20.4203
      vertex 2 19.4186 20.5975
      vertex 2 19.0658 20.4203
    endloop
  endfacet
  facet normal 0 0.448834 -0.893615
    outer loop
      vertex 2 19.4186 20.5975
      vertex 0 19.0658 20.4203
      vertex 0 19.4186 20.5975
    endloop
  endfacet
  facet normal 0 -0.230593 -0.97305
    outer loop
      vertex 0 20.1974 20.6885
      vertex 2 20.5814 20.5975
      vertex 2 20.1974 20.6885
    endloop
  endfacet
  facet normal -0 -0.230593 -0.97305
    outer loop
      vertex 2 20.5814 20.5975
      vertex 0 20.1974 20.6885
      vertex 0 20.5814 20.5975
    endloop
  endfacet
  facet normal 0 0.957987 0.286813
    outer loop
      vertex 2 65.439 18.3267
      vertex 0 65.3258 18.7048
      vertex 2 65.3258 18.7048
    endloop
  endfacet
  facet normal 0 0.957987 0.286813
    outer loop
      vertex 0 65.3258 18.7048
      vertex 2 65.439 18.3267
      vertex 0 65.439 18.3267
    endloop
  endfacet
  facet normal 0 0 -1
    outer loop
      vertex 0 66.8026 20.6885
      vertex 2 67.1974 20.6885
      vertex 2 66.8026 20.6885
    endloop
  endfacet
  facet normal -0 0 -1
    outer loop
      vertex 2 67.1974 20.6885
      vertex 0 66.8026 20.6885
      vertex 0 67.1974 20.6885
    endloop
  endfacet
  facet normal 0 -0.116047 0.993244
    outer loop
      vertex 0 67.392 17.3458
      vertex 2 67 17.3
      vertex 2 67.392 17.3458
    endloop
  endfacet
  facet normal 0 -0.116047 0.993244
    outer loop
      vertex 2 67 17.3
      vertex 0 67.392 17.3458
      vertex 0 67 17.3
    endloop
  endfacet
  facet normal 0 -0.642847 -0.765994
    outer loop
      vertex 0 67.9342 20.4203
      vertex 2 68.2365 20.1666
      vertex 2 67.9342 20.4203
    endloop
  endfacet
  facet normal -0 -0.642847 -0.765994
    outer loop
      vertex 2 68.2365 20.1666
      vertex 0 67.9342 20.4203
      vertex 0 68.2365 20.1666
    endloop
  endfacet
  facet normal -0 0.116047 0.993244
    outer loop
      vertex 0 67 17.3
      vertex 2 66.608 17.3458
      vertex 2 67 17.3
    endloop
  endfacet
  facet normal 0 0.116047 0.993244
    outer loop
      vertex 2 66.608 17.3458
      vertex 0 67 17.3
      vertex 0 66.608 17.3458
    endloop
  endfacet
  facet normal 0 -0.998315 0.0580239
    outer loop
      vertex 0 68.6742 18.7048
      vertex 2 68.6971 19.0988
      vertex 0 68.6971 19.0988
    endloop
  endfacet
  facet normal 0 -0.998315 0.0580239
    outer loop
      vertex 2 68.6971 19.0988
      vertex 0 68.6742 18.7048
      vertex 2 68.6742 18.7048
    endloop
  endfacet
  facet normal 0 0.727329 0.686289
    outer loop
      vertex 2 65.9073 17.6977
      vertex 0 65.6364 17.9848
      vertex 2 65.6364 17.9848
    endloop
  endfacet
  facet normal 0 0.727329 0.686289
    outer loop
      vertex 0 65.6364 17.9848
      vertex 2 65.9073 17.6977
      vertex 0 65.9073 17.6977
    endloop
  endfacet
  facet normal 0 -0.727329 0.686289
    outer loop
      vertex 0 68.0927 17.6977
      vertex 2 68.3636 17.9848
      vertex 0 68.3636 17.9848
    endloop
  endfacet
  facet normal 0 -0.727329 0.686289
    outer loop
      vertex 2 68.3636 17.9848
      vertex 0 68.0927 17.6977
      vertex 2 68.0927 17.6977
    endloop
  endfacet
  facet normal 0 -0.341946 0.939719
    outer loop
      vertex 0 67.763 17.4808
      vertex 2 67.392 17.3458
      vertex 2 67.763 17.4808
    endloop
  endfacet
  facet normal 0 -0.341946 0.939719
    outer loop
      vertex 2 67.392 17.3458
      vertex 0 67.763 17.4808
      vertex 0 67.392 17.3458
    endloop
  endfacet
  facet normal 0 0.918146 -0.396242
    outer loop
      vertex 2 65.3714 19.4876
      vertex 0 65.5278 19.85
      vertex 2 65.5278 19.85
    endloop
  endfacet
  facet normal 0 0.918146 -0.396242
    outer loop
      vertex 0 65.5278 19.85
      vertex 2 65.3714 19.4876
      vertex 0 65.3714 19.4876
    endloop
  endfacet
  facet normal 0 -0.957987 0.286813
    outer loop
      vertex 0 68.561 18.3267
      vertex 2 68.6742 18.7048
      vertex 0 68.6742 18.7048
    endloop
  endfacet
  facet normal 0 -0.957987 0.286813
    outer loop
      vertex 2 68.6742 18.7048
      vertex 0 68.561 18.3267
      vertex 2 68.561 18.3267
    endloop
  endfacet
  facet normal 0 0.984832 -0.173511
    outer loop
      vertex 2 65.3029 19.0988
      vertex 0 65.3714 19.4876
      vertex 2 65.3714 19.4876
    endloop
  endfacet
  facet normal 0 0.984832 -0.173511
    outer loop
      vertex 0 65.3714 19.4876
      vertex 2 65.3029 19.0988
      vertex 0 65.3029 19.0988
    endloop
  endfacet
  facet normal 0 -0.918146 -0.396242
    outer loop
      vertex 0 68.6286 19.4876
      vertex 2 68.4722 19.85
      vertex 0 68.4722 19.85
    endloop
  endfacet
  facet normal 0 -0.918146 -0.396242
    outer loop
      vertex 2 68.4722 19.85
      vertex 0 68.6286 19.4876
      vertex 2 68.6286 19.4876
    endloop
  endfacet
  facet normal 0 -0.448834 -0.893615
    outer loop
      vertex 0 67.5814 20.5975
      vertex 2 67.9342 20.4203
      vertex 2 67.5814 20.5975
    endloop
  endfacet
  facet normal -0 -0.448834 -0.893615
    outer loop
      vertex 2 67.9342 20.4203
      vertex 0 67.5814 20.5975
      vertex 0 67.9342 20.4203
    endloop
  endfacet
  facet normal -0 0.341946 0.939719
    outer loop
      vertex 0 66.608 17.3458
      vertex 2 66.237 17.4808
      vertex 2 66.608 17.3458
    endloop
  endfacet
  facet normal 0 0.341946 0.939719
    outer loop
      vertex 2 66.237 17.4808
      vertex 0 66.608 17.3458
      vertex 0 66.237 17.4808
    endloop
  endfacet
  facet normal -0 0.549603 0.835426
    outer loop
      vertex 0 66.237 17.4808
      vertex 2 65.9073 17.6977
      vertex 2 66.237 17.4808
    endloop
  endfacet
  facet normal 0 0.549603 0.835426
    outer loop
      vertex 2 65.9073 17.6977
      vertex 0 66.237 17.4808
      vertex 0 65.9073 17.6977
    endloop
  endfacet
  facet normal 0 0.998315 0.0580239
    outer loop
      vertex 2 65.3258 18.7048
      vertex 0 65.3029 19.0988
      vertex 2 65.3029 19.0988
    endloop
  endfacet
  facet normal 0 0.998315 0.0580239
    outer loop
      vertex 0 65.3029 19.0988
      vertex 2 65.3258 18.7048
      vertex 0 65.3258 18.7048
    endloop
  endfacet
  facet normal 0 0.802123 -0.597159
    outer loop
      vertex 2 65.5278 19.85
      vertex 0 65.7635 20.1666
      vertex 2 65.7635 20.1666
    endloop
  endfacet
  facet normal 0 0.802123 -0.597159
    outer loop
      vertex 0 65.7635 20.1666
      vertex 2 65.5278 19.85
      vertex 0 65.5278 19.85
    endloop
  endfacet
  facet normal 0 0.642847 -0.765994
    outer loop
      vertex 0 65.7635 20.1666
      vertex 2 66.0658 20.4203
      vertex 2 65.7635 20.1666
    endloop
  endfacet
  facet normal 0 0.642847 -0.765994
    outer loop
      vertex 2 66.0658 20.4203
      vertex 0 65.7635 20.1666
      vertex 0 66.0658 20.4203
    endloop
  endfacet
  facet normal 0 -0.984832 -0.173511
    outer loop
      vertex 0 68.6971 19.0988
      vertex 2 68.6286 19.4876
      vertex 0 68.6286 19.4876
    endloop
  endfacet
  facet normal 0 -0.984832 -0.173511
    outer loop
      vertex 2 68.6286 19.4876
      vertex 0 68.6971 19.0988
      vertex 2 68.6971 19.0988
    endloop
  endfacet
  facet normal 0 -0.866021 0.500007
    outer loop
      vertex 0 68.3636 17.9848
      vertex 2 68.561 18.3267
      vertex 0 68.561 18.3267
    endloop
  endfacet
  facet normal 0 -0.866021 0.500007
    outer loop
      vertex 2 68.561 18.3267
      vertex 0 68.3636 17.9848
      vertex 2 68.3636 17.9848
    endloop
  endfacet
  facet normal 0 0.866021 0.500007
    outer loop
      vertex 2 65.6364 17.9848
      vertex 0 65.439 18.3267
      vertex 2 65.439 18.3267
    endloop
  endfacet
  facet normal 0 0.866021 0.500007
    outer loop
      vertex 0 65.439 18.3267
      vertex 2 65.6364 17.9848
      vertex 0 65.6364 17.9848
    endloop
  endfacet
  facet normal 0 -0.549603 0.835426
    outer loop
      vertex 0 68.0927 17.6977
      vertex 2 67.763 17.4808
      vertex 2 68.0927 17.6977
    endloop
  endfacet
  facet normal 0 -0.549603 0.835426
    outer loop
      vertex 2 67.763 17.4808
      vertex 0 68.0927 17.6977
      vertex 0 67.763 17.4808
    endloop
  endfacet
  facet normal 0 -0.802123 -0.597159
    outer loop
      vertex 0 68.4722 19.85
      vertex 2 68.2365 20.1666
      vertex 0 68.2365 20.1666
    endloop
  endfacet
  facet normal 0 -0.802123 -0.597159
    outer loop
      vertex 2 68.2365 20.1666
      vertex 0 68.4722 19.85
      vertex 2 68.4722 19.85
    endloop
  endfacet
  facet normal 0 0.230593 -0.97305
    outer loop
      vertex 0 66.4186 20.5975
      vertex 2 66.8026 20.6885
      vertex 2 66.4186 20.5975
    endloop
  endfacet
  facet normal 0 0.230593 -0.97305
    outer loop
      vertex 2 66.8026 20.6885
      vertex 0 66.4186 20.5975
      vertex 0 66.8026 20.6885
    endloop
  endfacet
  facet normal 0 0.448834 -0.893615
    outer loop
      vertex 0 66.0658 20.4203
      vertex 2 66.4186 20.5975
      vertex 2 66.0658 20.4203
    endloop
  endfacet
  facet normal 0 0.448834 -0.893615
    outer loop
      vertex 2 66.4186 20.5975
      vertex 0 66.0658 20.4203
      vertex 0 66.4186 20.5975
    endloop
  endfacet
  facet normal 0 -0.230593 -0.97305
    outer loop
      vertex 0 67.1974 20.6885
      vertex 2 67.5814 20.5975
      vertex 2 67.1974 20.6885
    endloop
  endfacet
  facet normal -0 -0.230593 -0.97305
    outer loop
      vertex 2 67.5814 20.5975
      vertex 0 67.1974 20.6885
      vertex 0 67.5814 20.5975
    endloop
  endfacet
  facet normal -1 0 0
    outer loop
      vertex 64 0 8
      vertex 64 2 25
      vertex 64 2 8
    endloop
  endfacet
  facet normal -1 -0 0
    outer loop
      vertex 64 2 25
      vertex 64 0 8
      vertex 64 0 25
    endloop
  endfacet
  facet normal -0 0 1
    outer loop
      vertex 49 2 8
      vertex 64 0 8
      vertex 64 2 8
    endloop
  endfacet
  facet normal 0 0 1
    outer loop
      vertex 64 0 8
      vertex 49 2 8
      vertex 49 0 8
    endloop
  endfacet
  facet normal 1 -0 0
    outer loop
      vertex 49 0 25
      vertex 49 2 8
      vertex 49 2 25
    endloop
  endfacet
  facet normal 1 0 0
    outer loop
      vertex 49 2 8
      vertex 49 0 25
      vertex 49 0 8
    endloop
  endfacet
endsolid OpenSCAD_Model
