solid OpenSCAD_Model
  facet normal 1 -0 0
    outer loop
      vertex 100 0 2
      vertex 100 87 0
      vertex 100 87 2
    endloop
  endfacet
  facet normal 1 0 0
    outer loop
      vertex 100 87 0
      vertex 100 0 2
      vertex 100 0 0
    endloop
  endfacet
  facet normal -0 0 1
    outer loop
      vertex 20.3023 65.9073 2
      vertex 79 55.5 2
      vertex 20.5192 66.237 2
    endloop
  endfacet
  facet normal 0 0 1
    outer loop
      vertex 79 31.5 2
      vertex 20.6542 20.392 2
      vertex 20.7 20 2
    endloop
  endfacet
  facet normal 0 0 1
    outer loop
      vertex 79 55.5 2
      vertex 20.3023 65.9073 2
      vertex 79 31.5 2
    endloop
  endfacet
  facet normal 0 0 1
    outer loop
      vertex 79 31.5 2
      vertex 20.5192 20.763 2
      vertex 20.6542 20.392 2
    endloop
  endfacet
  facet normal 0 0 1
    outer loop
      vertex 20.3023 21.0927 2
      vertex 79 31.5 2
      vertex 20.3023 65.9073 2
    endloop
  endfacet
  facet normal 0 0 1
    outer loop
      vertex 79 31.5 2
      vertex 20.3023 21.0927 2
      vertex 20.5192 20.763 2
    endloop
  endfacet
  facet normal -0 0 1
    outer loop
      vertex 20.0152 65.6364 2
      vertex 20.3023 21.0927 2
      vertex 20.3023 65.9073 2
    endloop
  endfacet
  facet normal 0 0 1
    outer loop
      vertex 20.0152 65.6364 2
      vertex 20.0152 21.3636 2
      vertex 20.3023 21.0927 2
    endloop
  endfacet
  facet normal -0 0 1
    outer loop
      vertex 19.6733 65.439 2
      vertex 20.0152 21.3636 2
      vertex 20.0152 65.6364 2
    endloop
  endfacet
  facet normal 0 0 1
    outer loop
      vertex 19.6733 65.439 2
      vertex 19.6733 21.561 2
      vertex 20.0152 21.3636 2
    endloop
  endfacet
  facet normal -0 0 1
    outer loop
      vertex 19.2952 65.3258 2
      vertex 19.6733 21.561 2
      vertex 19.6733 65.439 2
    endloop
  endfacet
  facet normal 0 0 1
    outer loop
      vertex 19.2952 65.3258 2
      vertex 19.2952 21.6742 2
      vertex 19.6733 21.561 2
    endloop
  endfacet
  facet normal -0 0 1
    outer loop
      vertex 18.9012 65.3029 2
      vertex 19.2952 21.6742 2
      vertex 19.2952 65.3258 2
    endloop
  endfacet
  facet normal 0 0 1
    outer loop
      vertex 18.9012 65.3029 2
      vertex 18.9012 21.6971 2
      vertex 19.2952 21.6742 2
    endloop
  endfacet
  facet normal 0 0 1
    outer loop
      vertex 18.5124 65.3714 2
      vertex 18.9012 21.6971 2
      vertex 18.9012 65.3029 2
    endloop
  endfacet
  facet normal 0 0 1
    outer loop
      vertex 18.5124 65.3714 2
      vertex 18.5124 21.6286 2
      vertex 18.9012 21.6971 2
    endloop
  endfacet
  facet normal 0 0 1
    outer loop
      vertex 18.15 65.5278 2
      vertex 18.5124 21.6286 2
      vertex 18.5124 65.3714 2
    endloop
  endfacet
  facet normal 0 0 1
    outer loop
      vertex 18.15 65.5278 2
      vertex 18.15 21.4722 2
      vertex 18.5124 21.6286 2
    endloop
  endfacet
  facet normal 0 0 1
    outer loop
      vertex 17.8334 65.7635 2
      vertex 18.15 21.4722 2
      vertex 18.15 65.5278 2
    endloop
  endfacet
  facet normal 0 0 1
    outer loop
      vertex 17.8334 65.7635 2
      vertex 17.8334 21.2365 2
      vertex 18.15 21.4722 2
    endloop
  endfacet
  facet normal 0 0 1
    outer loop
      vertex 17.5797 66.0658 2
      vertex 17.8334 21.2365 2
      vertex 17.8334 65.7635 2
    endloop
  endfacet
  facet normal 0 0 1
    outer loop
      vertex 17.5797 66.0658 2
      vertex 17.5797 20.9342 2
      vertex 17.8334 21.2365 2
    endloop
  endfacet
  facet normal 0 0 1
    outer loop
      vertex 17.4025 66.4186 2
      vertex 17.5797 20.9342 2
      vertex 17.5797 66.0658 2
    endloop
  endfacet
  facet normal 0 0 1
    outer loop
      vertex 17.4025 66.4186 2
      vertex 17.4025 20.5814 2
      vertex 17.5797 20.9342 2
    endloop
  endfacet
  facet normal 0 0 1
    outer loop
      vertex 0 87 2
      vertex 17.4025 66.4186 2
      vertex 17.3115 66.8026 2
    endloop
  endfacet
  facet normal 0 0 1
    outer loop
      vertex 17.4025 66.4186 2
      vertex 0 87 2
      vertex 17.4025 20.5814 2
    endloop
  endfacet
  facet normal 0 0 1
    outer loop
      vertex 100 87 2
      vertex 91 55.5 2
      vertex 100 0 2
    endloop
  endfacet
  facet normal 0 0 1
    outer loop
      vertex 100 87 2
      vertex 79 55.5 2
      vertex 91 55.5 2
    endloop
  endfacet
  facet normal -0 0 1
    outer loop
      vertex 20.6542 66.608 2
      vertex 79 55.5 2
      vertex 20.7 67 2
    endloop
  endfacet
  facet normal -0 0 1
    outer loop
      vertex 20.3023 68.0927 2
      vertex 79 55.5 2
      vertex 100 87 2
    endloop
  endfacet
  facet normal 0 0 1
    outer loop
      vertex 79 55.5 2
      vertex 20.6542 67.392 2
      vertex 20.7 67 2
    endloop
  endfacet
  facet normal 0 0 1
    outer loop
      vertex 79 55.5 2
      vertex 20.5192 67.763 2
      vertex 20.6542 67.392 2
    endloop
  endfacet
  facet normal 0 0 1
    outer loop
      vertex 79 55.5 2
      vertex 20.3023 68.0927 2
      vertex 20.5192 67.763 2
    endloop
  endfacet
  facet normal 0 0 1
    outer loop
      vertex 100 87 2
      vertex 20.0152 68.3636 2
      vertex 20.3023 68.0927 2
    endloop
  endfacet
  facet normal 0 0 1
    outer loop
      vertex 100 87 2
      vertex 19.6733 68.561 2
      vertex 20.0152 68.3636 2
    endloop
  endfacet
  facet normal -0 0 1
    outer loop
      vertex 0 87 2
      vertex 19.6733 68.561 2
      vertex 100 87 2
    endloop
  endfacet
  facet normal 0 0 1
    outer loop
      vertex 19.6733 68.561 2
      vertex 0 87 2
      vertex 19.2952 68.6742 2
    endloop
  endfacet
  facet normal 0 0 1
    outer loop
      vertex 19.2952 68.6742 2
      vertex 0 87 2
      vertex 18.9012 68.6971 2
    endloop
  endfacet
  facet normal 0 0 1
    outer loop
      vertex 0 87 2
      vertex 17.3115 66.8026 2
      vertex 17.3115 67.1974 2
    endloop
  endfacet
  facet normal 0 0 1
    outer loop
      vertex 0 0 2
      vertex 17.4025 20.5814 2
      vertex 0 87 2
    endloop
  endfacet
  facet normal 0 0 1
    outer loop
      vertex 17.4025 20.5814 2
      vertex 0 0 2
      vertex 17.3115 20.1974 2
    endloop
  endfacet
  facet normal 0 0 1
    outer loop
      vertex 17.4025 67.5814 2
      vertex 0 87 2
      vertex 17.3115 67.1974 2
    endloop
  endfacet
  facet normal 0 0 1
    outer loop
      vertex 17.5797 67.9342 2
      vertex 0 87 2
      vertex 17.4025 67.5814 2
    endloop
  endfacet
  facet normal 0 0 1
    outer loop
      vertex 17.8334 68.2365 2
      vertex 0 87 2
      vertex 17.5797 67.9342 2
    endloop
  endfacet
  facet normal 0 0 1
    outer loop
      vertex 18.15 68.4722 2
      vertex 0 87 2
      vertex 17.8334 68.2365 2
    endloop
  endfacet
  facet normal 0 0 1
    outer loop
      vertex 18.5124 68.6286 2
      vertex 0 87 2
      vertex 18.15 68.4722 2
    endloop
  endfacet
  facet normal 0 0 1
    outer loop
      vertex 18.9012 68.6971 2
      vertex 0 87 2
      vertex 18.5124 68.6286 2
    endloop
  endfacet
  facet normal -0 0 1
    outer loop
      vertex 91 31.5 2
      vertex 100 0 2
      vertex 91 55.5 2
    endloop
  endfacet
  facet normal -0 0 1
    outer loop
      vertex 79 31.5 2
      vertex 100 0 2
      vertex 91 31.5 2
    endloop
  endfacet
  facet normal -0 0 1
    outer loop
      vertex 20.5192 66.237 2
      vertex 79 55.5 2
      vertex 20.6542 66.608 2
    endloop
  endfacet
  facet normal 0 0 1
    outer loop
      vertex 20.6542 19.608 2
      vertex 79 31.5 2
      vertex 20.7 20 2
    endloop
  endfacet
  facet normal 0 0 1
    outer loop
      vertex 20.5192 19.237 2
      vertex 79 31.5 2
      vertex 20.6542 19.608 2
    endloop
  endfacet
  facet normal 0 0 1
    outer loop
      vertex 20.3023 18.9073 2
      vertex 79 31.5 2
      vertex 20.5192 19.237 2
    endloop
  endfacet
  facet normal 0 0 1
    outer loop
      vertex 79 31.5 2
      vertex 20.3023 18.9073 2
      vertex 100 0 2
    endloop
  endfacet
  facet normal -0 0 1
    outer loop
      vertex 20.0152 18.6364 2
      vertex 100 0 2
      vertex 20.3023 18.9073 2
    endloop
  endfacet
  facet normal -0 0 1
    outer loop
      vertex 19.6733 18.439 2
      vertex 100 0 2
      vertex 20.0152 18.6364 2
    endloop
  endfacet
  facet normal 0 0 1
    outer loop
      vertex 0 0 2
      vertex 19.6733 18.439 2
      vertex 19.2952 18.3258 2
    endloop
  endfacet
  facet normal 0 0 1
    outer loop
      vertex 0 0 2
      vertex 19.2952 18.3258 2
      vertex 18.9012 18.3029 2
    endloop
  endfacet
  facet normal 0 0 1
    outer loop
      vertex 0 0 2
      vertex 18.9012 18.3029 2
      vertex 18.5124 18.3714 2
    endloop
  endfacet
  facet normal 0 0 1
    outer loop
      vertex 17.3115 20.1974 2
      vertex 0 0 2
      vertex 17.3115 19.8026 2
    endloop
  endfacet
  facet normal 0 0 1
    outer loop
      vertex 19.6733 18.439 2
      vertex 0 0 2
      vertex 100 0 2
    endloop
  endfacet
  facet normal 0 0 1
    outer loop
      vertex 18.15 18.5278 2
      vertex 0 0 2
      vertex 18.5124 18.3714 2
    endloop
  endfacet
  facet normal 0 0 1
    outer loop
      vertex 17.8334 18.7635 2
      vertex 0 0 2
      vertex 18.15 18.5278 2
    endloop
  endfacet
  facet normal 0 0 1
    outer loop
      vertex 17.5797 19.0658 2
      vertex 0 0 2
      vertex 17.8334 18.7635 2
    endloop
  endfacet
  facet normal 0 0 1
    outer loop
      vertex 17.4025 19.4186 2
      vertex 0 0 2
      vertex 17.5797 19.0658 2
    endloop
  endfacet
  facet normal 0 0 1
    outer loop
      vertex 17.3115 19.8026 2
      vertex 0 0 2
      vertex 17.4025 19.4186 2
    endloop
  endfacet
  facet normal 0 0 -1
    outer loop
      vertex 20.3023 21.0927 0
      vertex 79 31.5 0
      vertex 20.5192 20.763 0
    endloop
  endfacet
  facet normal 0 0 -1
    outer loop
      vertex 79 55.5 0
      vertex 20.6542 66.608 0
      vertex 20.7 67 0
    endloop
  endfacet
  facet normal -0 0 -1
    outer loop
      vertex 79 31.5 0
      vertex 20.3023 21.0927 0
      vertex 79 55.5 0
    endloop
  endfacet
  facet normal 0 0 -1
    outer loop
      vertex 79 55.5 0
      vertex 20.5192 66.237 0
      vertex 20.6542 66.608 0
    endloop
  endfacet
  facet normal 0 0 -1
    outer loop
      vertex 20.3023 65.9073 0
      vertex 79 55.5 0
      vertex 20.3023 21.0927 0
    endloop
  endfacet
  facet normal 0 0 -1
    outer loop
      vertex 79 55.5 0
      vertex 20.3023 65.9073 0
      vertex 20.5192 66.237 0
    endloop
  endfacet
  facet normal 0 0 -1
    outer loop
      vertex 20.0152 21.3636 0
      vertex 20.3023 65.9073 0
      vertex 20.3023 21.0927 0
    endloop
  endfacet
  facet normal 0 0 -1
    outer loop
      vertex 20.0152 21.3636 0
      vertex 20.0152 65.6364 0
      vertex 20.3023 65.9073 0
    endloop
  endfacet
  facet normal 0 0 -1
    outer loop
      vertex 19.6733 21.561 0
      vertex 20.0152 65.6364 0
      vertex 20.0152 21.3636 0
    endloop
  endfacet
  facet normal 0 0 -1
    outer loop
      vertex 19.6733 21.561 0
      vertex 19.6733 65.439 0
      vertex 20.0152 65.6364 0
    endloop
  endfacet
  facet normal 0 0 -1
    outer loop
      vertex 19.2952 21.6742 0
      vertex 19.6733 65.439 0
      vertex 19.6733 21.561 0
    endloop
  endfacet
  facet normal 0 0 -1
    outer loop
      vertex 19.2952 21.6742 0
      vertex 19.2952 65.3258 0
      vertex 19.6733 65.439 0
    endloop
  endfacet
  facet normal 0 0 -1
    outer loop
      vertex 18.9012 21.6971 0
      vertex 19.2952 65.3258 0
      vertex 19.2952 21.6742 0
    endloop
  endfacet
  facet normal 0 0 -1
    outer loop
      vertex 18.9012 21.6971 0
      vertex 18.9012 65.3029 0
      vertex 19.2952 65.3258 0
    endloop
  endfacet
  facet normal 0 0 -1
    outer loop
      vertex 18.5124 21.6286 0
      vertex 18.9012 65.3029 0
      vertex 18.9012 21.6971 0
    endloop
  endfacet
  facet normal 0 0 -1
    outer loop
      vertex 18.5124 21.6286 0
      vertex 18.5124 65.3714 0
      vertex 18.9012 65.3029 0
    endloop
  endfacet
  facet normal 0 0 -1
    outer loop
      vertex 18.15 21.4722 0
      vertex 18.5124 65.3714 0
      vertex 18.5124 21.6286 0
    endloop
  endfacet
  facet normal 0 0 -1
    outer loop
      vertex 18.15 21.4722 0
      vertex 18.15 65.5278 0
      vertex 18.5124 65.3714 0
    endloop
  endfacet
  facet normal 0 0 -1
    outer loop
      vertex 17.8334 21.2365 0
      vertex 18.15 65.5278 0
      vertex 18.15 21.4722 0
    endloop
  endfacet
  facet normal 0 0 -1
    outer loop
      vertex 17.8334 21.2365 0
      vertex 17.8334 65.7635 0
      vertex 18.15 65.5278 0
    endloop
  endfacet
  facet normal 0 0 -1
    outer loop
      vertex 17.5797 20.9342 0
      vertex 17.8334 65.7635 0
      vertex 17.8334 21.2365 0
    endloop
  endfacet
  facet normal 0 0 -1
    outer loop
      vertex 17.5797 20.9342 0
      vertex 17.5797 66.0658 0
      vertex 17.8334 65.7635 0
    endloop
  endfacet
  facet normal 0 0 -1
    outer loop
      vertex 17.4025 20.5814 0
      vertex 17.5797 66.0658 0
      vertex 17.5797 20.9342 0
    endloop
  endfacet
  facet normal 0 0 -1
    outer loop
      vertex 17.4025 20.5814 0
      vertex 17.4025 66.4186 0
      vertex 17.5797 66.0658 0
    endloop
  endfacet
  facet normal 0 0 -1
    outer loop
      vertex 0 0 0
      vertex 17.4025 20.5814 0
      vertex 17.3115 20.1974 0
    endloop
  endfacet
  facet normal -0 0 -1
    outer loop
      vertex 17.4025 20.5814 0
      vertex 0 0 0
      vertex 17.4025 66.4186 0
    endloop
  endfacet
  facet normal 0 0 -1
    outer loop
      vertex 100 0 0
      vertex 91 31.5 0
      vertex 100 87 0
    endloop
  endfacet
  facet normal 0 0 -1
    outer loop
      vertex 100 0 0
      vertex 79 31.5 0
      vertex 91 31.5 0
    endloop
  endfacet
  facet normal 0 0 -1
    outer loop
      vertex 20.6542 20.392 0
      vertex 79 31.5 0
      vertex 20.7 20 0
    endloop
  endfacet
  facet normal 0 0 -1
    outer loop
      vertex 20.3023 18.9073 0
      vertex 79 31.5 0
      vertex 100 0 0
    endloop
  endfacet
  facet normal 0 0 -1
    outer loop
      vertex 79 31.5 0
      vertex 20.6542 19.608 0
      vertex 20.7 20 0
    endloop
  endfacet
  facet normal 0 0 -1
    outer loop
      vertex 79 31.5 0
      vertex 20.5192 19.237 0
      vertex 20.6542 19.608 0
    endloop
  endfacet
  facet normal 0 0 -1
    outer loop
      vertex 79 31.5 0
      vertex 20.3023 18.9073 0
      vertex 20.5192 19.237 0
    endloop
  endfacet
  facet normal 0 0 -1
    outer loop
      vertex 100 0 0
      vertex 20.0152 18.6364 0
      vertex 20.3023 18.9073 0
    endloop
  endfacet
  facet normal 0 0 -1
    outer loop
      vertex 100 0 0
      vertex 19.6733 18.439 0
      vertex 20.0152 18.6364 0
    endloop
  endfacet
  facet normal 0 0 -1
    outer loop
      vertex 0 0 0
      vertex 19.6733 18.439 0
      vertex 100 0 0
    endloop
  endfacet
  facet normal 0 0 -1
    outer loop
      vertex 19.6733 18.439 0
      vertex 0 0 0
      vertex 19.2952 18.3258 0
    endloop
  endfacet
  facet normal 0 0 -1
    outer loop
      vertex 19.2952 18.3258 0
      vertex 0 0 0
      vertex 18.9012 18.3029 0
    endloop
  endfacet
  facet normal 0 0 -1
    outer loop
      vertex 0 0 0
      vertex 17.3115 20.1974 0
      vertex 17.3115 19.8026 0
    endloop
  endfacet
  facet normal 0 0 -1
    outer loop
      vertex 0 87 0
      vertex 17.4025 66.4186 0
      vertex 0 0 0
    endloop
  endfacet
  facet normal 0 0 -1
    outer loop
      vertex 17.4025 66.4186 0
      vertex 0 87 0
      vertex 17.3115 66.8026 0
    endloop
  endfacet
  facet normal -0 0 -1
    outer loop
      vertex 17.4025 19.4186 0
      vertex 0 0 0
      vertex 17.3115 19.8026 0
    endloop
  endfacet
  facet normal -0 0 -1
    outer loop
      vertex 17.5797 19.0658 0
      vertex 0 0 0
      vertex 17.4025 19.4186 0
    endloop
  endfacet
  facet normal -0 0 -1
    outer loop
      vertex 17.8334 18.7635 0
      vertex 0 0 0
      vertex 17.5797 19.0658 0
    endloop
  endfacet
  facet normal -0 0 -1
    outer loop
      vertex 18.15 18.5278 0
      vertex 0 0 0
      vertex 17.8334 18.7635 0
    endloop
  endfacet
  facet normal -0 0 -1
    outer loop
      vertex 18.5124 18.3714 0
      vertex 0 0 0
      vertex 18.15 18.5278 0
    endloop
  endfacet
  facet normal -0 0 -1
    outer loop
      vertex 18.9012 18.3029 0
      vertex 0 0 0
      vertex 18.5124 18.3714 0
    endloop
  endfacet
  facet normal 0 0 -1
    outer loop
      vertex 91 55.5 0
      vertex 100 87 0
      vertex 91 31.5 0
    endloop
  endfacet
  facet normal 0 0 -1
    outer loop
      vertex 79 55.5 0
      vertex 100 87 0
      vertex 91 55.5 0
    endloop
  endfacet
  facet normal 0 0 -1
    outer loop
      vertex 20.5192 20.763 0
      vertex 79 31.5 0
      vertex 20.6542 20.392 0
    endloop
  endfacet
  facet normal 0 0 -1
    outer loop
      vertex 20.6542 67.392 0
      vertex 79 55.5 0
      vertex 20.7 67 0
    endloop
  endfacet
  facet normal 0 0 -1
    outer loop
      vertex 20.5192 67.763 0
      vertex 79 55.5 0
      vertex 20.6542 67.392 0
    endloop
  endfacet
  facet normal 0 0 -1
    outer loop
      vertex 20.3023 68.0927 0
      vertex 79 55.5 0
      vertex 20.5192 67.763 0
    endloop
  endfacet
  facet normal 0 0 -1
    outer loop
      vertex 79 55.5 0
      vertex 20.3023 68.0927 0
      vertex 100 87 0
    endloop
  endfacet
  facet normal 0 0 -1
    outer loop
      vertex 20.0152 68.3636 0
      vertex 100 87 0
      vertex 20.3023 68.0927 0
    endloop
  endfacet
  facet normal 0 0 -1
    outer loop
      vertex 19.6733 68.561 0
      vertex 100 87 0
      vertex 20.0152 68.3636 0
    endloop
  endfacet
  facet normal 0 0 -1
    outer loop
      vertex 0 87 0
      vertex 19.6733 68.561 0
      vertex 19.2952 68.6742 0
    endloop
  endfacet
  facet normal 0 0 -1
    outer loop
      vertex 0 87 0
      vertex 19.2952 68.6742 0
      vertex 18.9012 68.6971 0
    endloop
  endfacet
  facet normal 0 0 -1
    outer loop
      vertex 0 87 0
      vertex 18.9012 68.6971 0
      vertex 18.5124 68.6286 0
    endloop
  endfacet
  facet normal 0 0 -1
    outer loop
      vertex 17.3115 66.8026 0
      vertex 0 87 0
      vertex 17.3115 67.1974 0
    endloop
  endfacet
  facet normal 0 0 -1
    outer loop
      vertex 19.6733 68.561 0
      vertex 0 87 0
      vertex 100 87 0
    endloop
  endfacet
  facet normal 0 0 -1
    outer loop
      vertex 18.15 68.4722 0
      vertex 0 87 0
      vertex 18.5124 68.6286 0
    endloop
  endfacet
  facet normal 0 0 -1
    outer loop
      vertex 17.8334 68.2365 0
      vertex 0 87 0
      vertex 18.15 68.4722 0
    endloop
  endfacet
  facet normal 0 0 -1
    outer loop
      vertex 17.5797 67.9342 0
      vertex 0 87 0
      vertex 17.8334 68.2365 0
    endloop
  endfacet
  facet normal 0 0 -1
    outer loop
      vertex 17.4025 67.5814 0
      vertex 0 87 0
      vertex 17.5797 67.9342 0
    endloop
  endfacet
  facet normal 0 0 -1
    outer loop
      vertex 17.3115 67.1974 0
      vertex 0 87 0
      vertex 17.4025 67.5814 0
    endloop
  endfacet
  facet normal -1 0 0
    outer loop
      vertex 0 0 0
      vertex 0 87 2
      vertex 0 87 0
    endloop
  endfacet
  facet normal -1 -0 0
    outer loop
      vertex 0 87 2
      vertex 0 0 0
      vertex 0 0 2
    endloop
  endfacet
  facet normal 0 1 -0
    outer loop
      vertex 100 87 0
      vertex 0 87 2
      vertex 100 87 2
    endloop
  endfacet
  facet normal 0 1 0
    outer loop
      vertex 0 87 2
      vertex 100 87 0
      vertex 0 87 0
    endloop
  endfacet
  facet normal 0 -1 0
    outer loop
      vertex 0 0 0
      vertex 100 0 2
      vertex 0 0 2
    endloop
  endfacet
  facet normal 0 -1 -0
    outer loop
      vertex 100 0 2
      vertex 0 0 0
      vertex 100 0 0
    endloop
  endfacet
  facet normal -0.0580239 -0.998315 0
    outer loop
      vertex 18.9012 21.6971 0
      vertex 19.2952 21.6742 2
      vertex 18.9012 21.6971 2
    endloop
  endfacet
  facet normal -0.0580239 -0.998315 -0
    outer loop
      vertex 19.2952 21.6742 2
      vertex 18.9012 21.6971 0
      vertex 19.2952 21.6742 0
    endloop
  endfacet
  facet normal -0.939719 -0.341946 0
    outer loop
      vertex 20.6542 20.392 0
      vertex 20.5192 20.763 2
      vertex 20.5192 20.763 0
    endloop
  endfacet
  facet normal -0.939719 -0.341946 0
    outer loop
      vertex 20.5192 20.763 2
      vertex 20.6542 20.392 0
      vertex 20.6542 20.392 2
    endloop
  endfacet
  facet normal -0.993244 -0.116047 0
    outer loop
      vertex 20.7 20 0
      vertex 20.6542 20.392 2
      vertex 20.6542 20.392 0
    endloop
  endfacet
  facet normal -0.993244 -0.116047 0
    outer loop
      vertex 20.6542 20.392 2
      vertex 20.7 20 0
      vertex 20.7 20 2
    endloop
  endfacet
  facet normal -0.286813 0.957987 0
    outer loop
      vertex 19.6733 18.439 0
      vertex 19.2952 18.3258 2
      vertex 19.6733 18.439 2
    endloop
  endfacet
  facet normal -0.286813 0.957987 0
    outer loop
      vertex 19.2952 18.3258 2
      vertex 19.6733 18.439 0
      vertex 19.2952 18.3258 0
    endloop
  endfacet
  facet normal 1 -0 0
    outer loop
      vertex 17.3115 19.8026 2
      vertex 17.3115 20.1974 0
      vertex 17.3115 20.1974 2
    endloop
  endfacet
  facet normal 1 0 0
    outer loop
      vertex 17.3115 20.1974 0
      vertex 17.3115 19.8026 2
      vertex 17.3115 19.8026 0
    endloop
  endfacet
  facet normal -0.286813 -0.957987 0
    outer loop
      vertex 19.2952 21.6742 0
      vertex 19.6733 21.561 2
      vertex 19.2952 21.6742 2
    endloop
  endfacet
  facet normal -0.286813 -0.957987 -0
    outer loop
      vertex 19.6733 21.561 2
      vertex 19.2952 21.6742 0
      vertex 19.6733 21.561 0
    endloop
  endfacet
  facet normal 0.765994 -0.642847 0
    outer loop
      vertex 17.5797 20.9342 2
      vertex 17.8334 21.2365 0
      vertex 17.8334 21.2365 2
    endloop
  endfacet
  facet normal 0.765994 -0.642847 0
    outer loop
      vertex 17.8334 21.2365 0
      vertex 17.5797 20.9342 2
      vertex 17.5797 20.9342 0
    endloop
  endfacet
  facet normal -0.0580239 0.998315 0
    outer loop
      vertex 19.2952 18.3258 0
      vertex 18.9012 18.3029 2
      vertex 19.2952 18.3258 2
    endloop
  endfacet
  facet normal -0.0580239 0.998315 0
    outer loop
      vertex 18.9012 18.3029 2
      vertex 19.2952 18.3258 0
      vertex 18.9012 18.3029 0
    endloop
  endfacet
  facet normal -0.993244 0.116047 0
    outer loop
      vertex 20.6542 19.608 0
      vertex 20.7 20 2
      vertex 20.7 20 0
    endloop
  endfacet
  facet normal -0.993244 0.116047 0
    outer loop
      vertex 20.7 20 2
      vertex 20.6542 19.608 0
      vertex 20.6542 19.608 2
    endloop
  endfacet
  facet normal -0.686289 0.727329 0
    outer loop
      vertex 20.3023 18.9073 0
      vertex 20.0152 18.6364 2
      vertex 20.3023 18.9073 2
    endloop
  endfacet
  facet normal -0.686289 0.727329 0
    outer loop
      vertex 20.0152 18.6364 2
      vertex 20.3023 18.9073 0
      vertex 20.0152 18.6364 0
    endloop
  endfacet
  facet normal -0.835426 -0.549603 0
    outer loop
      vertex 20.5192 20.763 0
      vertex 20.3023 21.0927 2
      vertex 20.3023 21.0927 0
    endloop
  endfacet
  facet normal -0.835426 -0.549603 0
    outer loop
      vertex 20.3023 21.0927 2
      vertex 20.5192 20.763 0
      vertex 20.5192 20.763 2
    endloop
  endfacet
  facet normal 0.173511 0.984832 -0
    outer loop
      vertex 18.9012 18.3029 0
      vertex 18.5124 18.3714 2
      vertex 18.9012 18.3029 2
    endloop
  endfacet
  facet normal 0.173511 0.984832 0
    outer loop
      vertex 18.5124 18.3714 2
      vertex 18.9012 18.3029 0
      vertex 18.5124 18.3714 0
    endloop
  endfacet
  facet normal 0.396242 -0.918146 0
    outer loop
      vertex 18.15 21.4722 0
      vertex 18.5124 21.6286 2
      vertex 18.15 21.4722 2
    endloop
  endfacet
  facet normal 0.396242 -0.918146 0
    outer loop
      vertex 18.5124 21.6286 2
      vertex 18.15 21.4722 0
      vertex 18.5124 21.6286 0
    endloop
  endfacet
  facet normal 0.893615 -0.448834 0
    outer loop
      vertex 17.4025 20.5814 2
      vertex 17.5797 20.9342 0
      vertex 17.5797 20.9342 2
    endloop
  endfacet
  facet normal 0.893615 -0.448834 0
    outer loop
      vertex 17.5797 20.9342 0
      vertex 17.4025 20.5814 2
      vertex 17.4025 20.5814 0
    endloop
  endfacet
  facet normal 0.765994 0.642847 0
    outer loop
      vertex 17.8334 18.7635 2
      vertex 17.5797 19.0658 0
      vertex 17.5797 19.0658 2
    endloop
  endfacet
  facet normal 0.765994 0.642847 0
    outer loop
      vertex 17.5797 19.0658 0
      vertex 17.8334 18.7635 2
      vertex 17.8334 18.7635 0
    endloop
  endfacet
  facet normal -0.939719 0.341946 0
    outer loop
      vertex 20.5192 19.237 0
      vertex 20.6542 19.608 2
      vertex 20.6542 19.608 0
    endloop
  endfacet
  facet normal -0.939719 0.341946 0
    outer loop
      vertex 20.6542 19.608 2
      vertex 20.5192 19.237 0
      vertex 20.5192 19.237 2
    endloop
  endfacet
  facet normal -0.835426 0.549603 0
    outer loop
      vertex 20.3023 18.9073 0
      vertex 20.5192 19.237 2
      vertex 20.5192 19.237 0
    endloop
  endfacet
  facet normal -0.835426 0.549603 0
    outer loop
      vertex 20.5192 19.237 2
      vertex 20.3023 18.9073 0
      vertex 20.3023 18.9073 2
    endloop
  endfacet
  facet normal 0.597159 0.802123 -0
    outer loop
      vertex 18.15 18.5278 0
      vertex 17.8334 18.7635 2
      vertex 18.15 18.5278 2
    endloop
  endfacet
  facet normal 0.597159 0.802123 0
    outer loop
      vertex 17.8334 18.7635 2
      vertex 18.15 18.5278 0
      vertex 17.8334 18.7635 0
    endloop
  endfacet
  facet normal 0.173511 -0.984832 0
    outer loop
      vertex 18.5124 21.6286 0
      vertex 18.9012 21.6971 2
      vertex 18.5124 21.6286 2
    endloop
  endfacet
  facet normal 0.173511 -0.984832 0
    outer loop
      vertex 18.9012 21.6971 2
      vertex 18.5124 21.6286 0
      vertex 18.9012 21.6971 0
    endloop
  endfacet
  facet normal -0.500007 -0.866021 0
    outer loop
      vertex 19.6733 21.561 0
      vertex 20.0152 21.3636 2
      vertex 19.6733 21.561 2
    endloop
  endfacet
  facet normal -0.500007 -0.866021 -0
    outer loop
      vertex 20.0152 21.3636 2
      vertex 19.6733 21.561 0
      vertex 20.0152 21.3636 0
    endloop
  endfacet
  facet normal -0.686289 -0.727329 0
    outer loop
      vertex 20.0152 21.3636 0
      vertex 20.3023 21.0927 2
      vertex 20.0152 21.3636 2
    endloop
  endfacet
  facet normal -0.686289 -0.727329 -0
    outer loop
      vertex 20.3023 21.0927 2
      vertex 20.0152 21.3636 0
      vertex 20.3023 21.0927 0
    endloop
  endfacet
  facet normal 0.893615 0.448834 0
    outer loop
      vertex 17.5797 19.0658 2
      vertex 17.4025 19.4186 0
      vertex 17.4025 19.4186 2
    endloop
  endfacet
  facet normal 0.893615 0.448834 0
    outer loop
      vertex 17.4025 19.4186 0
      vertex 17.5797 19.0658 2
      vertex 17.5797 19.0658 0
    endloop
  endfacet
  facet normal -0.500007 0.866021 0
    outer loop
      vertex 20.0152 18.6364 0
      vertex 19.6733 18.439 2
      vertex 20.0152 18.6364 2
    endloop
  endfacet
  facet normal -0.500007 0.866021 0
    outer loop
      vertex 19.6733 18.439 2
      vertex 20.0152 18.6364 0
      vertex 19.6733 18.439 0
    endloop
  endfacet
  facet normal 0.597159 -0.802123 0
    outer loop
      vertex 17.8334 21.2365 0
      vertex 18.15 21.4722 2
      vertex 17.8334 21.2365 2
    endloop
  endfacet
  facet normal 0.597159 -0.802123 0
    outer loop
      vertex 18.15 21.4722 2
      vertex 17.8334 21.2365 0
      vertex 18.15 21.4722 0
    endloop
  endfacet
  facet normal 0.97305 0.230593 0
    outer loop
      vertex 17.4025 19.4186 2
      vertex 17.3115 19.8026 0
      vertex 17.3115 19.8026 2
    endloop
  endfacet
  facet normal 0.97305 0.230593 0
    outer loop
      vertex 17.3115 19.8026 0
      vertex 17.4025 19.4186 2
      vertex 17.4025 19.4186 0
    endloop
  endfacet
  facet normal 0.97305 -0.230593 0
    outer loop
      vertex 17.3115 20.1974 2
      vertex 17.4025 20.5814 0
      vertex 17.4025 20.5814 2
    endloop
  endfacet
  facet normal 0.97305 -0.230593 0
    outer loop
      vertex 17.4025 20.5814 0
      vertex 17.3115 20.1974 2
      vertex 17.3115 20.1974 0
    endloop
  endfacet
  facet normal 0.396242 0.918146 -0
    outer loop
      vertex 18.5124 18.3714 0
      vertex 18.15 18.5278 2
      vertex 18.5124 18.3714 2
    endloop
  endfacet
  facet normal 0.396242 0.918146 0
    outer loop
      vertex 18.15 18.5278 2
      vertex 18.5124 18.3714 0
      vertex 18.15 18.5278 0
    endloop
  endfacet
  facet normal -0.0580239 -0.998315 0
    outer loop
      vertex 18.9012 68.6971 0
      vertex 19.2952 68.6742 2
      vertex 18.9012 68.6971 2
    endloop
  endfacet
  facet normal -0.0580239 -0.998315 -0
    outer loop
      vertex 19.2952 68.6742 2
      vertex 18.9012 68.6971 0
      vertex 19.2952 68.6742 0
    endloop
  endfacet
  facet normal -0.939719 -0.341946 0
    outer loop
      vertex 20.6542 67.392 0
      vertex 20.5192 67.763 2
      vertex 20.5192 67.763 0
    endloop
  endfacet
  facet normal -0.939719 -0.341946 0
    outer loop
      vertex 20.5192 67.763 2
      vertex 20.6542 67.392 0
      vertex 20.6542 67.392 2
    endloop
  endfacet
  facet normal -0.993244 -0.116047 0
    outer loop
      vertex 20.7 67 0
      vertex 20.6542 67.392 2
      vertex 20.6542 67.392 0
    endloop
  endfacet
  facet normal -0.993244 -0.116047 0
    outer loop
      vertex 20.6542 67.392 2
      vertex 20.7 67 0
      vertex 20.7 67 2
    endloop
  endfacet
  facet normal -0.286813 0.957987 0
    outer loop
      vertex 19.6733 65.439 0
      vertex 19.2952 65.3258 2
      vertex 19.6733 65.439 2
    endloop
  endfacet
  facet normal -0.286813 0.957987 0
    outer loop
      vertex 19.2952 65.3258 2
      vertex 19.6733 65.439 0
      vertex 19.2952 65.3258 0
    endloop
  endfacet
  facet normal 1 -0 0
    outer loop
      vertex 17.3115 66.8026 2
      vertex 17.3115 67.1974 0
      vertex 17.3115 67.1974 2
    endloop
  endfacet
  facet normal 1 0 0
    outer loop
      vertex 17.3115 67.1974 0
      vertex 17.3115 66.8026 2
      vertex 17.3115 66.8026 0
    endloop
  endfacet
  facet normal -0.286813 -0.957987 0
    outer loop
      vertex 19.2952 68.6742 0
      vertex 19.6733 68.561 2
      vertex 19.2952 68.6742 2
    endloop
  endfacet
  facet normal -0.286813 -0.957987 -0
    outer loop
      vertex 19.6733 68.561 2
      vertex 19.2952 68.6742 0
      vertex 19.6733 68.561 0
    endloop
  endfacet
  facet normal 0.765994 -0.642847 0
    outer loop
      vertex 17.5797 67.9342 2
      vertex 17.8334 68.2365 0
      vertex 17.8334 68.2365 2
    endloop
  endfacet
  facet normal 0.765994 -0.642847 0
    outer loop
      vertex 17.8334 68.2365 0
      vertex 17.5797 67.9342 2
      vertex 17.5797 67.9342 0
    endloop
  endfacet
  facet normal -0.0580239 0.998315 0
    outer loop
      vertex 19.2952 65.3258 0
      vertex 18.9012 65.3029 2
      vertex 19.2952 65.3258 2
    endloop
  endfacet
  facet normal -0.0580239 0.998315 0
    outer loop
      vertex 18.9012 65.3029 2
      vertex 19.2952 65.3258 0
      vertex 18.9012 65.3029 0
    endloop
  endfacet
  facet normal -0.993244 0.116047 0
    outer loop
      vertex 20.6542 66.608 0
      vertex 20.7 67 2
      vertex 20.7 67 0
    endloop
  endfacet
  facet normal -0.993244 0.116047 0
    outer loop
      vertex 20.7 67 2
      vertex 20.6542 66.608 0
      vertex 20.6542 66.608 2
    endloop
  endfacet
  facet normal -0.686289 0.727329 0
    outer loop
      vertex 20.3023 65.9073 0
      vertex 20.0152 65.6364 2
      vertex 20.3023 65.9073 2
    endloop
  endfacet
  facet normal -0.686289 0.727329 0
    outer loop
      vertex 20.0152 65.6364 2
      vertex 20.3023 65.9073 0
      vertex 20.0152 65.6364 0
    endloop
  endfacet
  facet normal -0.835426 -0.549603 0
    outer loop
      vertex 20.5192 67.763 0
      vertex 20.3023 68.0927 2
      vertex 20.3023 68.0927 0
    endloop
  endfacet
  facet normal -0.835426 -0.549603 0
    outer loop
      vertex 20.3023 68.0927 2
      vertex 20.5192 67.763 0
      vertex 20.5192 67.763 2
    endloop
  endfacet
  facet normal 0.173511 0.984832 -0
    outer loop
      vertex 18.9012 65.3029 0
      vertex 18.5124 65.3714 2
      vertex 18.9012 65.3029 2
    endloop
  endfacet
  facet normal 0.173511 0.984832 0
    outer loop
      vertex 18.5124 65.3714 2
      vertex 18.9012 65.3029 0
      vertex 18.5124 65.3714 0
    endloop
  endfacet
  facet normal 0.396242 -0.918146 0
    outer loop
      vertex 18.15 68.4722 0
      vertex 18.5124 68.6286 2
      vertex 18.15 68.4722 2
    endloop
  endfacet
  facet normal 0.396242 -0.918146 0
    outer loop
      vertex 18.5124 68.6286 2
      vertex 18.15 68.4722 0
      vertex 18.5124 68.6286 0
    endloop
  endfacet
  facet normal 0.765994 0.642847 0
    outer loop
      vertex 17.8334 65.7635 2
      vertex 17.5797 66.0658 0
      vertex 17.5797 66.0658 2
    endloop
  endfacet
  facet normal 0.765994 0.642847 0
    outer loop
      vertex 17.5797 66.0658 0
      vertex 17.8334 65.7635 2
      vertex 17.8334 65.7635 0
    endloop
  endfacet
  facet normal -0.939719 0.341946 0
    outer loop
      vertex 20.5192 66.237 0
      vertex 20.6542 66.608 2
      vertex 20.6542 66.608 0
    endloop
  endfacet
  facet normal -0.939719 0.341946 0
    outer loop
      vertex 20.6542 66.608 2
      vertex 20.5192 66.237 0
      vertex 20.5192 66.237 2
    endloop
  endfacet
  facet normal -0.835426 0.549603 0
    outer loop
      vertex 20.3023 65.9073 0
      vertex 20.5192 66.237 2
      vertex 20.5192 66.237 0
    endloop
  endfacet
  facet normal -0.835426 0.549603 0
    outer loop
      vertex 20.5192 66.237 2
      vertex 20.3023 65.9073 0
      vertex 20.3023 65.9073 2
    endloop
  endfacet
  facet normal 0.597159 0.802123 -0
    outer loop
      vertex 18.15 65.5278 0
      vertex 17.8334 65.7635 2
      vertex 18.15 65.5278 2
    endloop
  endfacet
  facet normal 0.597159 0.802123 0
    outer loop
      vertex 17.8334 65.7635 2
      vertex 18.15 65.5278 0
      vertex 17.8334 65.7635 0
    endloop
  endfacet
  facet normal 0.173511 -0.984832 0
    outer loop
      vertex 18.5124 68.6286 0
      vertex 18.9012 68.6971 2
      vertex 18.5124 68.6286 2
    endloop
  endfacet
  facet normal 0.173511 -0.984832 0
    outer loop
      vertex 18.9012 68.6971 2
      vertex 18.5124 68.6286 0
      vertex 18.9012 68.6971 0
    endloop
  endfacet
  facet normal 0.893615 -0.448834 0
    outer loop
      vertex 17.4025 67.5814 2
      vertex 17.5797 67.9342 0
      vertex 17.5797 67.9342 2
    endloop
  endfacet
  facet normal 0.893615 -0.448834 0
    outer loop
      vertex 17.5797 67.9342 0
      vertex 17.4025 67.5814 2
      vertex 17.4025 67.5814 0
    endloop
  endfacet
  facet normal -0.500007 -0.866021 0
    outer loop
      vertex 19.6733 68.561 0
      vertex 20.0152 68.3636 2
      vertex 19.6733 68.561 2
    endloop
  endfacet
  facet normal -0.500007 -0.866021 -0
    outer loop
      vertex 20.0152 68.3636 2
      vertex 19.6733 68.561 0
      vertex 20.0152 68.3636 0
    endloop
  endfacet
  facet normal -0.686289 -0.727329 0
    outer loop
      vertex 20.0152 68.3636 0
      vertex 20.3023 68.0927 2
      vertex 20.0152 68.3636 2
    endloop
  endfacet
  facet normal -0.686289 -0.727329 -0
    outer loop
      vertex 20.3023 68.0927 2
      vertex 20.0152 68.3636 0
      vertex 20.3023 68.0927 0
    endloop
  endfacet
  facet normal 0.893615 0.448834 0
    outer loop
      vertex 17.5797 66.0658 2
      vertex 17.4025 66.4186 0
      vertex 17.4025 66.4186 2
    endloop
  endfacet
  facet normal 0.893615 0.448834 0
    outer loop
      vertex 17.4025 66.4186 0
      vertex 17.5797 66.0658 2
      vertex 17.5797 66.0658 0
    endloop
  endfacet
  facet normal -0.500007 0.866021 0
    outer loop
      vertex 20.0152 65.6364 0
      vertex 19.6733 65.439 2
      vertex 20.0152 65.6364 2
    endloop
  endfacet
  facet normal -0.500007 0.866021 0
    outer loop
      vertex 19.6733 65.439 2
      vertex 20.0152 65.6364 0
      vertex 19.6733 65.439 0
    endloop
  endfacet
  facet normal 0.597159 -0.802123 0
    outer loop
      vertex 17.8334 68.2365 0
      vertex 18.15 68.4722 2
      vertex 17.8334 68.2365 2
    endloop
  endfacet
  facet normal 0.597159 -0.802123 0
    outer loop
      vertex 18.15 68.4722 2
      vertex 17.8334 68.2365 0
      vertex 18.15 68.4722 0
    endloop
  endfacet
  facet normal 0.97305 0.230593 0
    outer loop
      vertex 17.4025 66.4186 2
      vertex 17.3115 66.8026 0
      vertex 17.3115 66.8026 2
    endloop
  endfacet
  facet normal 0.97305 0.230593 0
    outer loop
      vertex 17.3115 66.8026 0
      vertex 17.4025 66.4186 2
      vertex 17.4025 66.4186 0
    endloop
  endfacet
  facet normal 0.97305 -0.230593 0
    outer loop
      vertex 17.3115 67.1974 2
      vertex 17.4025 67.5814 0
      vertex 17.4025 67.5814 2
    endloop
  endfacet
  facet normal 0.97305 -0.230593 0
    outer loop
      vertex 17.4025 67.5814 0
      vertex 17.3115 67.1974 2
      vertex 17.3115 67.1974 0
    endloop
  endfacet
  facet normal 0.396242 0.918146 -0
    outer loop
      vertex 18.5124 65.3714 0
      vertex 18.15 65.5278 2
      vertex 18.5124 65.3714 2
    endloop
  endfacet
  facet normal 0.396242 0.918146 0
    outer loop
      vertex 18.15 65.5278 2
      vertex 18.5124 65.3714 0
      vertex 18.15 65.5278 0
    endloop
  endfacet
  facet normal -1 0 0
    outer loop
      vertex 91 31.5 0
      vertex 91 55.5 2
      vertex 91 55.5 0
    endloop
  endfacet
  facet normal -1 -0 0
    outer loop
      vertex 91 55.5 2
      vertex 91 31.5 0
      vertex 91 31.5 2
    endloop
  endfacet
  facet normal 1 -0 0
    outer loop
      vertex 79 31.5 2
      vertex 79 55.5 0
      vertex 79 55.5 2
    endloop
  endfacet
  facet normal 1 0 0
    outer loop
      vertex 79 55.5 0
      vertex 79 31.5 2
      vertex 79 31.5 0
    endloop
  endfacet
  facet normal 0 -1 0
    outer loop
      vertex 79 55.5 0
      vertex 91 55.5 2
      vertex 79 55.5 2
    endloop
  endfacet
  facet normal 0 -1 -0
    outer loop
      vertex 91 55.5 2
      vertex 79 55.5 0
      vertex 91 55.5 0
    endloop
  endfacet
  facet normal 0 1 -0
    outer loop
      vertex 91 31.5 0
      vertex 79 31.5 2
      vertex 91 31.5 2
    endloop
  endfacet
  facet normal 0 1 0
    outer loop
      vertex 79 31.5 2
      vertex 91 31.5 0
      vertex 79 31.5 0
    endloop
  endfacet
endsolid OpenSCAD_Model
