solid OpenSCAD_Model
  facet normal 1 0 0
    outer loop
      vertex 25.2 3 25.2
      vertex 25.2 0 25.2
      vertex 25.2 3 3
    endloop
  endfacet
  facet normal 1 -0 0
    outer loop
      vertex 25.2 3 3
      vertex 25.2 25.2 0
      vertex 25.2 25.2 3
    endloop
  endfacet
  facet normal 1 0 0
    outer loop
      vertex 25.2 3 3
      vertex 25.2 0 0
      vertex 25.2 25.2 0
    endloop
  endfacet
  facet normal 1 0 0
    outer loop
      vertex 25.2 0 0
      vertex 25.2 3 3
      vertex 25.2 0 25.2
    endloop
  endfacet
  facet normal -0 0 1
    outer loop
      vertex 14.8669 12.9887 3
      vertex 25.2 3 3
      vertex 25.2 25.2 3
    endloop
  endfacet
  facet normal 0 0 1
    outer loop
      vertex 25.2 3 3
      vertex 14.8669 12.9887 3
      vertex 14.9 12.6 3
    endloop
  endfacet
  facet normal 0 0 1
    outer loop
      vertex 25.2 25.2 3
      vertex 14.7686 13.3662 3
      vertex 14.8669 12.9887 3
    endloop
  endfacet
  facet normal 0 0 1
    outer loop
      vertex 25.2 25.2 3
      vertex 14.6079 13.7217 3
      vertex 14.7686 13.3662 3
    endloop
  endfacet
  facet normal 0 0 1
    outer loop
      vertex 25.2 25.2 3
      vertex 14.3895 14.0449 3
      vertex 14.6079 13.7217 3
    endloop
  endfacet
  facet normal 0 0 1
    outer loop
      vertex 25.2 25.2 3
      vertex 14.1196 14.3265 3
      vertex 14.3895 14.0449 3
    endloop
  endfacet
  facet normal 0 0 1
    outer loop
      vertex 25.2 25.2 3
      vertex 13.8059 14.5585 3
      vertex 14.1196 14.3265 3
    endloop
  endfacet
  facet normal 0 0 1
    outer loop
      vertex 25.2 25.2 3
      vertex 13.4576 14.7341 3
      vertex 13.8059 14.5585 3
    endloop
  endfacet
  facet normal 0 0 1
    outer loop
      vertex 25.2 25.2 3
      vertex 13.0846 14.8484 3
      vertex 13.4576 14.7341 3
    endloop
  endfacet
  facet normal 0 0 1
    outer loop
      vertex 25.2 25.2 3
      vertex 12.6976 14.8979 3
      vertex 13.0846 14.8484 3
    endloop
  endfacet
  facet normal -0 0 1
    outer loop
      vertex 3 25.2 3
      vertex 12.6976 14.8979 3
      vertex 25.2 25.2 3
    endloop
  endfacet
  facet normal 0 0 1
    outer loop
      vertex 12.6976 14.8979 3
      vertex 3 25.2 3
      vertex 12.3079 14.8814 3
    endloop
  endfacet
  facet normal 0 0 1
    outer loop
      vertex 12.3079 14.8814 3
      vertex 3 25.2 3
      vertex 11.9265 14.7992 3
    endloop
  endfacet
  facet normal 0 0 1
    outer loop
      vertex 11.9265 14.7992 3
      vertex 3 25.2 3
      vertex 11.5645 14.6537 3
    endloop
  endfacet
  facet normal 0 0 1
    outer loop
      vertex 3 3 3
      vertex 10.3083 12.7951 3
      vertex 3 25.2 3
    endloop
  endfacet
  facet normal 0 0 1
    outer loop
      vertex 10.3742 13.1795 3
      vertex 3 25.2 3
      vertex 10.3083 12.7951 3
    endloop
  endfacet
  facet normal 0 0 1
    outer loop
      vertex 10.5042 13.5474 3
      vertex 3 25.2 3
      vertex 10.3742 13.1795 3
    endloop
  endfacet
  facet normal 0 0 1
    outer loop
      vertex 10.6944 13.8879 3
      vertex 3 25.2 3
      vertex 10.5042 13.5474 3
    endloop
  endfacet
  facet normal 0 0 1
    outer loop
      vertex 10.9395 14.1915 3
      vertex 3 25.2 3
      vertex 10.6944 13.8879 3
    endloop
  endfacet
  facet normal 0 0 1
    outer loop
      vertex 11.2323 14.4492 3
      vertex 3 25.2 3
      vertex 10.9395 14.1915 3
    endloop
  endfacet
  facet normal 0 0 1
    outer loop
      vertex 11.5645 14.6537 3
      vertex 3 25.2 3
      vertex 11.2323 14.4492 3
    endloop
  endfacet
  facet normal -0 0 1
    outer loop
      vertex 14.8669 12.2113 3
      vertex 25.2 3 3
      vertex 14.9 12.6 3
    endloop
  endfacet
  facet normal -0 0 1
    outer loop
      vertex 14.7686 11.8338 3
      vertex 25.2 3 3
      vertex 14.8669 12.2113 3
    endloop
  endfacet
  facet normal -0 0 1
    outer loop
      vertex 14.6079 11.4783 3
      vertex 25.2 3 3
      vertex 14.7686 11.8338 3
    endloop
  endfacet
  facet normal -0 0 1
    outer loop
      vertex 14.3895 11.1551 3
      vertex 25.2 3 3
      vertex 14.6079 11.4783 3
    endloop
  endfacet
  facet normal -0 0 1
    outer loop
      vertex 14.1196 10.8735 3
      vertex 25.2 3 3
      vertex 14.3895 11.1551 3
    endloop
  endfacet
  facet normal -0 0 1
    outer loop
      vertex 13.8059 10.6415 3
      vertex 25.2 3 3
      vertex 14.1196 10.8735 3
    endloop
  endfacet
  facet normal -0 0 1
    outer loop
      vertex 13.4576 10.4659 3
      vertex 25.2 3 3
      vertex 13.8059 10.6415 3
    endloop
  endfacet
  facet normal -0 0 1
    outer loop
      vertex 13.0846 10.3516 3
      vertex 25.2 3 3
      vertex 13.4576 10.4659 3
    endloop
  endfacet
  facet normal -0 0 1
    outer loop
      vertex 12.6976 10.3021 3
      vertex 25.2 3 3
      vertex 13.0846 10.3516 3
    endloop
  endfacet
  facet normal 0 0 1
    outer loop
      vertex 3 3 3
      vertex 12.6976 10.3021 3
      vertex 12.3079 10.3186 3
    endloop
  endfacet
  facet normal 0 0 1
    outer loop
      vertex 3 3 3
      vertex 12.3079 10.3186 3
      vertex 11.9265 10.4008 3
    endloop
  endfacet
  facet normal 0 0 1
    outer loop
      vertex 3 3 3
      vertex 11.9265 10.4008 3
      vertex 11.5645 10.5463 3
    endloop
  endfacet
  facet normal 0 0 1
    outer loop
      vertex 10.3083 12.7951 3
      vertex 3 3 3
      vertex 10.3083 12.4049 3
    endloop
  endfacet
  facet normal 0 0 1
    outer loop
      vertex 10.3083 12.4049 3
      vertex 3 3 3
      vertex 10.3742 12.0204 3
    endloop
  endfacet
  facet normal 0 0 1
    outer loop
      vertex 12.6976 10.3021 3
      vertex 3 3 3
      vertex 25.2 3 3
    endloop
  endfacet
  facet normal 0 0 1
    outer loop
      vertex 11.2323 10.7508 3
      vertex 3 3 3
      vertex 11.5645 10.5463 3
    endloop
  endfacet
  facet normal 0 0 1
    outer loop
      vertex 10.9395 11.0085 3
      vertex 3 3 3
      vertex 11.2323 10.7508 3
    endloop
  endfacet
  facet normal 0 0 1
    outer loop
      vertex 10.6944 11.3121 3
      vertex 3 3 3
      vertex 10.9395 11.0085 3
    endloop
  endfacet
  facet normal 0 0 1
    outer loop
      vertex 10.5042 11.6526 3
      vertex 3 3 3
      vertex 10.6944 11.3121 3
    endloop
  endfacet
  facet normal 0 0 1
    outer loop
      vertex 10.3742 12.0204 3
      vertex 3 3 3
      vertex 10.5042 11.6526 3
    endloop
  endfacet
  facet normal 0 0 -1
    outer loop
      vertex 25.2 0 0
      vertex 14.9 12.6 0
      vertex 25.2 25.2 0
    endloop
  endfacet
  facet normal 0 0 -1
    outer loop
      vertex 25.2 0 0
      vertex 14.8669 12.2113 0
      vertex 14.9 12.6 0
    endloop
  endfacet
  facet normal 0 0 -1
    outer loop
      vertex 25.2 0 0
      vertex 14.7686 11.8338 0
      vertex 14.8669 12.2113 0
    endloop
  endfacet
  facet normal 0 0 -1
    outer loop
      vertex 25.2 0 0
      vertex 14.6079 11.4783 0
      vertex 14.7686 11.8338 0
    endloop
  endfacet
  facet normal 0 0 -1
    outer loop
      vertex 25.2 0 0
      vertex 14.3895 11.1551 0
      vertex 14.6079 11.4783 0
    endloop
  endfacet
  facet normal 0 0 -1
    outer loop
      vertex 25.2 0 0
      vertex 14.1196 10.8735 0
      vertex 14.3895 11.1551 0
    endloop
  endfacet
  facet normal 0 0 -1
    outer loop
      vertex 25.2 0 0
      vertex 13.8059 10.6415 0
      vertex 14.1196 10.8735 0
    endloop
  endfacet
  facet normal 0 0 -1
    outer loop
      vertex 25.2 0 0
      vertex 13.4576 10.4659 0
      vertex 13.8059 10.6415 0
    endloop
  endfacet
  facet normal 0 0 -1
    outer loop
      vertex 25.2 0 0
      vertex 13.0846 10.3516 0
      vertex 13.4576 10.4659 0
    endloop
  endfacet
  facet normal 0 0 -1
    outer loop
      vertex 25.2 0 0
      vertex 12.6976 10.3021 0
      vertex 13.0846 10.3516 0
    endloop
  endfacet
  facet normal 0 0 -1
    outer loop
      vertex 0 0 0
      vertex 12.6976 10.3021 0
      vertex 25.2 0 0
    endloop
  endfacet
  facet normal -0 0 -1
    outer loop
      vertex 12.6976 10.3021 0
      vertex 0 0 0
      vertex 12.3079 10.3186 0
    endloop
  endfacet
  facet normal -0 0 -1
    outer loop
      vertex 12.3079 10.3186 0
      vertex 0 0 0
      vertex 11.9265 10.4008 0
    endloop
  endfacet
  facet normal -0 0 -1
    outer loop
      vertex 11.9265 10.4008 0
      vertex 0 0 0
      vertex 11.5645 10.5463 0
    endloop
  endfacet
  facet normal -0 0 -1
    outer loop
      vertex 10.3083 12.4049 0
      vertex 0 0 0
      vertex 10.3083 12.7951 0
    endloop
  endfacet
  facet normal -0 0 -1
    outer loop
      vertex 10.3742 12.0204 0
      vertex 0 0 0
      vertex 10.3083 12.4049 0
    endloop
  endfacet
  facet normal -0 0 -1
    outer loop
      vertex 10.5042 11.6526 0
      vertex 0 0 0
      vertex 10.3742 12.0204 0
    endloop
  endfacet
  facet normal -0 0 -1
    outer loop
      vertex 10.6944 11.3121 0
      vertex 0 0 0
      vertex 10.5042 11.6526 0
    endloop
  endfacet
  facet normal -0 0 -1
    outer loop
      vertex 10.9395 11.0085 0
      vertex 0 0 0
      vertex 10.6944 11.3121 0
    endloop
  endfacet
  facet normal -0 0 -1
    outer loop
      vertex 11.2323 10.7508 0
      vertex 0 0 0
      vertex 10.9395 11.0085 0
    endloop
  endfacet
  facet normal -0 0 -1
    outer loop
      vertex 11.5645 10.5463 0
      vertex 0 0 0
      vertex 11.2323 10.7508 0
    endloop
  endfacet
  facet normal 0 0 -1
    outer loop
      vertex 14.8669 12.9887 0
      vertex 25.2 25.2 0
      vertex 14.9 12.6 0
    endloop
  endfacet
  facet normal 0 0 -1
    outer loop
      vertex 14.7686 13.3662 0
      vertex 25.2 25.2 0
      vertex 14.8669 12.9887 0
    endloop
  endfacet
  facet normal 0 0 -1
    outer loop
      vertex 14.6079 13.7217 0
      vertex 25.2 25.2 0
      vertex 14.7686 13.3662 0
    endloop
  endfacet
  facet normal 0 0 -1
    outer loop
      vertex 14.3895 14.0449 0
      vertex 25.2 25.2 0
      vertex 14.6079 13.7217 0
    endloop
  endfacet
  facet normal 0 0 -1
    outer loop
      vertex 14.1196 14.3265 0
      vertex 25.2 25.2 0
      vertex 14.3895 14.0449 0
    endloop
  endfacet
  facet normal 0 0 -1
    outer loop
      vertex 13.8059 14.5585 0
      vertex 25.2 25.2 0
      vertex 14.1196 14.3265 0
    endloop
  endfacet
  facet normal 0 0 -1
    outer loop
      vertex 13.4576 14.7341 0
      vertex 25.2 25.2 0
      vertex 13.8059 14.5585 0
    endloop
  endfacet
  facet normal 0 0 -1
    outer loop
      vertex 13.0846 14.8484 0
      vertex 25.2 25.2 0
      vertex 13.4576 14.7341 0
    endloop
  endfacet
  facet normal 0 0 -1
    outer loop
      vertex 12.6976 14.8979 0
      vertex 25.2 25.2 0
      vertex 13.0846 14.8484 0
    endloop
  endfacet
  facet normal 0 0 -1
    outer loop
      vertex 0 25.2 0
      vertex 12.6976 14.8979 0
      vertex 12.3079 14.8814 0
    endloop
  endfacet
  facet normal 0 0 -1
    outer loop
      vertex 0 25.2 0
      vertex 12.3079 14.8814 0
      vertex 11.9265 14.7992 0
    endloop
  endfacet
  facet normal 0 0 -1
    outer loop
      vertex 0 25.2 0
      vertex 11.9265 14.7992 0
      vertex 11.5645 14.6537 0
    endloop
  endfacet
  facet normal 0 0 -1
    outer loop
      vertex 0 25.2 0
      vertex 11.5645 14.6537 0
      vertex 11.2323 14.4492 0
    endloop
  endfacet
  facet normal 0 0 -1
    outer loop
      vertex 0 25.2 0
      vertex 10.3083 12.7951 0
      vertex 0 0 0
    endloop
  endfacet
  facet normal 0 0 -1
    outer loop
      vertex 10.3083 12.7951 0
      vertex 0 25.2 0
      vertex 10.3742 13.1795 0
    endloop
  endfacet
  facet normal 0 0 -1
    outer loop
      vertex 10.3742 13.1795 0
      vertex 0 25.2 0
      vertex 10.5042 13.5474 0
    endloop
  endfacet
  facet normal 0 0 -1
    outer loop
      vertex 12.6976 14.8979 0
      vertex 0 25.2 0
      vertex 25.2 25.2 0
    endloop
  endfacet
  facet normal 0 0 -1
    outer loop
      vertex 10.9395 14.1915 0
      vertex 0 25.2 0
      vertex 11.2323 14.4492 0
    endloop
  endfacet
  facet normal 0 0 -1
    outer loop
      vertex 10.6944 13.8879 0
      vertex 0 25.2 0
      vertex 10.9395 14.1915 0
    endloop
  endfacet
  facet normal 0 0 -1
    outer loop
      vertex 10.5042 13.5474 0
      vertex 0 25.2 0
      vertex 10.6944 13.8879 0
    endloop
  endfacet
  facet normal -1 0 0
    outer loop
      vertex 0 25.2 0
      vertex 0 14.8979 12.6976
      vertex 0 25.2 25.2
    endloop
  endfacet
  facet normal -1 0 0
    outer loop
      vertex 0 25.2 0
      vertex 0 14.8814 12.3079
      vertex 0 14.8979 12.6976
    endloop
  endfacet
  facet normal -1 0 0
    outer loop
      vertex 0 25.2 0
      vertex 0 14.7992 11.9265
      vertex 0 14.8814 12.3079
    endloop
  endfacet
  facet normal -1 0 0
    outer loop
      vertex 0 25.2 0
      vertex 0 14.6537 11.5645
      vertex 0 14.7992 11.9265
    endloop
  endfacet
  facet normal -1 0 0
    outer loop
      vertex 0 25.2 0
      vertex 0 14.4492 11.2323
      vertex 0 14.6537 11.5645
    endloop
  endfacet
  facet normal -1 0 0
    outer loop
      vertex 0 25.2 0
      vertex 0 14.1915 10.9395
      vertex 0 14.4492 11.2323
    endloop
  endfacet
  facet normal -1 0 0
    outer loop
      vertex 0 25.2 0
      vertex 0 13.8879 10.6944
      vertex 0 14.1915 10.9395
    endloop
  endfacet
  facet normal -1 0 0
    outer loop
      vertex 0 25.2 0
      vertex 0 13.5474 10.5042
      vertex 0 13.8879 10.6944
    endloop
  endfacet
  facet normal -1 0 0
    outer loop
      vertex 0 25.2 0
      vertex 0 13.1795 10.3742
      vertex 0 13.5474 10.5042
    endloop
  endfacet
  facet normal -1 0 0
    outer loop
      vertex 0 25.2 0
      vertex 0 12.7951 10.3083
      vertex 0 13.1795 10.3742
    endloop
  endfacet
  facet normal -1 0 0
    outer loop
      vertex 0 25.2 0
      vertex 0 12.4049 10.3083
      vertex 0 12.7951 10.3083
    endloop
  endfacet
  facet normal -1 0 0
    outer loop
      vertex 0 0 0
      vertex 0 12.4049 10.3083
      vertex 0 25.2 0
    endloop
  endfacet
  facet normal -1 -0 0
    outer loop
      vertex 0 12.4049 10.3083
      vertex 0 0 0
      vertex 0 12.0204 10.3742
    endloop
  endfacet
  facet normal -1 -0 0
    outer loop
      vertex 0 12.0204 10.3742
      vertex 0 0 0
      vertex 0 11.6526 10.5042
    endloop
  endfacet
  facet normal -1 -0 0
    outer loop
      vertex 0 10.3186 12.3079
      vertex 0 0 0
      vertex 0 10.3021 12.6976
    endloop
  endfacet
  facet normal -1 -0 0
    outer loop
      vertex 0 10.4008 11.9265
      vertex 0 0 0
      vertex 0 10.3186 12.3079
    endloop
  endfacet
  facet normal -1 -0 0
    outer loop
      vertex 0 10.5463 11.5645
      vertex 0 0 0
      vertex 0 10.4008 11.9265
    endloop
  endfacet
  facet normal -1 -0 0
    outer loop
      vertex 0 10.7508 11.2323
      vertex 0 0 0
      vertex 0 10.5463 11.5645
    endloop
  endfacet
  facet normal -1 -0 0
    outer loop
      vertex 0 11.0085 10.9395
      vertex 0 0 0
      vertex 0 10.7508 11.2323
    endloop
  endfacet
  facet normal -1 -0 0
    outer loop
      vertex 0 11.3121 10.6944
      vertex 0 0 0
      vertex 0 11.0085 10.9395
    endloop
  endfacet
  facet normal -1 -0 0
    outer loop
      vertex 0 11.6526 10.5042
      vertex 0 0 0
      vertex 0 11.3121 10.6944
    endloop
  endfacet
  facet normal -1 0 0
    outer loop
      vertex 0 14.8484 13.0846
      vertex 0 25.2 25.2
      vertex 0 14.8979 12.6976
    endloop
  endfacet
  facet normal -1 0 0
    outer loop
      vertex 0 14.7341 13.4576
      vertex 0 25.2 25.2
      vertex 0 14.8484 13.0846
    endloop
  endfacet
  facet normal -1 0 0
    outer loop
      vertex 0 14.5585 13.8059
      vertex 0 25.2 25.2
      vertex 0 14.7341 13.4576
    endloop
  endfacet
  facet normal -1 0 0
    outer loop
      vertex 0 14.3265 14.1196
      vertex 0 25.2 25.2
      vertex 0 14.5585 13.8059
    endloop
  endfacet
  facet normal -1 0 0
    outer loop
      vertex 0 14.0449 14.3895
      vertex 0 25.2 25.2
      vertex 0 14.3265 14.1196
    endloop
  endfacet
  facet normal -1 0 0
    outer loop
      vertex 0 13.7217 14.6079
      vertex 0 25.2 25.2
      vertex 0 14.0449 14.3895
    endloop
  endfacet
  facet normal -1 0 0
    outer loop
      vertex 0 13.3662 14.7686
      vertex 0 25.2 25.2
      vertex 0 13.7217 14.6079
    endloop
  endfacet
  facet normal -1 0 0
    outer loop
      vertex 0 12.9887 14.8669
      vertex 0 25.2 25.2
      vertex 0 13.3662 14.7686
    endloop
  endfacet
  facet normal -1 0 0
    outer loop
      vertex 0 12.6 14.9
      vertex 0 25.2 25.2
      vertex 0 12.9887 14.8669
    endloop
  endfacet
  facet normal -1 0 0
    outer loop
      vertex 0 0 25.2
      vertex 0 12.6 14.9
      vertex 0 12.2113 14.8669
    endloop
  endfacet
  facet normal -1 0 0
    outer loop
      vertex 0 0 25.2
      vertex 0 12.2113 14.8669
      vertex 0 11.8338 14.7686
    endloop
  endfacet
  facet normal -1 0 0
    outer loop
      vertex 0 0 25.2
      vertex 0 11.8338 14.7686
      vertex 0 11.4783 14.6079
    endloop
  endfacet
  facet normal -1 0 0
    outer loop
      vertex 0 0 25.2
      vertex 0 11.4783 14.6079
      vertex 0 11.1551 14.3895
    endloop
  endfacet
  facet normal -1 0 0
    outer loop
      vertex 0 0 25.2
      vertex 0 10.3021 12.6976
      vertex 0 0 0
    endloop
  endfacet
  facet normal -1 0 0
    outer loop
      vertex 0 10.3021 12.6976
      vertex 0 0 25.2
      vertex 0 10.3516 13.0846
    endloop
  endfacet
  facet normal -1 0 0
    outer loop
      vertex 0 10.3516 13.0846
      vertex 0 0 25.2
      vertex 0 10.4659 13.4576
    endloop
  endfacet
  facet normal -1 0 0
    outer loop
      vertex 0 10.4659 13.4576
      vertex 0 0 25.2
      vertex 0 10.6415 13.8059
    endloop
  endfacet
  facet normal -1 0 0
    outer loop
      vertex 0 12.6 14.9
      vertex 0 0 25.2
      vertex 0 25.2 25.2
    endloop
  endfacet
  facet normal -1 0 0
    outer loop
      vertex 0 10.8735 14.1196
      vertex 0 0 25.2
      vertex 0 11.1551 14.3895
    endloop
  endfacet
  facet normal -1 0 0
    outer loop
      vertex 0 10.6415 13.8059
      vertex 0 0 25.2
      vertex 0 10.8735 14.1196
    endloop
  endfacet
  facet normal 0 1 0
    outer loop
      vertex 25.2 25.2 3
      vertex 25.2 25.2 0
      vertex 3 25.2 3
    endloop
  endfacet
  facet normal 0 1 -0
    outer loop
      vertex 3 25.2 3
      vertex 0 25.2 25.2
      vertex 3 25.2 25.2
    endloop
  endfacet
  facet normal 0 1 0
    outer loop
      vertex 3 25.2 3
      vertex 0 25.2 0
      vertex 0 25.2 25.2
    endloop
  endfacet
  facet normal 0 1 0
    outer loop
      vertex 0 25.2 0
      vertex 3 25.2 3
      vertex 25.2 25.2 0
    endloop
  endfacet
  facet normal 0 -1 0
    outer loop
      vertex 0 0 25.2
      vertex 12.6 0 14.9
      vertex 25.2 0 25.2
    endloop
  endfacet
  facet normal 0 -1 0
    outer loop
      vertex 0 0 25.2
      vertex 12.2113 0 14.8669
      vertex 12.6 0 14.9
    endloop
  endfacet
  facet normal 0 -1 0
    outer loop
      vertex 0 0 25.2
      vertex 11.8338 0 14.7686
      vertex 12.2113 0 14.8669
    endloop
  endfacet
  facet normal 0 -1 0
    outer loop
      vertex 0 0 25.2
      vertex 11.4783 0 14.6079
      vertex 11.8338 0 14.7686
    endloop
  endfacet
  facet normal 0 -1 0
    outer loop
      vertex 0 0 25.2
      vertex 11.1551 0 14.3895
      vertex 11.4783 0 14.6079
    endloop
  endfacet
  facet normal 0 -1 0
    outer loop
      vertex 0 0 25.2
      vertex 10.8735 0 14.1196
      vertex 11.1551 0 14.3895
    endloop
  endfacet
  facet normal 0 -1 0
    outer loop
      vertex 0 0 25.2
      vertex 10.6415 0 13.8059
      vertex 10.8735 0 14.1196
    endloop
  endfacet
  facet normal 0 -1 0
    outer loop
      vertex 0 0 25.2
      vertex 10.4659 0 13.4576
      vertex 10.6415 0 13.8059
    endloop
  endfacet
  facet normal 0 -1 0
    outer loop
      vertex 0 0 25.2
      vertex 10.3516 0 13.0846
      vertex 10.4659 0 13.4576
    endloop
  endfacet
  facet normal 0 -1 0
    outer loop
      vertex 0 0 25.2
      vertex 10.3021 0 12.6976
      vertex 10.3516 0 13.0846
    endloop
  endfacet
  facet normal 0 -1 0
    outer loop
      vertex 0 0 0
      vertex 10.3021 0 12.6976
      vertex 0 0 25.2
    endloop
  endfacet
  facet normal 0 -1 -0
    outer loop
      vertex 10.3021 0 12.6976
      vertex 0 0 0
      vertex 10.3186 0 12.3079
    endloop
  endfacet
  facet normal 0 -1 -0
    outer loop
      vertex 10.3186 0 12.3079
      vertex 0 0 0
      vertex 10.4008 0 11.9265
    endloop
  endfacet
  facet normal 0 -1 -0
    outer loop
      vertex 10.4008 0 11.9265
      vertex 0 0 0
      vertex 10.5463 0 11.5645
    endloop
  endfacet
  facet normal 0 -1 -0
    outer loop
      vertex 12.4049 0 10.3083
      vertex 0 0 0
      vertex 12.7951 0 10.3083
    endloop
  endfacet
  facet normal 0 -1 -0
    outer loop
      vertex 12.0204 0 10.3742
      vertex 0 0 0
      vertex 12.4049 0 10.3083
    endloop
  endfacet
  facet normal 0 -1 -0
    outer loop
      vertex 11.6526 0 10.5042
      vertex 0 0 0
      vertex 12.0204 0 10.3742
    endloop
  endfacet
  facet normal 0 -1 -0
    outer loop
      vertex 11.3121 0 10.6944
      vertex 0 0 0
      vertex 11.6526 0 10.5042
    endloop
  endfacet
  facet normal 0 -1 -0
    outer loop
      vertex 11.0085 0 10.9395
      vertex 0 0 0
      vertex 11.3121 0 10.6944
    endloop
  endfacet
  facet normal 0 -1 -0
    outer loop
      vertex 10.7508 0 11.2323
      vertex 0 0 0
      vertex 11.0085 0 10.9395
    endloop
  endfacet
  facet normal 0 -1 -0
    outer loop
      vertex 10.5463 0 11.5645
      vertex 0 0 0
      vertex 10.7508 0 11.2323
    endloop
  endfacet
  facet normal 0 -1 0
    outer loop
      vertex 12.9887 0 14.8669
      vertex 25.2 0 25.2
      vertex 12.6 0 14.9
    endloop
  endfacet
  facet normal 0 -1 0
    outer loop
      vertex 13.3662 0 14.7686
      vertex 25.2 0 25.2
      vertex 12.9887 0 14.8669
    endloop
  endfacet
  facet normal 0 -1 0
    outer loop
      vertex 13.7217 0 14.6079
      vertex 25.2 0 25.2
      vertex 13.3662 0 14.7686
    endloop
  endfacet
  facet normal 0 -1 0
    outer loop
      vertex 14.0449 0 14.3895
      vertex 25.2 0 25.2
      vertex 13.7217 0 14.6079
    endloop
  endfacet
  facet normal 0 -1 0
    outer loop
      vertex 14.3265 0 14.1196
      vertex 25.2 0 25.2
      vertex 14.0449 0 14.3895
    endloop
  endfacet
  facet normal 0 -1 0
    outer loop
      vertex 14.5585 0 13.8059
      vertex 25.2 0 25.2
      vertex 14.3265 0 14.1196
    endloop
  endfacet
  facet normal 0 -1 0
    outer loop
      vertex 14.7341 0 13.4576
      vertex 25.2 0 25.2
      vertex 14.5585 0 13.8059
    endloop
  endfacet
  facet normal 0 -1 0
    outer loop
      vertex 14.8484 0 13.0846
      vertex 25.2 0 25.2
      vertex 14.7341 0 13.4576
    endloop
  endfacet
  facet normal 0 -1 0
    outer loop
      vertex 14.8979 0 12.6976
      vertex 25.2 0 25.2
      vertex 14.8484 0 13.0846
    endloop
  endfacet
  facet normal 0 -1 0
    outer loop
      vertex 25.2 0 0
      vertex 14.8979 0 12.6976
      vertex 14.8814 0 12.3079
    endloop
  endfacet
  facet normal 0 -1 0
    outer loop
      vertex 25.2 0 0
      vertex 14.8814 0 12.3079
      vertex 14.7992 0 11.9265
    endloop
  endfacet
  facet normal 0 -1 0
    outer loop
      vertex 25.2 0 0
      vertex 14.7992 0 11.9265
      vertex 14.6537 0 11.5645
    endloop
  endfacet
  facet normal 0 -1 0
    outer loop
      vertex 25.2 0 0
      vertex 14.6537 0 11.5645
      vertex 14.4492 0 11.2323
    endloop
  endfacet
  facet normal 0 -1 0
    outer loop
      vertex 25.2 0 0
      vertex 12.7951 0 10.3083
      vertex 0 0 0
    endloop
  endfacet
  facet normal 0 -1 0
    outer loop
      vertex 12.7951 0 10.3083
      vertex 25.2 0 0
      vertex 13.1795 0 10.3742
    endloop
  endfacet
  facet normal 0 -1 0
    outer loop
      vertex 13.1795 0 10.3742
      vertex 25.2 0 0
      vertex 13.5474 0 10.5042
    endloop
  endfacet
  facet normal 0 -1 0
    outer loop
      vertex 14.8979 0 12.6976
      vertex 25.2 0 0
      vertex 25.2 0 25.2
    endloop
  endfacet
  facet normal 0 -1 0
    outer loop
      vertex 14.1915 0 10.9395
      vertex 25.2 0 0
      vertex 14.4492 0 11.2323
    endloop
  endfacet
  facet normal 0 -1 0
    outer loop
      vertex 13.8879 0 10.6944
      vertex 25.2 0 0
      vertex 14.1915 0 10.9395
    endloop
  endfacet
  facet normal 0 -1 0
    outer loop
      vertex 13.5474 0 10.5042
      vertex 25.2 0 0
      vertex 13.8879 0 10.6944
    endloop
  endfacet
  facet normal 0.985621 -0.168971 0
    outer loop
      vertex 10.3083 12.7951 3
      vertex 10.3742 13.1795 0
      vertex 10.3742 13.1795 3
    endloop
  endfacet
  facet normal 0.985621 -0.168971 0
    outer loop
      vertex 10.3742 13.1795 0
      vertex 10.3083 12.7951 3
      vertex 10.3083 12.7951 0
    endloop
  endfacet
  facet normal -0.967729 -0.251994 0
    outer loop
      vertex 14.8669 12.9887 0
      vertex 14.7686 13.3662 3
      vertex 14.7686 13.3662 0
    endloop
  endfacet
  facet normal -0.967729 -0.251994 0
    outer loop
      vertex 14.7686 13.3662 3
      vertex 14.8669 12.9887 0
      vertex 14.8669 12.9887 3
    endloop
  endfacet
  facet normal -0.996394 -0.0848486 0
    outer loop
      vertex 14.9 12.6 0
      vertex 14.8669 12.9887 3
      vertex 14.8669 12.9887 0
    endloop
  endfacet
  facet normal -0.996394 -0.0848486 0
    outer loop
      vertex 14.8669 12.9887 3
      vertex 14.9 12.6 0
      vertex 14.9 12.6 3
    endloop
  endfacet
  facet normal -0.911225 -0.411909 0
    outer loop
      vertex 14.7686 13.3662 0
      vertex 14.6079 13.7217 3
      vertex 14.6079 13.7217 0
    endloop
  endfacet
  facet normal -0.911225 -0.411909 0
    outer loop
      vertex 14.6079 13.7217 3
      vertex 14.7686 13.3662 0
      vertex 14.7686 13.3662 3
    endloop
  endfacet
  facet normal -0.594614 0.804011 0
    outer loop
      vertex 14.1196 10.8735 0
      vertex 13.8059 10.6415 3
      vertex 14.1196 10.8735 3
    endloop
  endfacet
  facet normal -0.594614 0.804011 0
    outer loop
      vertex 13.8059 10.6415 3
      vertex 14.1196 10.8735 0
      vertex 13.8059 10.6415 0
    endloop
  endfacet
  facet normal 0.0423024 0.999105 -0
    outer loop
      vertex 12.6976 10.3021 0
      vertex 12.3079 10.3186 3
      vertex 12.6976 10.3021 3
    endloop
  endfacet
  facet normal 0.0423024 0.999105 0
    outer loop
      vertex 12.3079 10.3186 3
      vertex 12.6976 10.3021 0
      vertex 12.3079 10.3186 0
    endloop
  endfacet
  facet normal -0.450185 0.892935 0
    outer loop
      vertex 13.8059 10.6415 0
      vertex 13.4576 10.4659 3
      vertex 13.8059 10.6415 3
    endloop
  endfacet
  facet normal -0.450185 0.892935 0
    outer loop
      vertex 13.4576 10.4659 3
      vertex 13.8059 10.6415 0
      vertex 13.4576 10.4659 0
    endloop
  endfacet
  facet normal 0.372937 -0.927857 0
    outer loop
      vertex 11.5645 14.6537 0
      vertex 11.9265 14.7992 3
      vertex 11.5645 14.6537 3
    endloop
  endfacet
  facet normal 0.372937 -0.927857 0
    outer loop
      vertex 11.9265 14.7992 3
      vertex 11.5645 14.6537 0
      vertex 11.9265 14.7992 0
    endloop
  endfacet
  facet normal 0.524226 -0.851579 0
    outer loop
      vertex 11.2323 14.4492 0
      vertex 11.5645 14.6537 3
      vertex 11.2323 14.4492 3
    endloop
  endfacet
  facet normal 0.524226 -0.851579 0
    outer loop
      vertex 11.5645 14.6537 3
      vertex 11.2323 14.4492 0
      vertex 11.5645 14.6537 0
    endloop
  endfacet
  facet normal 0.87303 -0.487666 0
    outer loop
      vertex 10.5042 13.5474 3
      vertex 10.6944 13.8879 0
      vertex 10.6944 13.8879 3
    endloop
  endfacet
  facet normal 0.87303 -0.487666 0
    outer loop
      vertex 10.6944 13.8879 0
      vertex 10.5042 13.5474 3
      vertex 10.5042 13.5474 0
    endloop
  endfacet
  facet normal 0.66068 -0.750668 0
    outer loop
      vertex 10.9395 14.1915 0
      vertex 11.2323 14.4492 3
      vertex 10.9395 14.1915 3
    endloop
  endfacet
  facet normal 0.66068 -0.750668 0
    outer loop
      vertex 11.2323 14.4492 3
      vertex 10.9395 14.1915 0
      vertex 11.2323 14.4492 0
    endloop
  endfacet
  facet normal -0.911225 0.411909 0
    outer loop
      vertex 14.6079 11.4783 0
      vertex 14.7686 11.8338 3
      vertex 14.7686 11.8338 0
    endloop
  endfacet
  facet normal -0.911225 0.411909 0
    outer loop
      vertex 14.7686 11.8338 3
      vertex 14.6079 11.4783 0
      vertex 14.6079 11.4783 3
    endloop
  endfacet
  facet normal 0.66068 0.750668 -0
    outer loop
      vertex 11.2323 10.7508 0
      vertex 10.9395 11.0085 3
      vertex 11.2323 10.7508 3
    endloop
  endfacet
  facet normal 0.66068 0.750668 0
    outer loop
      vertex 10.9395 11.0085 3
      vertex 11.2323 10.7508 0
      vertex 10.9395 11.0085 0
    endloop
  endfacet
  facet normal -0.967729 0.251994 0
    outer loop
      vertex 14.7686 11.8338 0
      vertex 14.8669 12.2113 3
      vertex 14.8669 12.2113 0
    endloop
  endfacet
  facet normal -0.967729 0.251994 0
    outer loop
      vertex 14.8669 12.2113 3
      vertex 14.7686 11.8338 0
      vertex 14.7686 11.8338 3
    endloop
  endfacet
  facet normal -0.828563 0.559895 0
    outer loop
      vertex 14.3895 11.1551 0
      vertex 14.6079 11.4783 3
      vertex 14.6079 11.4783 0
    endloop
  endfacet
  facet normal -0.828563 0.559895 0
    outer loop
      vertex 14.6079 11.4783 3
      vertex 14.3895 11.1551 0
      vertex 14.3895 11.1551 3
    endloop
  endfacet
  facet normal -0.828563 -0.559895 0
    outer loop
      vertex 14.6079 13.7217 0
      vertex 14.3895 14.0449 3
      vertex 14.3895 14.0449 0
    endloop
  endfacet
  facet normal -0.828563 -0.559895 0
    outer loop
      vertex 14.3895 14.0449 3
      vertex 14.6079 13.7217 0
      vertex 14.6079 13.7217 3
    endloop
  endfacet
  facet normal -0.126873 0.991919 0
    outer loop
      vertex 13.0846 10.3516 0
      vertex 12.6976 10.3021 3
      vertex 13.0846 10.3516 3
    endloop
  endfacet
  facet normal -0.126873 0.991919 0
    outer loop
      vertex 12.6976 10.3021 3
      vertex 13.0846 10.3516 0
      vertex 12.6976 10.3021 0
    endloop
  endfacet
  facet normal -0.292987 0.956116 0
    outer loop
      vertex 13.4576 10.4659 0
      vertex 13.0846 10.3516 3
      vertex 13.4576 10.4659 3
    endloop
  endfacet
  facet normal -0.292987 0.956116 0
    outer loop
      vertex 13.0846 10.3516 3
      vertex 13.4576 10.4659 0
      vertex 13.0846 10.3516 0
    endloop
  endfacet
  facet normal -0.721946 -0.69195 0
    outer loop
      vertex 14.3895 14.0449 0
      vertex 14.1196 14.3265 3
      vertex 14.1196 14.3265 0
    endloop
  endfacet
  facet normal -0.721946 -0.69195 0
    outer loop
      vertex 14.1196 14.3265 3
      vertex 14.3895 14.0449 0
      vertex 14.3895 14.0449 3
    endloop
  endfacet
  facet normal 0.372937 0.927857 -0
    outer loop
      vertex 11.9265 10.4008 0
      vertex 11.5645 10.5463 3
      vertex 11.9265 10.4008 3
    endloop
  endfacet
  facet normal 0.372937 0.927857 0
    outer loop
      vertex 11.5645 10.5463 3
      vertex 11.9265 10.4008 0
      vertex 11.5645 10.5463 0
    endloop
  endfacet
  facet normal -0.594614 -0.804011 0
    outer loop
      vertex 13.8059 14.5585 0
      vertex 14.1196 14.3265 3
      vertex 13.8059 14.5585 3
    endloop
  endfacet
  facet normal -0.594614 -0.804011 -0
    outer loop
      vertex 14.1196 14.3265 3
      vertex 13.8059 14.5585 0
      vertex 14.1196 14.3265 0
    endloop
  endfacet
  facet normal -0.126873 -0.991919 0
    outer loop
      vertex 12.6976 14.8979 0
      vertex 13.0846 14.8484 3
      vertex 12.6976 14.8979 3
    endloop
  endfacet
  facet normal -0.126873 -0.991919 -0
    outer loop
      vertex 13.0846 14.8484 3
      vertex 12.6976 14.8979 0
      vertex 13.0846 14.8484 0
    endloop
  endfacet
  facet normal 0.210684 -0.977554 0
    outer loop
      vertex 11.9265 14.7992 0
      vertex 12.3079 14.8814 3
      vertex 11.9265 14.7992 3
    endloop
  endfacet
  facet normal 0.210684 -0.977554 0
    outer loop
      vertex 12.3079 14.8814 3
      vertex 11.9265 14.7992 0
      vertex 12.3079 14.8814 0
    endloop
  endfacet
  facet normal 0.778086 0.628158 0
    outer loop
      vertex 10.9395 11.0085 3
      vertex 10.6944 11.3121 0
      vertex 10.6944 11.3121 3
    endloop
  endfacet
  facet normal 0.778086 0.628158 0
    outer loop
      vertex 10.6944 11.3121 0
      vertex 10.9395 11.0085 3
      vertex 10.9395 11.0085 0
    endloop
  endfacet
  facet normal -0.996394 0.0848486 0
    outer loop
      vertex 14.8669 12.2113 0
      vertex 14.9 12.6 3
      vertex 14.9 12.6 0
    endloop
  endfacet
  facet normal -0.996394 0.0848486 0
    outer loop
      vertex 14.9 12.6 3
      vertex 14.8669 12.2113 0
      vertex 14.8669 12.2113 3
    endloop
  endfacet
  facet normal -0.450185 -0.892935 0
    outer loop
      vertex 13.4576 14.7341 0
      vertex 13.8059 14.5585 3
      vertex 13.4576 14.7341 3
    endloop
  endfacet
  facet normal -0.450185 -0.892935 -0
    outer loop
      vertex 13.8059 14.5585 3
      vertex 13.4576 14.7341 0
      vertex 13.8059 14.5585 0
    endloop
  endfacet
  facet normal 0.942839 0.333249 0
    outer loop
      vertex 10.5042 11.6526 3
      vertex 10.3742 12.0204 0
      vertex 10.3742 12.0204 3
    endloop
  endfacet
  facet normal 0.942839 0.333249 0
    outer loop
      vertex 10.3742 12.0204 0
      vertex 10.5042 11.6526 3
      vertex 10.5042 11.6526 0
    endloop
  endfacet
  facet normal 0.87303 0.487666 0
    outer loop
      vertex 10.6944 11.3121 3
      vertex 10.5042 11.6526 0
      vertex 10.5042 11.6526 3
    endloop
  endfacet
  facet normal 0.87303 0.487666 0
    outer loop
      vertex 10.5042 11.6526 0
      vertex 10.6944 11.3121 3
      vertex 10.6944 11.3121 0
    endloop
  endfacet
  facet normal -0.721946 0.69195 0
    outer loop
      vertex 14.1196 10.8735 0
      vertex 14.3895 11.1551 3
      vertex 14.3895 11.1551 0
    endloop
  endfacet
  facet normal -0.721946 0.69195 0
    outer loop
      vertex 14.3895 11.1551 3
      vertex 14.1196 10.8735 0
      vertex 14.1196 10.8735 3
    endloop
  endfacet
  facet normal 0.985628 0.168928 0
    outer loop
      vertex 10.3742 12.0204 3
      vertex 10.3083 12.4049 0
      vertex 10.3083 12.4049 3
    endloop
  endfacet
  facet normal 0.985628 0.168928 0
    outer loop
      vertex 10.3083 12.4049 0
      vertex 10.3742 12.0204 3
      vertex 10.3742 12.0204 0
    endloop
  endfacet
  facet normal 0.778086 -0.628158 0
    outer loop
      vertex 10.6944 13.8879 3
      vertex 10.9395 14.1915 0
      vertex 10.9395 14.1915 3
    endloop
  endfacet
  facet normal 0.778086 -0.628158 0
    outer loop
      vertex 10.9395 14.1915 0
      vertex 10.6944 13.8879 3
      vertex 10.6944 13.8879 0
    endloop
  endfacet
  facet normal -0.292987 -0.956116 0
    outer loop
      vertex 13.0846 14.8484 0
      vertex 13.4576 14.7341 3
      vertex 13.0846 14.8484 3
    endloop
  endfacet
  facet normal -0.292987 -0.956116 -0
    outer loop
      vertex 13.4576 14.7341 3
      vertex 13.0846 14.8484 0
      vertex 13.4576 14.7341 0
    endloop
  endfacet
  facet normal 0.0423024 -0.999105 0
    outer loop
      vertex 12.3079 14.8814 0
      vertex 12.6976 14.8979 3
      vertex 12.3079 14.8814 3
    endloop
  endfacet
  facet normal 0.0423024 -0.999105 0
    outer loop
      vertex 12.6976 14.8979 3
      vertex 12.3079 14.8814 0
      vertex 12.6976 14.8979 0
    endloop
  endfacet
  facet normal 1 -0 0
    outer loop
      vertex 10.3083 12.4049 3
      vertex 10.3083 12.7951 0
      vertex 10.3083 12.7951 3
    endloop
  endfacet
  facet normal 1 0 0
    outer loop
      vertex 10.3083 12.7951 0
      vertex 10.3083 12.4049 3
      vertex 10.3083 12.4049 0
    endloop
  endfacet
  facet normal 0.210684 0.977554 -0
    outer loop
      vertex 12.3079 10.3186 0
      vertex 11.9265 10.4008 3
      vertex 12.3079 10.3186 3
    endloop
  endfacet
  facet normal 0.210684 0.977554 0
    outer loop
      vertex 11.9265 10.4008 3
      vertex 12.3079 10.3186 0
      vertex 11.9265 10.4008 0
    endloop
  endfacet
  facet normal 0.524226 0.851579 -0
    outer loop
      vertex 11.5645 10.5463 0
      vertex 11.2323 10.7508 3
      vertex 11.5645 10.5463 3
    endloop
  endfacet
  facet normal 0.524226 0.851579 0
    outer loop
      vertex 11.2323 10.7508 3
      vertex 11.5645 10.5463 0
      vertex 11.2323 10.7508 0
    endloop
  endfacet
  facet normal 0.942867 -0.333169 0
    outer loop
      vertex 10.3742 13.1795 3
      vertex 10.5042 13.5474 0
      vertex 10.5042 13.5474 3
    endloop
  endfacet
  facet normal 0.942867 -0.333169 0
    outer loop
      vertex 10.5042 13.5474 0
      vertex 10.3742 13.1795 3
      vertex 10.3742 13.1795 0
    endloop
  endfacet
  facet normal 0 0 1
    outer loop
      vertex 3 25.2 25.2
      vertex 0 25.2 25.2
      vertex 3 3 25.2
    endloop
  endfacet
  facet normal -0 0 1
    outer loop
      vertex 3 3 25.2
      vertex 25.2 0 25.2
      vertex 25.2 3 25.2
    endloop
  endfacet
  facet normal 0 0 1
    outer loop
      vertex 3 3 25.2
      vertex 0 0 25.2
      vertex 25.2 0 25.2
    endloop
  endfacet
  facet normal 0 0 1
    outer loop
      vertex 0 0 25.2
      vertex 3 3 25.2
      vertex 0 25.2 25.2
    endloop
  endfacet
  facet normal 1 0 0
    outer loop
      vertex 3 25.2 25.2
      vertex 3 14.8979 12.6976
      vertex 3 25.2 3
    endloop
  endfacet
  facet normal 1 0 0
    outer loop
      vertex 3 25.2 25.2
      vertex 3 14.8484 13.0846
      vertex 3 14.8979 12.6976
    endloop
  endfacet
  facet normal 1 0 0
    outer loop
      vertex 3 25.2 25.2
      vertex 3 14.7341 13.4576
      vertex 3 14.8484 13.0846
    endloop
  endfacet
  facet normal 1 0 0
    outer loop
      vertex 3 25.2 25.2
      vertex 3 14.5585 13.8059
      vertex 3 14.7341 13.4576
    endloop
  endfacet
  facet normal 1 0 0
    outer loop
      vertex 3 25.2 25.2
      vertex 3 14.3265 14.1196
      vertex 3 14.5585 13.8059
    endloop
  endfacet
  facet normal 1 0 0
    outer loop
      vertex 3 25.2 25.2
      vertex 3 14.0449 14.3895
      vertex 3 14.3265 14.1196
    endloop
  endfacet
  facet normal 1 0 0
    outer loop
      vertex 3 25.2 25.2
      vertex 3 13.7217 14.6079
      vertex 3 14.0449 14.3895
    endloop
  endfacet
  facet normal 1 0 0
    outer loop
      vertex 3 25.2 25.2
      vertex 3 13.3662 14.7686
      vertex 3 13.7217 14.6079
    endloop
  endfacet
  facet normal 1 0 0
    outer loop
      vertex 3 25.2 25.2
      vertex 3 12.9887 14.8669
      vertex 3 13.3662 14.7686
    endloop
  endfacet
  facet normal 1 -0 0
    outer loop
      vertex 3 3 25.2
      vertex 3 12.9887 14.8669
      vertex 3 25.2 25.2
    endloop
  endfacet
  facet normal 1 0 0
    outer loop
      vertex 3 12.9887 14.8669
      vertex 3 3 25.2
      vertex 3 12.6 14.9
    endloop
  endfacet
  facet normal 1 0 0
    outer loop
      vertex 3 12.6 14.9
      vertex 3 3 25.2
      vertex 3 12.2113 14.8669
    endloop
  endfacet
  facet normal 1 0 0
    outer loop
      vertex 3 12.2113 14.8669
      vertex 3 3 25.2
      vertex 3 11.8338 14.7686
    endloop
  endfacet
  facet normal 1 0 0
    outer loop
      vertex 3 11.8338 14.7686
      vertex 3 3 25.2
      vertex 3 11.4783 14.6079
    endloop
  endfacet
  facet normal 1 0 0
    outer loop
      vertex 3 10.3516 13.0846
      vertex 3 3 25.2
      vertex 3 10.3021 12.6976
    endloop
  endfacet
  facet normal 1 0 0
    outer loop
      vertex 3 10.4659 13.4576
      vertex 3 3 25.2
      vertex 3 10.3516 13.0846
    endloop
  endfacet
  facet normal 1 0 0
    outer loop
      vertex 3 10.6415 13.8059
      vertex 3 3 25.2
      vertex 3 10.4659 13.4576
    endloop
  endfacet
  facet normal 1 0 0
    outer loop
      vertex 3 10.8735 14.1196
      vertex 3 3 25.2
      vertex 3 10.6415 13.8059
    endloop
  endfacet
  facet normal 1 0 0
    outer loop
      vertex 3 11.1551 14.3895
      vertex 3 3 25.2
      vertex 3 10.8735 14.1196
    endloop
  endfacet
  facet normal 1 0 0
    outer loop
      vertex 3 11.4783 14.6079
      vertex 3 3 25.2
      vertex 3 11.1551 14.3895
    endloop
  endfacet
  facet normal 1 -0 0
    outer loop
      vertex 3 14.8814 12.3079
      vertex 3 25.2 3
      vertex 3 14.8979 12.6976
    endloop
  endfacet
  facet normal 1 -0 0
    outer loop
      vertex 3 14.7992 11.9265
      vertex 3 25.2 3
      vertex 3 14.8814 12.3079
    endloop
  endfacet
  facet normal 1 -0 0
    outer loop
      vertex 3 14.6537 11.5645
      vertex 3 25.2 3
      vertex 3 14.7992 11.9265
    endloop
  endfacet
  facet normal 1 -0 0
    outer loop
      vertex 3 14.4492 11.2323
      vertex 3 25.2 3
      vertex 3 14.6537 11.5645
    endloop
  endfacet
  facet normal 1 -0 0
    outer loop
      vertex 3 14.1915 10.9395
      vertex 3 25.2 3
      vertex 3 14.4492 11.2323
    endloop
  endfacet
  facet normal 1 -0 0
    outer loop
      vertex 3 13.8879 10.6944
      vertex 3 25.2 3
      vertex 3 14.1915 10.9395
    endloop
  endfacet
  facet normal 1 -0 0
    outer loop
      vertex 3 13.5474 10.5042
      vertex 3 25.2 3
      vertex 3 13.8879 10.6944
    endloop
  endfacet
  facet normal 1 -0 0
    outer loop
      vertex 3 13.1795 10.3742
      vertex 3 25.2 3
      vertex 3 13.5474 10.5042
    endloop
  endfacet
  facet normal 1 -0 0
    outer loop
      vertex 3 12.7951 10.3083
      vertex 3 25.2 3
      vertex 3 13.1795 10.3742
    endloop
  endfacet
  facet normal 1 0 0
    outer loop
      vertex 3 3 3
      vertex 3 12.7951 10.3083
      vertex 3 12.4049 10.3083
    endloop
  endfacet
  facet normal 1 0 0
    outer loop
      vertex 3 3 3
      vertex 3 12.4049 10.3083
      vertex 3 12.0204 10.3742
    endloop
  endfacet
  facet normal 1 0 0
    outer loop
      vertex 3 3 3
      vertex 3 12.0204 10.3742
      vertex 3 11.6526 10.5042
    endloop
  endfacet
  facet normal 1 0 0
    outer loop
      vertex 3 3 3
      vertex 3 10.3021 12.6976
      vertex 3 3 25.2
    endloop
  endfacet
  facet normal 1 0 0
    outer loop
      vertex 3 10.3021 12.6976
      vertex 3 3 3
      vertex 3 10.3186 12.3079
    endloop
  endfacet
  facet normal 1 0 0
    outer loop
      vertex 3 10.3186 12.3079
      vertex 3 3 3
      vertex 3 10.4008 11.9265
    endloop
  endfacet
  facet normal 1 0 0
    outer loop
      vertex 3 12.7951 10.3083
      vertex 3 3 3
      vertex 3 25.2 3
    endloop
  endfacet
  facet normal 1 0 0
    outer loop
      vertex 3 11.3121 10.6944
      vertex 3 3 3
      vertex 3 11.6526 10.5042
    endloop
  endfacet
  facet normal 1 0 0
    outer loop
      vertex 3 11.0085 10.9395
      vertex 3 3 3
      vertex 3 11.3121 10.6944
    endloop
  endfacet
  facet normal 1 0 0
    outer loop
      vertex 3 10.7508 11.2323
      vertex 3 3 3
      vertex 3 11.0085 10.9395
    endloop
  endfacet
  facet normal 1 0 0
    outer loop
      vertex 3 10.5463 11.5645
      vertex 3 3 3
      vertex 3 10.7508 11.2323
    endloop
  endfacet
  facet normal 1 0 0
    outer loop
      vertex 3 10.4008 11.9265
      vertex 3 3 3
      vertex 3 10.5463 11.5645
    endloop
  endfacet
  facet normal 0 -0.168971 0.985621
    outer loop
      vertex 0 13.1795 10.3742
      vertex 3 12.7951 10.3083
      vertex 3 13.1795 10.3742
    endloop
  endfacet
  facet normal 0 -0.168971 0.985621
    outer loop
      vertex 3 12.7951 10.3083
      vertex 0 13.1795 10.3742
      vertex 0 12.7951 10.3083
    endloop
  endfacet
  facet normal 0 -0.251994 -0.967729
    outer loop
      vertex 0 12.9887 14.8669
      vertex 3 13.3662 14.7686
      vertex 3 12.9887 14.8669
    endloop
  endfacet
  facet normal -0 -0.251994 -0.967729
    outer loop
      vertex 3 13.3662 14.7686
      vertex 0 12.9887 14.8669
      vertex 0 13.3662 14.7686
    endloop
  endfacet
  facet normal 0 -0.0848486 -0.996394
    outer loop
      vertex 0 12.6 14.9
      vertex 3 12.9887 14.8669
      vertex 3 12.6 14.9
    endloop
  endfacet
  facet normal -0 -0.0848486 -0.996394
    outer loop
      vertex 3 12.9887 14.8669
      vertex 0 12.6 14.9
      vertex 0 12.9887 14.8669
    endloop
  endfacet
  facet normal 0 -0.411909 -0.911225
    outer loop
      vertex 0 13.3662 14.7686
      vertex 3 13.7217 14.6079
      vertex 3 13.3662 14.7686
    endloop
  endfacet
  facet normal -0 -0.411909 -0.911225
    outer loop
      vertex 3 13.7217 14.6079
      vertex 0 13.3662 14.7686
      vertex 0 13.7217 14.6079
    endloop
  endfacet
  facet normal 0 0.804011 -0.594614
    outer loop
      vertex 3 10.6415 13.8059
      vertex 0 10.8735 14.1196
      vertex 3 10.8735 14.1196
    endloop
  endfacet
  facet normal 0 0.804011 -0.594614
    outer loop
      vertex 0 10.8735 14.1196
      vertex 3 10.6415 13.8059
      vertex 0 10.6415 13.8059
    endloop
  endfacet
  facet normal 0 0.999105 0.0423024
    outer loop
      vertex 3 10.3186 12.3079
      vertex 0 10.3021 12.6976
      vertex 3 10.3021 12.6976
    endloop
  endfacet
  facet normal 0 0.999105 0.0423024
    outer loop
      vertex 0 10.3021 12.6976
      vertex 3 10.3186 12.3079
      vertex 0 10.3186 12.3079
    endloop
  endfacet
  facet normal 0 0.892935 -0.450185
    outer loop
      vertex 3 10.4659 13.4576
      vertex 0 10.6415 13.8059
      vertex 3 10.6415 13.8059
    endloop
  endfacet
  facet normal 0 0.892935 -0.450185
    outer loop
      vertex 0 10.6415 13.8059
      vertex 3 10.4659 13.4576
      vertex 0 10.4659 13.4576
    endloop
  endfacet
  facet normal 0 -0.927857 0.372937
    outer loop
      vertex 0 14.6537 11.5645
      vertex 3 14.7992 11.9265
      vertex 0 14.7992 11.9265
    endloop
  endfacet
  facet normal 0 -0.927857 0.372937
    outer loop
      vertex 3 14.7992 11.9265
      vertex 0 14.6537 11.5645
      vertex 3 14.6537 11.5645
    endloop
  endfacet
  facet normal 0 -0.851579 0.524226
    outer loop
      vertex 0 14.4492 11.2323
      vertex 3 14.6537 11.5645
      vertex 0 14.6537 11.5645
    endloop
  endfacet
  facet normal 0 -0.851579 0.524226
    outer loop
      vertex 3 14.6537 11.5645
      vertex 0 14.4492 11.2323
      vertex 3 14.4492 11.2323
    endloop
  endfacet
  facet normal 0 -0.487666 0.87303
    outer loop
      vertex 0 13.8879 10.6944
      vertex 3 13.5474 10.5042
      vertex 3 13.8879 10.6944
    endloop
  endfacet
  facet normal 0 -0.487666 0.87303
    outer loop
      vertex 3 13.5474 10.5042
      vertex 0 13.8879 10.6944
      vertex 0 13.5474 10.5042
    endloop
  endfacet
  facet normal 0 -0.750668 0.66068
    outer loop
      vertex 0 14.1915 10.9395
      vertex 3 14.4492 11.2323
      vertex 0 14.4492 11.2323
    endloop
  endfacet
  facet normal 0 -0.750668 0.66068
    outer loop
      vertex 3 14.4492 11.2323
      vertex 0 14.1915 10.9395
      vertex 3 14.1915 10.9395
    endloop
  endfacet
  facet normal 0 0.411909 -0.911225
    outer loop
      vertex 0 11.4783 14.6079
      vertex 3 11.8338 14.7686
      vertex 3 11.4783 14.6079
    endloop
  endfacet
  facet normal 0 0.411909 -0.911225
    outer loop
      vertex 3 11.8338 14.7686
      vertex 0 11.4783 14.6079
      vertex 0 11.8338 14.7686
    endloop
  endfacet
  facet normal 0 0.750668 0.66068
    outer loop
      vertex 3 11.0085 10.9395
      vertex 0 10.7508 11.2323
      vertex 3 10.7508 11.2323
    endloop
  endfacet
  facet normal 0 0.750668 0.66068
    outer loop
      vertex 0 10.7508 11.2323
      vertex 3 11.0085 10.9395
      vertex 0 11.0085 10.9395
    endloop
  endfacet
  facet normal 0 0.251994 -0.967729
    outer loop
      vertex 0 11.8338 14.7686
      vertex 3 12.2113 14.8669
      vertex 3 11.8338 14.7686
    endloop
  endfacet
  facet normal 0 0.251994 -0.967729
    outer loop
      vertex 3 12.2113 14.8669
      vertex 0 11.8338 14.7686
      vertex 0 12.2113 14.8669
    endloop
  endfacet
  facet normal 0 0.559895 -0.828563
    outer loop
      vertex 0 11.1551 14.3895
      vertex 3 11.4783 14.6079
      vertex 3 11.1551 14.3895
    endloop
  endfacet
  facet normal 0 0.559895 -0.828563
    outer loop
      vertex 3 11.4783 14.6079
      vertex 0 11.1551 14.3895
      vertex 0 11.4783 14.6079
    endloop
  endfacet
  facet normal 0 -0.559895 -0.828563
    outer loop
      vertex 0 13.7217 14.6079
      vertex 3 14.0449 14.3895
      vertex 3 13.7217 14.6079
    endloop
  endfacet
  facet normal -0 -0.559895 -0.828563
    outer loop
      vertex 3 14.0449 14.3895
      vertex 0 13.7217 14.6079
      vertex 0 14.0449 14.3895
    endloop
  endfacet
  facet normal 0 0.991919 -0.126873
    outer loop
      vertex 3 10.3021 12.6976
      vertex 0 10.3516 13.0846
      vertex 3 10.3516 13.0846
    endloop
  endfacet
  facet normal 0 0.991919 -0.126873
    outer loop
      vertex 0 10.3516 13.0846
      vertex 3 10.3021 12.6976
      vertex 0 10.3021 12.6976
    endloop
  endfacet
  facet normal 0 0.956116 -0.292987
    outer loop
      vertex 3 10.3516 13.0846
      vertex 0 10.4659 13.4576
      vertex 3 10.4659 13.4576
    endloop
  endfacet
  facet normal 0 0.956116 -0.292987
    outer loop
      vertex 0 10.4659 13.4576
      vertex 3 10.3516 13.0846
      vertex 0 10.3516 13.0846
    endloop
  endfacet
  facet normal 0 -0.69195 -0.721946
    outer loop
      vertex 0 14.0449 14.3895
      vertex 3 14.3265 14.1196
      vertex 3 14.0449 14.3895
    endloop
  endfacet
  facet normal -0 -0.69195 -0.721946
    outer loop
      vertex 3 14.3265 14.1196
      vertex 0 14.0449 14.3895
      vertex 0 14.3265 14.1196
    endloop
  endfacet
  facet normal 0 0.927857 0.372937
    outer loop
      vertex 3 10.5463 11.5645
      vertex 0 10.4008 11.9265
      vertex 3 10.4008 11.9265
    endloop
  endfacet
  facet normal 0 0.927857 0.372937
    outer loop
      vertex 0 10.4008 11.9265
      vertex 3 10.5463 11.5645
      vertex 0 10.5463 11.5645
    endloop
  endfacet
  facet normal 0 -0.804011 -0.594614
    outer loop
      vertex 0 14.5585 13.8059
      vertex 3 14.3265 14.1196
      vertex 0 14.3265 14.1196
    endloop
  endfacet
  facet normal 0 -0.804011 -0.594614
    outer loop
      vertex 3 14.3265 14.1196
      vertex 0 14.5585 13.8059
      vertex 3 14.5585 13.8059
    endloop
  endfacet
  facet normal 0 -0.991919 -0.126873
    outer loop
      vertex 0 14.8979 12.6976
      vertex 3 14.8484 13.0846
      vertex 0 14.8484 13.0846
    endloop
  endfacet
  facet normal 0 -0.991919 -0.126873
    outer loop
      vertex 3 14.8484 13.0846
      vertex 0 14.8979 12.6976
      vertex 3 14.8979 12.6976
    endloop
  endfacet
  facet normal 0 -0.977554 0.210684
    outer loop
      vertex 0 14.7992 11.9265
      vertex 3 14.8814 12.3079
      vertex 0 14.8814 12.3079
    endloop
  endfacet
  facet normal 0 -0.977554 0.210684
    outer loop
      vertex 3 14.8814 12.3079
      vertex 0 14.7992 11.9265
      vertex 3 14.7992 11.9265
    endloop
  endfacet
  facet normal -0 0.628158 0.778086
    outer loop
      vertex 0 11.3121 10.6944
      vertex 3 11.0085 10.9395
      vertex 3 11.3121 10.6944
    endloop
  endfacet
  facet normal 0 0.628158 0.778086
    outer loop
      vertex 3 11.0085 10.9395
      vertex 0 11.3121 10.6944
      vertex 0 11.0085 10.9395
    endloop
  endfacet
  facet normal 0 0.0848486 -0.996394
    outer loop
      vertex 0 12.2113 14.8669
      vertex 3 12.6 14.9
      vertex 3 12.2113 14.8669
    endloop
  endfacet
  facet normal 0 0.0848486 -0.996394
    outer loop
      vertex 3 12.6 14.9
      vertex 0 12.2113 14.8669
      vertex 0 12.6 14.9
    endloop
  endfacet
  facet normal 0 -0.892935 -0.450185
    outer loop
      vertex 0 14.7341 13.4576
      vertex 3 14.5585 13.8059
      vertex 0 14.5585 13.8059
    endloop
  endfacet
  facet normal 0 -0.892935 -0.450185
    outer loop
      vertex 3 14.5585 13.8059
      vertex 0 14.7341 13.4576
      vertex 3 14.7341 13.4576
    endloop
  endfacet
  facet normal -0 0.333249 0.942839
    outer loop
      vertex 0 12.0204 10.3742
      vertex 3 11.6526 10.5042
      vertex 3 12.0204 10.3742
    endloop
  endfacet
  facet normal 0 0.333249 0.942839
    outer loop
      vertex 3 11.6526 10.5042
      vertex 0 12.0204 10.3742
      vertex 0 11.6526 10.5042
    endloop
  endfacet
  facet normal -0 0.487666 0.87303
    outer loop
      vertex 0 11.6526 10.5042
      vertex 3 11.3121 10.6944
      vertex 3 11.6526 10.5042
    endloop
  endfacet
  facet normal 0 0.487666 0.87303
    outer loop
      vertex 3 11.3121 10.6944
      vertex 0 11.6526 10.5042
      vertex 0 11.3121 10.6944
    endloop
  endfacet
  facet normal 0 0.69195 -0.721946
    outer loop
      vertex 0 10.8735 14.1196
      vertex 3 11.1551 14.3895
      vertex 3 10.8735 14.1196
    endloop
  endfacet
  facet normal 0 0.69195 -0.721946
    outer loop
      vertex 3 11.1551 14.3895
      vertex 0 10.8735 14.1196
      vertex 0 11.1551 14.3895
    endloop
  endfacet
  facet normal -0 0.168928 0.985628
    outer loop
      vertex 0 12.4049 10.3083
      vertex 3 12.0204 10.3742
      vertex 3 12.4049 10.3083
    endloop
  endfacet
  facet normal 0 0.168928 0.985628
    outer loop
      vertex 3 12.0204 10.3742
      vertex 0 12.4049 10.3083
      vertex 0 12.0204 10.3742
    endloop
  endfacet
  facet normal 0 -0.628158 0.778086
    outer loop
      vertex 0 14.1915 10.9395
      vertex 3 13.8879 10.6944
      vertex 3 14.1915 10.9395
    endloop
  endfacet
  facet normal 0 -0.628158 0.778086
    outer loop
      vertex 3 13.8879 10.6944
      vertex 0 14.1915 10.9395
      vertex 0 13.8879 10.6944
    endloop
  endfacet
  facet normal 0 -0.956116 -0.292987
    outer loop
      vertex 0 14.8484 13.0846
      vertex 3 14.7341 13.4576
      vertex 0 14.7341 13.4576
    endloop
  endfacet
  facet normal 0 -0.956116 -0.292987
    outer loop
      vertex 3 14.7341 13.4576
      vertex 0 14.8484 13.0846
      vertex 3 14.8484 13.0846
    endloop
  endfacet
  facet normal 0 -0.999105 0.0423024
    outer loop
      vertex 0 14.8814 12.3079
      vertex 3 14.8979 12.6976
      vertex 0 14.8979 12.6976
    endloop
  endfacet
  facet normal 0 -0.999105 0.0423024
    outer loop
      vertex 3 14.8979 12.6976
      vertex 0 14.8814 12.3079
      vertex 3 14.8814 12.3079
    endloop
  endfacet
  facet normal -0 0 1
    outer loop
      vertex 0 12.7951 10.3083
      vertex 3 12.4049 10.3083
      vertex 3 12.7951 10.3083
    endloop
  endfacet
  facet normal 0 0 1
    outer loop
      vertex 3 12.4049 10.3083
      vertex 0 12.7951 10.3083
      vertex 0 12.4049 10.3083
    endloop
  endfacet
  facet normal 0 0.977554 0.210684
    outer loop
      vertex 3 10.4008 11.9265
      vertex 0 10.3186 12.3079
      vertex 3 10.3186 12.3079
    endloop
  endfacet
  facet normal 0 0.977554 0.210684
    outer loop
      vertex 0 10.3186 12.3079
      vertex 3 10.4008 11.9265
      vertex 0 10.4008 11.9265
    endloop
  endfacet
  facet normal 0 0.851579 0.524226
    outer loop
      vertex 3 10.7508 11.2323
      vertex 0 10.5463 11.5645
      vertex 3 10.5463 11.5645
    endloop
  endfacet
  facet normal 0 0.851579 0.524226
    outer loop
      vertex 0 10.5463 11.5645
      vertex 3 10.7508 11.2323
      vertex 0 10.7508 11.2323
    endloop
  endfacet
  facet normal 0 -0.333169 0.942867
    outer loop
      vertex 0 13.5474 10.5042
      vertex 3 13.1795 10.3742
      vertex 3 13.5474 10.5042
    endloop
  endfacet
  facet normal 0 -0.333169 0.942867
    outer loop
      vertex 3 13.1795 10.3742
      vertex 0 13.5474 10.5042
      vertex 0 13.1795 10.3742
    endloop
  endfacet
  facet normal 0 1 -0
    outer loop
      vertex 12.9887 3 14.8669
      vertex 3 3 25.2
      vertex 25.2 3 25.2
    endloop
  endfacet
  facet normal 0 1 0
    outer loop
      vertex 3 3 25.2
      vertex 12.9887 3 14.8669
      vertex 12.6 3 14.9
    endloop
  endfacet
  facet normal 0 1 0
    outer loop
      vertex 25.2 3 25.2
      vertex 13.3662 3 14.7686
      vertex 12.9887 3 14.8669
    endloop
  endfacet
  facet normal 0 1 0
    outer loop
      vertex 25.2 3 25.2
      vertex 13.7217 3 14.6079
      vertex 13.3662 3 14.7686
    endloop
  endfacet
  facet normal 0 1 0
    outer loop
      vertex 25.2 3 25.2
      vertex 14.0449 3 14.3895
      vertex 13.7217 3 14.6079
    endloop
  endfacet
  facet normal 0 1 0
    outer loop
      vertex 25.2 3 25.2
      vertex 14.3265 3 14.1196
      vertex 14.0449 3 14.3895
    endloop
  endfacet
  facet normal 0 1 0
    outer loop
      vertex 25.2 3 25.2
      vertex 14.5585 3 13.8059
      vertex 14.3265 3 14.1196
    endloop
  endfacet
  facet normal 0 1 0
    outer loop
      vertex 25.2 3 25.2
      vertex 14.7341 3 13.4576
      vertex 14.5585 3 13.8059
    endloop
  endfacet
  facet normal 0 1 0
    outer loop
      vertex 25.2 3 25.2
      vertex 14.8484 3 13.0846
      vertex 14.7341 3 13.4576
    endloop
  endfacet
  facet normal 0 1 0
    outer loop
      vertex 25.2 3 25.2
      vertex 14.8979 3 12.6976
      vertex 14.8484 3 13.0846
    endloop
  endfacet
  facet normal 0 1 -0
    outer loop
      vertex 25.2 3 3
      vertex 14.8979 3 12.6976
      vertex 25.2 3 25.2
    endloop
  endfacet
  facet normal 0 1 0
    outer loop
      vertex 14.8979 3 12.6976
      vertex 25.2 3 3
      vertex 14.8814 3 12.3079
    endloop
  endfacet
  facet normal 0 1 0
    outer loop
      vertex 14.8814 3 12.3079
      vertex 25.2 3 3
      vertex 14.7992 3 11.9265
    endloop
  endfacet
  facet normal 0 1 0
    outer loop
      vertex 14.7992 3 11.9265
      vertex 25.2 3 3
      vertex 14.6537 3 11.5645
    endloop
  endfacet
  facet normal 0 1 0
    outer loop
      vertex 3 3 3
      vertex 12.7951 3 10.3083
      vertex 25.2 3 3
    endloop
  endfacet
  facet normal 0 1 0
    outer loop
      vertex 13.1795 3 10.3742
      vertex 25.2 3 3
      vertex 12.7951 3 10.3083
    endloop
  endfacet
  facet normal 0 1 0
    outer loop
      vertex 13.5474 3 10.5042
      vertex 25.2 3 3
      vertex 13.1795 3 10.3742
    endloop
  endfacet
  facet normal 0 1 0
    outer loop
      vertex 13.8879 3 10.6944
      vertex 25.2 3 3
      vertex 13.5474 3 10.5042
    endloop
  endfacet
  facet normal 0 1 0
    outer loop
      vertex 14.1915 3 10.9395
      vertex 25.2 3 3
      vertex 13.8879 3 10.6944
    endloop
  endfacet
  facet normal 0 1 0
    outer loop
      vertex 14.4492 3 11.2323
      vertex 25.2 3 3
      vertex 14.1915 3 10.9395
    endloop
  endfacet
  facet normal 0 1 0
    outer loop
      vertex 14.6537 3 11.5645
      vertex 25.2 3 3
      vertex 14.4492 3 11.2323
    endloop
  endfacet
  facet normal 0 1 -0
    outer loop
      vertex 12.2113 3 14.8669
      vertex 3 3 25.2
      vertex 12.6 3 14.9
    endloop
  endfacet
  facet normal 0 1 -0
    outer loop
      vertex 11.8338 3 14.7686
      vertex 3 3 25.2
      vertex 12.2113 3 14.8669
    endloop
  endfacet
  facet normal 0 1 -0
    outer loop
      vertex 11.4783 3 14.6079
      vertex 3 3 25.2
      vertex 11.8338 3 14.7686
    endloop
  endfacet
  facet normal 0 1 -0
    outer loop
      vertex 11.1551 3 14.3895
      vertex 3 3 25.2
      vertex 11.4783 3 14.6079
    endloop
  endfacet
  facet normal 0 1 -0
    outer loop
      vertex 10.8735 3 14.1196
      vertex 3 3 25.2
      vertex 11.1551 3 14.3895
    endloop
  endfacet
  facet normal 0 1 -0
    outer loop
      vertex 10.6415 3 13.8059
      vertex 3 3 25.2
      vertex 10.8735 3 14.1196
    endloop
  endfacet
  facet normal 0 1 -0
    outer loop
      vertex 10.4659 3 13.4576
      vertex 3 3 25.2
      vertex 10.6415 3 13.8059
    endloop
  endfacet
  facet normal 0 1 -0
    outer loop
      vertex 10.3516 3 13.0846
      vertex 3 3 25.2
      vertex 10.4659 3 13.4576
    endloop
  endfacet
  facet normal 0 1 -0
    outer loop
      vertex 10.3021 3 12.6976
      vertex 3 3 25.2
      vertex 10.3516 3 13.0846
    endloop
  endfacet
  facet normal 0 1 0
    outer loop
      vertex 3 3 3
      vertex 10.3021 3 12.6976
      vertex 10.3186 3 12.3079
    endloop
  endfacet
  facet normal 0 1 0
    outer loop
      vertex 3 3 3
      vertex 10.3186 3 12.3079
      vertex 10.4008 3 11.9265
    endloop
  endfacet
  facet normal 0 1 0
    outer loop
      vertex 3 3 3
      vertex 10.4008 3 11.9265
      vertex 10.5463 3 11.5645
    endloop
  endfacet
  facet normal 0 1 0
    outer loop
      vertex 12.7951 3 10.3083
      vertex 3 3 3
      vertex 12.4049 3 10.3083
    endloop
  endfacet
  facet normal 0 1 0
    outer loop
      vertex 12.4049 3 10.3083
      vertex 3 3 3
      vertex 12.0204 3 10.3742
    endloop
  endfacet
  facet normal 0 1 0
    outer loop
      vertex 10.3021 3 12.6976
      vertex 3 3 3
      vertex 3 3 25.2
    endloop
  endfacet
  facet normal 0 1 0
    outer loop
      vertex 10.7508 3 11.2323
      vertex 3 3 3
      vertex 10.5463 3 11.5645
    endloop
  endfacet
  facet normal 0 1 0
    outer loop
      vertex 11.0085 3 10.9395
      vertex 3 3 3
      vertex 10.7508 3 11.2323
    endloop
  endfacet
  facet normal 0 1 0
    outer loop
      vertex 11.3121 3 10.6944
      vertex 3 3 3
      vertex 11.0085 3 10.9395
    endloop
  endfacet
  facet normal 0 1 0
    outer loop
      vertex 11.6526 3 10.5042
      vertex 3 3 3
      vertex 11.3121 3 10.6944
    endloop
  endfacet
  facet normal 0 1 0
    outer loop
      vertex 12.0204 3 10.3742
      vertex 3 3 3
      vertex 11.6526 3 10.5042
    endloop
  endfacet
  facet normal -0.168971 0 0.985621
    outer loop
      vertex 12.7951 3 10.3083
      vertex 13.1795 0 10.3742
      vertex 13.1795 3 10.3742
    endloop
  endfacet
  facet normal -0.168971 0 0.985621
    outer loop
      vertex 13.1795 0 10.3742
      vertex 12.7951 3 10.3083
      vertex 12.7951 0 10.3083
    endloop
  endfacet
  facet normal -0.251994 0 -0.967729
    outer loop
      vertex 12.9887 0 14.8669
      vertex 13.3662 3 14.7686
      vertex 13.3662 0 14.7686
    endloop
  endfacet
  facet normal -0.251994 0 -0.967729
    outer loop
      vertex 13.3662 3 14.7686
      vertex 12.9887 0 14.8669
      vertex 12.9887 3 14.8669
    endloop
  endfacet
  facet normal -0.0848486 0 -0.996394
    outer loop
      vertex 12.6 0 14.9
      vertex 12.9887 3 14.8669
      vertex 12.9887 0 14.8669
    endloop
  endfacet
  facet normal -0.0848486 0 -0.996394
    outer loop
      vertex 12.9887 3 14.8669
      vertex 12.6 0 14.9
      vertex 12.6 3 14.9
    endloop
  endfacet
  facet normal -0.411909 0 -0.911225
    outer loop
      vertex 13.3662 0 14.7686
      vertex 13.7217 3 14.6079
      vertex 13.7217 0 14.6079
    endloop
  endfacet
  facet normal -0.411909 0 -0.911225
    outer loop
      vertex 13.7217 3 14.6079
      vertex 13.3662 0 14.7686
      vertex 13.3662 3 14.7686
    endloop
  endfacet
  facet normal 0.804011 0 -0.594614
    outer loop
      vertex 10.8735 0 14.1196
      vertex 10.6415 3 13.8059
      vertex 10.8735 3 14.1196
    endloop
  endfacet
  facet normal 0.804011 0 -0.594614
    outer loop
      vertex 10.6415 3 13.8059
      vertex 10.8735 0 14.1196
      vertex 10.6415 0 13.8059
    endloop
  endfacet
  facet normal 0.999105 -0 0.0423024
    outer loop
      vertex 10.3021 0 12.6976
      vertex 10.3186 3 12.3079
      vertex 10.3021 3 12.6976
    endloop
  endfacet
  facet normal 0.999105 0 0.0423024
    outer loop
      vertex 10.3186 3 12.3079
      vertex 10.3021 0 12.6976
      vertex 10.3186 0 12.3079
    endloop
  endfacet
  facet normal 0.892935 0 -0.450185
    outer loop
      vertex 10.6415 0 13.8059
      vertex 10.4659 3 13.4576
      vertex 10.6415 3 13.8059
    endloop
  endfacet
  facet normal 0.892935 0 -0.450185
    outer loop
      vertex 10.4659 3 13.4576
      vertex 10.6415 0 13.8059
      vertex 10.4659 0 13.4576
    endloop
  endfacet
  facet normal -0.927857 0 0.372937
    outer loop
      vertex 14.6537 0 11.5645
      vertex 14.7992 3 11.9265
      vertex 14.6537 3 11.5645
    endloop
  endfacet
  facet normal -0.927857 0 0.372937
    outer loop
      vertex 14.7992 3 11.9265
      vertex 14.6537 0 11.5645
      vertex 14.7992 0 11.9265
    endloop
  endfacet
  facet normal -0.851579 0 0.524226
    outer loop
      vertex 14.4492 0 11.2323
      vertex 14.6537 3 11.5645
      vertex 14.4492 3 11.2323
    endloop
  endfacet
  facet normal -0.851579 0 0.524226
    outer loop
      vertex 14.6537 3 11.5645
      vertex 14.4492 0 11.2323
      vertex 14.6537 0 11.5645
    endloop
  endfacet
  facet normal -0.487666 0 0.87303
    outer loop
      vertex 13.5474 3 10.5042
      vertex 13.8879 0 10.6944
      vertex 13.8879 3 10.6944
    endloop
  endfacet
  facet normal -0.487666 0 0.87303
    outer loop
      vertex 13.8879 0 10.6944
      vertex 13.5474 3 10.5042
      vertex 13.5474 0 10.5042
    endloop
  endfacet
  facet normal -0.750668 0 0.66068
    outer loop
      vertex 14.1915 0 10.9395
      vertex 14.4492 3 11.2323
      vertex 14.1915 3 10.9395
    endloop
  endfacet
  facet normal -0.750668 0 0.66068
    outer loop
      vertex 14.4492 3 11.2323
      vertex 14.1915 0 10.9395
      vertex 14.4492 0 11.2323
    endloop
  endfacet
  facet normal 0.411909 0 -0.911225
    outer loop
      vertex 11.4783 0 14.6079
      vertex 11.8338 3 14.7686
      vertex 11.8338 0 14.7686
    endloop
  endfacet
  facet normal 0.411909 0 -0.911225
    outer loop
      vertex 11.8338 3 14.7686
      vertex 11.4783 0 14.6079
      vertex 11.4783 3 14.6079
    endloop
  endfacet
  facet normal 0.750668 -0 0.66068
    outer loop
      vertex 10.7508 0 11.2323
      vertex 11.0085 3 10.9395
      vertex 10.7508 3 11.2323
    endloop
  endfacet
  facet normal 0.750668 0 0.66068
    outer loop
      vertex 11.0085 3 10.9395
      vertex 10.7508 0 11.2323
      vertex 11.0085 0 10.9395
    endloop
  endfacet
  facet normal 0.251994 0 -0.967729
    outer loop
      vertex 11.8338 0 14.7686
      vertex 12.2113 3 14.8669
      vertex 12.2113 0 14.8669
    endloop
  endfacet
  facet normal 0.251994 0 -0.967729
    outer loop
      vertex 12.2113 3 14.8669
      vertex 11.8338 0 14.7686
      vertex 11.8338 3 14.7686
    endloop
  endfacet
  facet normal 0.559895 0 -0.828563
    outer loop
      vertex 11.1551 0 14.3895
      vertex 11.4783 3 14.6079
      vertex 11.4783 0 14.6079
    endloop
  endfacet
  facet normal 0.559895 0 -0.828563
    outer loop
      vertex 11.4783 3 14.6079
      vertex 11.1551 0 14.3895
      vertex 11.1551 3 14.3895
    endloop
  endfacet
  facet normal -0.559895 0 -0.828563
    outer loop
      vertex 13.7217 0 14.6079
      vertex 14.0449 3 14.3895
      vertex 14.0449 0 14.3895
    endloop
  endfacet
  facet normal -0.559895 0 -0.828563
    outer loop
      vertex 14.0449 3 14.3895
      vertex 13.7217 0 14.6079
      vertex 13.7217 3 14.6079
    endloop
  endfacet
  facet normal 0.991919 0 -0.126873
    outer loop
      vertex 10.3516 0 13.0846
      vertex 10.3021 3 12.6976
      vertex 10.3516 3 13.0846
    endloop
  endfacet
  facet normal 0.991919 0 -0.126873
    outer loop
      vertex 10.3021 3 12.6976
      vertex 10.3516 0 13.0846
      vertex 10.3021 0 12.6976
    endloop
  endfacet
  facet normal 0.956116 0 -0.292987
    outer loop
      vertex 10.4659 0 13.4576
      vertex 10.3516 3 13.0846
      vertex 10.4659 3 13.4576
    endloop
  endfacet
  facet normal 0.956116 0 -0.292987
    outer loop
      vertex 10.3516 3 13.0846
      vertex 10.4659 0 13.4576
      vertex 10.3516 0 13.0846
    endloop
  endfacet
  facet normal -0.69195 0 -0.721946
    outer loop
      vertex 14.0449 0 14.3895
      vertex 14.3265 3 14.1196
      vertex 14.3265 0 14.1196
    endloop
  endfacet
  facet normal -0.69195 0 -0.721946
    outer loop
      vertex 14.3265 3 14.1196
      vertex 14.0449 0 14.3895
      vertex 14.0449 3 14.3895
    endloop
  endfacet
  facet normal 0.927857 -0 0.372937
    outer loop
      vertex 10.4008 0 11.9265
      vertex 10.5463 3 11.5645
      vertex 10.4008 3 11.9265
    endloop
  endfacet
  facet normal 0.927857 0 0.372937
    outer loop
      vertex 10.5463 3 11.5645
      vertex 10.4008 0 11.9265
      vertex 10.5463 0 11.5645
    endloop
  endfacet
  facet normal -0.804011 0 -0.594614
    outer loop
      vertex 14.5585 0 13.8059
      vertex 14.3265 3 14.1196
      vertex 14.5585 3 13.8059
    endloop
  endfacet
  facet normal -0.804011 -0 -0.594614
    outer loop
      vertex 14.3265 3 14.1196
      vertex 14.5585 0 13.8059
      vertex 14.3265 0 14.1196
    endloop
  endfacet
  facet normal -0.991919 0 -0.126873
    outer loop
      vertex 14.8979 0 12.6976
      vertex 14.8484 3 13.0846
      vertex 14.8979 3 12.6976
    endloop
  endfacet
  facet normal -0.991919 -0 -0.126873
    outer loop
      vertex 14.8484 3 13.0846
      vertex 14.8979 0 12.6976
      vertex 14.8484 0 13.0846
    endloop
  endfacet
  facet normal -0.977554 0 0.210684
    outer loop
      vertex 14.7992 0 11.9265
      vertex 14.8814 3 12.3079
      vertex 14.7992 3 11.9265
    endloop
  endfacet
  facet normal -0.977554 0 0.210684
    outer loop
      vertex 14.8814 3 12.3079
      vertex 14.7992 0 11.9265
      vertex 14.8814 0 12.3079
    endloop
  endfacet
  facet normal 0.628158 0 0.778086
    outer loop
      vertex 11.0085 3 10.9395
      vertex 11.3121 0 10.6944
      vertex 11.3121 3 10.6944
    endloop
  endfacet
  facet normal 0.628158 0 0.778086
    outer loop
      vertex 11.3121 0 10.6944
      vertex 11.0085 3 10.9395
      vertex 11.0085 0 10.9395
    endloop
  endfacet
  facet normal 0.0848486 0 -0.996394
    outer loop
      vertex 12.2113 0 14.8669
      vertex 12.6 3 14.9
      vertex 12.6 0 14.9
    endloop
  endfacet
  facet normal 0.0848486 0 -0.996394
    outer loop
      vertex 12.6 3 14.9
      vertex 12.2113 0 14.8669
      vertex 12.2113 3 14.8669
    endloop
  endfacet
  facet normal -0.892935 0 -0.450185
    outer loop
      vertex 14.7341 0 13.4576
      vertex 14.5585 3 13.8059
      vertex 14.7341 3 13.4576
    endloop
  endfacet
  facet normal -0.892935 -0 -0.450185
    outer loop
      vertex 14.5585 3 13.8059
      vertex 14.7341 0 13.4576
      vertex 14.5585 0 13.8059
    endloop
  endfacet
  facet normal 0.333249 0 0.942839
    outer loop
      vertex 11.6526 3 10.5042
      vertex 12.0204 0 10.3742
      vertex 12.0204 3 10.3742
    endloop
  endfacet
  facet normal 0.333249 0 0.942839
    outer loop
      vertex 12.0204 0 10.3742
      vertex 11.6526 3 10.5042
      vertex 11.6526 0 10.5042
    endloop
  endfacet
  facet normal 0.487666 0 0.87303
    outer loop
      vertex 11.3121 3 10.6944
      vertex 11.6526 0 10.5042
      vertex 11.6526 3 10.5042
    endloop
  endfacet
  facet normal 0.487666 0 0.87303
    outer loop
      vertex 11.6526 0 10.5042
      vertex 11.3121 3 10.6944
      vertex 11.3121 0 10.6944
    endloop
  endfacet
  facet normal 0.69195 0 -0.721946
    outer loop
      vertex 10.8735 0 14.1196
      vertex 11.1551 3 14.3895
      vertex 11.1551 0 14.3895
    endloop
  endfacet
  facet normal 0.69195 0 -0.721946
    outer loop
      vertex 11.1551 3 14.3895
      vertex 10.8735 0 14.1196
      vertex 10.8735 3 14.1196
    endloop
  endfacet
  facet normal 0.168928 0 0.985628
    outer loop
      vertex 12.0204 3 10.3742
      vertex 12.4049 0 10.3083
      vertex 12.4049 3 10.3083
    endloop
  endfacet
  facet normal 0.168928 0 0.985628
    outer loop
      vertex 12.4049 0 10.3083
      vertex 12.0204 3 10.3742
      vertex 12.0204 0 10.3742
    endloop
  endfacet
  facet normal -0.628158 0 0.778086
    outer loop
      vertex 13.8879 3 10.6944
      vertex 14.1915 0 10.9395
      vertex 14.1915 3 10.9395
    endloop
  endfacet
  facet normal -0.628158 0 0.778086
    outer loop
      vertex 14.1915 0 10.9395
      vertex 13.8879 3 10.6944
      vertex 13.8879 0 10.6944
    endloop
  endfacet
  facet normal -0.956116 0 -0.292987
    outer loop
      vertex 14.8484 0 13.0846
      vertex 14.7341 3 13.4576
      vertex 14.8484 3 13.0846
    endloop
  endfacet
  facet normal -0.956116 -0 -0.292987
    outer loop
      vertex 14.7341 3 13.4576
      vertex 14.8484 0 13.0846
      vertex 14.7341 0 13.4576
    endloop
  endfacet
  facet normal -0.999105 0 0.0423024
    outer loop
      vertex 14.8814 0 12.3079
      vertex 14.8979 3 12.6976
      vertex 14.8814 3 12.3079
    endloop
  endfacet
  facet normal -0.999105 0 0.0423024
    outer loop
      vertex 14.8979 3 12.6976
      vertex 14.8814 0 12.3079
      vertex 14.8979 0 12.6976
    endloop
  endfacet
  facet normal -0 0 1
    outer loop
      vertex 12.4049 3 10.3083
      vertex 12.7951 0 10.3083
      vertex 12.7951 3 10.3083
    endloop
  endfacet
  facet normal 0 0 1
    outer loop
      vertex 12.7951 0 10.3083
      vertex 12.4049 3 10.3083
      vertex 12.4049 0 10.3083
    endloop
  endfacet
  facet normal 0.977554 -0 0.210684
    outer loop
      vertex 10.3186 0 12.3079
      vertex 10.4008 3 11.9265
      vertex 10.3186 3 12.3079
    endloop
  endfacet
  facet normal 0.977554 0 0.210684
    outer loop
      vertex 10.4008 3 11.9265
      vertex 10.3186 0 12.3079
      vertex 10.4008 0 11.9265
    endloop
  endfacet
  facet normal 0.851579 -0 0.524226
    outer loop
      vertex 10.5463 0 11.5645
      vertex 10.7508 3 11.2323
      vertex 10.5463 3 11.5645
    endloop
  endfacet
  facet normal 0.851579 0 0.524226
    outer loop
      vertex 10.7508 3 11.2323
      vertex 10.5463 0 11.5645
      vertex 10.7508 0 11.2323
    endloop
  endfacet
  facet normal -0.333169 0 0.942867
    outer loop
      vertex 13.1795 3 10.3742
      vertex 13.5474 0 10.5042
      vertex 13.5474 3 10.5042
    endloop
  endfacet
  facet normal -0.333169 0 0.942867
    outer loop
      vertex 13.5474 0 10.5042
      vertex 13.1795 3 10.3742
      vertex 13.1795 0 10.3742
    endloop
  endfacet
endsolid OpenSCAD_Model
