solid OpenSCAD_Model
  facet normal 1 0 0
    outer loop
      vertex 25.2 3 25.2
      vertex 25.2 0 25.2
      vertex 25.2 3 3
    endloop
  endfacet
  facet normal 1 -0 0
    outer loop
      vertex 25.2 3 3
      vertex 25.2 25.2 0
      vertex 25.2 25.2 3
    endloop
  endfacet
  facet normal 1 0 0
    outer loop
      vertex 25.2 3 3
      vertex 25.2 0 0
      vertex 25.2 25.2 0
    endloop
  endfacet
  facet normal 1 0 0
    outer loop
      vertex 25.2 0 0
      vertex 25.2 3 3
      vertex 25.2 0 25.2
    endloop
  endfacet
  facet normal -0 0 1
    outer loop
      vertex 14.8669 12.9887 3
      vertex 25.2 3 3
      vertex 25.2 25.2 3
    endloop
  endfacet
  facet normal 0 0 1
    outer loop
      vertex 25.2 3 3
      vertex 14.8669 12.9887 3
      vertex 14.9 12.6 3
    endloop
  endfacet
  facet normal 0 0 1
    outer loop
      vertex 25.2 25.2 3
      vertex 14.7686 13.3662 3
      vertex 14.8669 12.9887 3
    endloop
  endfacet
  facet normal 0 0 1
    outer loop
      vertex 25.2 25.2 3
      vertex 14.6079 13.7217 3
      vertex 14.7686 13.3662 3
    endloop
  endfacet
  facet normal 0 0 1
    outer loop
      vertex 25.2 25.2 3
      vertex 14.3895 14.0449 3
      vertex 14.6079 13.7217 3
    endloop
  endfacet
  facet normal 0 0 1
    outer loop
      vertex 25.2 25.2 3
      vertex 14.1196 14.3265 3
      vertex 14.3895 14.0449 3
    endloop
  endfacet
  facet normal 0 0 1
    outer loop
      vertex 25.2 25.2 3
      vertex 13.8059 14.5585 3
      vertex 14.1196 14.3265 3
    endloop
  endfacet
  facet normal 0 0 1
    outer loop
      vertex 25.2 25.2 3
      vertex 13.4576 14.7341 3
      vertex 13.8059 14.5585 3
    endloop
  endfacet
  facet normal 0 0 1
    outer loop
      vertex 25.2 25.2 3
      vertex 13.0846 14.8484 3
      vertex 13.4576 14.7341 3
    endloop
  endfacet
  facet normal 0 0 1
    outer loop
      vertex 25.2 25.2 3
      vertex 12.6976 14.8979 3
      vertex 13.0846 14.8484 3
    endloop
  endfacet
  facet normal -0 0 1
    outer loop
      vertex 0 25.2 3
      vertex 12.6976 14.8979 3
      vertex 25.2 25.2 3
    endloop
  endfacet
  facet normal 0 0 1
    outer loop
      vertex 12.6976 14.8979 3
      vertex 0 25.2 3
      vertex 12.3079 14.8814 3
    endloop
  endfacet
  facet normal 0 0 1
    outer loop
      vertex 12.3079 14.8814 3
      vertex 0 25.2 3
      vertex 11.9265 14.7992 3
    endloop
  endfacet
  facet normal 0 0 1
    outer loop
      vertex 11.9265 14.7992 3
      vertex 0 25.2 3
      vertex 11.5645 14.6537 3
    endloop
  endfacet
  facet normal 0 0 1
    outer loop
      vertex 0 3 3
      vertex 10.3083 12.7951 3
      vertex 0 25.2 3
    endloop
  endfacet
  facet normal 0 0 1
    outer loop
      vertex 10.3742 13.1795 3
      vertex 0 25.2 3
      vertex 10.3083 12.7951 3
    endloop
  endfacet
  facet normal 0 0 1
    outer loop
      vertex 10.5042 13.5474 3
      vertex 0 25.2 3
      vertex 10.3742 13.1795 3
    endloop
  endfacet
  facet normal 0 0 1
    outer loop
      vertex 10.6944 13.8879 3
      vertex 0 25.2 3
      vertex 10.5042 13.5474 3
    endloop
  endfacet
  facet normal 0 0 1
    outer loop
      vertex 10.9395 14.1915 3
      vertex 0 25.2 3
      vertex 10.6944 13.8879 3
    endloop
  endfacet
  facet normal 0 0 1
    outer loop
      vertex 11.2323 14.4492 3
      vertex 0 25.2 3
      vertex 10.9395 14.1915 3
    endloop
  endfacet
  facet normal 0 0 1
    outer loop
      vertex 11.5645 14.6537 3
      vertex 0 25.2 3
      vertex 11.2323 14.4492 3
    endloop
  endfacet
  facet normal -0 0 1
    outer loop
      vertex 14.8669 12.2113 3
      vertex 25.2 3 3
      vertex 14.9 12.6 3
    endloop
  endfacet
  facet normal -0 0 1
    outer loop
      vertex 14.7686 11.8338 3
      vertex 25.2 3 3
      vertex 14.8669 12.2113 3
    endloop
  endfacet
  facet normal -0 0 1
    outer loop
      vertex 14.6079 11.4783 3
      vertex 25.2 3 3
      vertex 14.7686 11.8338 3
    endloop
  endfacet
  facet normal -0 0 1
    outer loop
      vertex 14.3895 11.1551 3
      vertex 25.2 3 3
      vertex 14.6079 11.4783 3
    endloop
  endfacet
  facet normal -0 0 1
    outer loop
      vertex 14.1196 10.8735 3
      vertex 25.2 3 3
      vertex 14.3895 11.1551 3
    endloop
  endfacet
  facet normal -0 0 1
    outer loop
      vertex 13.8059 10.6415 3
      vertex 25.2 3 3
      vertex 14.1196 10.8735 3
    endloop
  endfacet
  facet normal -0 0 1
    outer loop
      vertex 13.4576 10.4659 3
      vertex 25.2 3 3
      vertex 13.8059 10.6415 3
    endloop
  endfacet
  facet normal -0 0 1
    outer loop
      vertex 13.0846 10.3516 3
      vertex 25.2 3 3
      vertex 13.4576 10.4659 3
    endloop
  endfacet
  facet normal -0 0 1
    outer loop
      vertex 12.6976 10.3021 3
      vertex 25.2 3 3
      vertex 13.0846 10.3516 3
    endloop
  endfacet
  facet normal 0 0 1
    outer loop
      vertex 0 3 3
      vertex 12.6976 10.3021 3
      vertex 12.3079 10.3186 3
    endloop
  endfacet
  facet normal 0 0 1
    outer loop
      vertex 0 3 3
      vertex 12.3079 10.3186 3
      vertex 11.9265 10.4008 3
    endloop
  endfacet
  facet normal 0 0 1
    outer loop
      vertex 0 3 3
      vertex 11.9265 10.4008 3
      vertex 11.5645 10.5463 3
    endloop
  endfacet
  facet normal 0 0 1
    outer loop
      vertex 10.3083 12.7951 3
      vertex 0 3 3
      vertex 10.3083 12.4049 3
    endloop
  endfacet
  facet normal 0 0 1
    outer loop
      vertex 10.3083 12.4049 3
      vertex 0 3 3
      vertex 10.3742 12.0204 3
    endloop
  endfacet
  facet normal 0 0 1
    outer loop
      vertex 10.3742 12.0204 3
      vertex 0 3 3
      vertex 10.5042 11.6526 3
    endloop
  endfacet
  facet normal 0 0 1
    outer loop
      vertex 12.6976 10.3021 3
      vertex 0 3 3
      vertex 25.2 3 3
    endloop
  endfacet
  facet normal 0 0 1
    outer loop
      vertex 11.2323 10.7508 3
      vertex 0 3 3
      vertex 11.5645 10.5463 3
    endloop
  endfacet
  facet normal 0 0 1
    outer loop
      vertex 10.9395 11.0085 3
      vertex 0 3 3
      vertex 11.2323 10.7508 3
    endloop
  endfacet
  facet normal 0 0 1
    outer loop
      vertex 10.6944 11.3121 3
      vertex 0 3 3
      vertex 10.9395 11.0085 3
    endloop
  endfacet
  facet normal 0 0 1
    outer loop
      vertex 10.5042 11.6526 3
      vertex 0 3 3
      vertex 10.6944 11.3121 3
    endloop
  endfacet
  facet normal 0 0 -1
    outer loop
      vertex 25.2 0 0
      vertex 14.9 12.6 0
      vertex 25.2 25.2 0
    endloop
  endfacet
  facet normal 0 0 -1
    outer loop
      vertex 25.2 0 0
      vertex 14.8669 12.2113 0
      vertex 14.9 12.6 0
    endloop
  endfacet
  facet normal 0 0 -1
    outer loop
      vertex 25.2 0 0
      vertex 14.7686 11.8338 0
      vertex 14.8669 12.2113 0
    endloop
  endfacet
  facet normal 0 0 -1
    outer loop
      vertex 25.2 0 0
      vertex 14.6079 11.4783 0
      vertex 14.7686 11.8338 0
    endloop
  endfacet
  facet normal 0 0 -1
    outer loop
      vertex 25.2 0 0
      vertex 14.3895 11.1551 0
      vertex 14.6079 11.4783 0
    endloop
  endfacet
  facet normal 0 0 -1
    outer loop
      vertex 25.2 0 0
      vertex 14.1196 10.8735 0
      vertex 14.3895 11.1551 0
    endloop
  endfacet
  facet normal 0 0 -1
    outer loop
      vertex 25.2 0 0
      vertex 13.8059 10.6415 0
      vertex 14.1196 10.8735 0
    endloop
  endfacet
  facet normal 0 0 -1
    outer loop
      vertex 25.2 0 0
      vertex 13.4576 10.4659 0
      vertex 13.8059 10.6415 0
    endloop
  endfacet
  facet normal 0 0 -1
    outer loop
      vertex 25.2 0 0
      vertex 13.0846 10.3516 0
      vertex 13.4576 10.4659 0
    endloop
  endfacet
  facet normal 0 0 -1
    outer loop
      vertex 25.2 0 0
      vertex 12.6976 10.3021 0
      vertex 13.0846 10.3516 0
    endloop
  endfacet
  facet normal 0 0 -1
    outer loop
      vertex 0 0 0
      vertex 12.6976 10.3021 0
      vertex 25.2 0 0
    endloop
  endfacet
  facet normal -0 0 -1
    outer loop
      vertex 12.6976 10.3021 0
      vertex 0 0 0
      vertex 12.3079 10.3186 0
    endloop
  endfacet
  facet normal -0 0 -1
    outer loop
      vertex 12.3079 10.3186 0
      vertex 0 0 0
      vertex 11.9265 10.4008 0
    endloop
  endfacet
  facet normal -0 0 -1
    outer loop
      vertex 11.9265 10.4008 0
      vertex 0 0 0
      vertex 11.5645 10.5463 0
    endloop
  endfacet
  facet normal -0 0 -1
    outer loop
      vertex 10.3083 12.4049 0
      vertex 0 0 0
      vertex 10.3083 12.7951 0
    endloop
  endfacet
  facet normal -0 0 -1
    outer loop
      vertex 10.3742 12.0204 0
      vertex 0 0 0
      vertex 10.3083 12.4049 0
    endloop
  endfacet
  facet normal -0 0 -1
    outer loop
      vertex 10.5042 11.6526 0
      vertex 0 0 0
      vertex 10.3742 12.0204 0
    endloop
  endfacet
  facet normal -0 0 -1
    outer loop
      vertex 10.6944 11.3121 0
      vertex 0 0 0
      vertex 10.5042 11.6526 0
    endloop
  endfacet
  facet normal -0 0 -1
    outer loop
      vertex 10.9395 11.0085 0
      vertex 0 0 0
      vertex 10.6944 11.3121 0
    endloop
  endfacet
  facet normal -0 0 -1
    outer loop
      vertex 11.2323 10.7508 0
      vertex 0 0 0
      vertex 10.9395 11.0085 0
    endloop
  endfacet
  facet normal -0 0 -1
    outer loop
      vertex 11.5645 10.5463 0
      vertex 0 0 0
      vertex 11.2323 10.7508 0
    endloop
  endfacet
  facet normal 0 0 -1
    outer loop
      vertex 14.8669 12.9887 0
      vertex 25.2 25.2 0
      vertex 14.9 12.6 0
    endloop
  endfacet
  facet normal 0 0 -1
    outer loop
      vertex 14.7686 13.3662 0
      vertex 25.2 25.2 0
      vertex 14.8669 12.9887 0
    endloop
  endfacet
  facet normal 0 0 -1
    outer loop
      vertex 14.6079 13.7217 0
      vertex 25.2 25.2 0
      vertex 14.7686 13.3662 0
    endloop
  endfacet
  facet normal 0 0 -1
    outer loop
      vertex 14.3895 14.0449 0
      vertex 25.2 25.2 0
      vertex 14.6079 13.7217 0
    endloop
  endfacet
  facet normal 0 0 -1
    outer loop
      vertex 14.1196 14.3265 0
      vertex 25.2 25.2 0
      vertex 14.3895 14.0449 0
    endloop
  endfacet
  facet normal 0 0 -1
    outer loop
      vertex 13.8059 14.5585 0
      vertex 25.2 25.2 0
      vertex 14.1196 14.3265 0
    endloop
  endfacet
  facet normal 0 0 -1
    outer loop
      vertex 13.4576 14.7341 0
      vertex 25.2 25.2 0
      vertex 13.8059 14.5585 0
    endloop
  endfacet
  facet normal 0 0 -1
    outer loop
      vertex 13.0846 14.8484 0
      vertex 25.2 25.2 0
      vertex 13.4576 14.7341 0
    endloop
  endfacet
  facet normal 0 0 -1
    outer loop
      vertex 12.6976 14.8979 0
      vertex 25.2 25.2 0
      vertex 13.0846 14.8484 0
    endloop
  endfacet
  facet normal 0 0 -1
    outer loop
      vertex 0 25.2 0
      vertex 12.6976 14.8979 0
      vertex 12.3079 14.8814 0
    endloop
  endfacet
  facet normal 0 0 -1
    outer loop
      vertex 0 25.2 0
      vertex 12.3079 14.8814 0
      vertex 11.9265 14.7992 0
    endloop
  endfacet
  facet normal 0 0 -1
    outer loop
      vertex 0 25.2 0
      vertex 11.9265 14.7992 0
      vertex 11.5645 14.6537 0
    endloop
  endfacet
  facet normal 0 0 -1
    outer loop
      vertex 0 25.2 0
      vertex 11.5645 14.6537 0
      vertex 11.2323 14.4492 0
    endloop
  endfacet
  facet normal 0 0 -1
    outer loop
      vertex 0 25.2 0
      vertex 10.3083 12.7951 0
      vertex 0 0 0
    endloop
  endfacet
  facet normal 0 0 -1
    outer loop
      vertex 10.3083 12.7951 0
      vertex 0 25.2 0
      vertex 10.3742 13.1795 0
    endloop
  endfacet
  facet normal 0 0 -1
    outer loop
      vertex 10.3742 13.1795 0
      vertex 0 25.2 0
      vertex 10.5042 13.5474 0
    endloop
  endfacet
  facet normal 0 0 -1
    outer loop
      vertex 12.6976 14.8979 0
      vertex 0 25.2 0
      vertex 25.2 25.2 0
    endloop
  endfacet
  facet normal 0 0 -1
    outer loop
      vertex 10.9395 14.1915 0
      vertex 0 25.2 0
      vertex 11.2323 14.4492 0
    endloop
  endfacet
  facet normal 0 0 -1
    outer loop
      vertex 10.6944 13.8879 0
      vertex 0 25.2 0
      vertex 10.9395 14.1915 0
    endloop
  endfacet
  facet normal 0 0 -1
    outer loop
      vertex 10.5042 13.5474 0
      vertex 0 25.2 0
      vertex 10.6944 13.8879 0
    endloop
  endfacet
  facet normal -1 0 0
    outer loop
      vertex 0 25.2 0
      vertex 0 3 3
      vertex 0 25.2 3
    endloop
  endfacet
  facet normal -1 0 0
    outer loop
      vertex 0 0 0
      vertex 0 3 3
      vertex 0 25.2 0
    endloop
  endfacet
  facet normal -1 0 0
    outer loop
      vertex 0 0 25.2
      vertex 0 3 3
      vertex 0 0 0
    endloop
  endfacet
  facet normal -1 0 0
    outer loop
      vertex 0 3 3
      vertex 0 0 25.2
      vertex 0 3 25.2
    endloop
  endfacet
  facet normal 0 1 -0
    outer loop
      vertex 25.2 25.2 0
      vertex 0 25.2 3
      vertex 25.2 25.2 3
    endloop
  endfacet
  facet normal 0 1 0
    outer loop
      vertex 0 25.2 3
      vertex 25.2 25.2 0
      vertex 0 25.2 0
    endloop
  endfacet
  facet normal 0 -1 0
    outer loop
      vertex 0 0 25.2
      vertex 12.6976 0 14.8979
      vertex 25.2 0 25.2
    endloop
  endfacet
  facet normal 0 -1 0
    outer loop
      vertex 0 0 25.2
      vertex 12.3079 0 14.8814
      vertex 12.6976 0 14.8979
    endloop
  endfacet
  facet normal 0 -1 0
    outer loop
      vertex 0 0 25.2
      vertex 11.9265 0 14.7992
      vertex 12.3079 0 14.8814
    endloop
  endfacet
  facet normal 0 -1 0
    outer loop
      vertex 0 0 25.2
      vertex 11.5645 0 14.6537
      vertex 11.9265 0 14.7992
    endloop
  endfacet
  facet normal 0 -1 0
    outer loop
      vertex 0 0 25.2
      vertex 11.2323 0 14.4492
      vertex 11.5645 0 14.6537
    endloop
  endfacet
  facet normal 0 -1 0
    outer loop
      vertex 0 0 25.2
      vertex 10.9395 0 14.1915
      vertex 11.2323 0 14.4492
    endloop
  endfacet
  facet normal 0 -1 0
    outer loop
      vertex 0 0 25.2
      vertex 10.6944 0 13.8879
      vertex 10.9395 0 14.1915
    endloop
  endfacet
  facet normal 0 -1 0
    outer loop
      vertex 0 0 25.2
      vertex 10.5042 0 13.5474
      vertex 10.6944 0 13.8879
    endloop
  endfacet
  facet normal 0 -1 0
    outer loop
      vertex 0 0 25.2
      vertex 10.3742 0 13.1795
      vertex 10.5042 0 13.5474
    endloop
  endfacet
  facet normal 0 -1 0
    outer loop
      vertex 0 0 25.2
      vertex 10.3083 0 12.7951
      vertex 10.3742 0 13.1795
    endloop
  endfacet
  facet normal 0 -1 0
    outer loop
      vertex 0 0 25.2
      vertex 10.3083 0 12.4049
      vertex 10.3083 0 12.7951
    endloop
  endfacet
  facet normal 0 -1 0
    outer loop
      vertex 0 0 0
      vertex 10.3083 0 12.4049
      vertex 0 0 25.2
    endloop
  endfacet
  facet normal 0 -1 -0
    outer loop
      vertex 10.3083 0 12.4049
      vertex 0 0 0
      vertex 10.3742 0 12.0204
    endloop
  endfacet
  facet normal 0 -1 -0
    outer loop
      vertex 10.3742 0 12.0204
      vertex 0 0 0
      vertex 10.5042 0 11.6526
    endloop
  endfacet
  facet normal 0 -1 -0
    outer loop
      vertex 12.3079 0 10.3186
      vertex 0 0 0
      vertex 12.6976 0 10.3021
    endloop
  endfacet
  facet normal 0 -1 -0
    outer loop
      vertex 11.9265 0 10.4008
      vertex 0 0 0
      vertex 12.3079 0 10.3186
    endloop
  endfacet
  facet normal 0 -1 -0
    outer loop
      vertex 11.5645 0 10.5463
      vertex 0 0 0
      vertex 11.9265 0 10.4008
    endloop
  endfacet
  facet normal 0 -1 -0
    outer loop
      vertex 11.2323 0 10.7508
      vertex 0 0 0
      vertex 11.5645 0 10.5463
    endloop
  endfacet
  facet normal 0 -1 -0
    outer loop
      vertex 10.9395 0 11.0085
      vertex 0 0 0
      vertex 11.2323 0 10.7508
    endloop
  endfacet
  facet normal 0 -1 -0
    outer loop
      vertex 10.6944 0 11.3121
      vertex 0 0 0
      vertex 10.9395 0 11.0085
    endloop
  endfacet
  facet normal 0 -1 -0
    outer loop
      vertex 10.5042 0 11.6526
      vertex 0 0 0
      vertex 10.6944 0 11.3121
    endloop
  endfacet
  facet normal 0 -1 0
    outer loop
      vertex 13.0846 0 14.8484
      vertex 25.2 0 25.2
      vertex 12.6976 0 14.8979
    endloop
  endfacet
  facet normal 0 -1 0
    outer loop
      vertex 13.4576 0 14.7341
      vertex 25.2 0 25.2
      vertex 13.0846 0 14.8484
    endloop
  endfacet
  facet normal 0 -1 0
    outer loop
      vertex 13.8059 0 14.5585
      vertex 25.2 0 25.2
      vertex 13.4576 0 14.7341
    endloop
  endfacet
  facet normal 0 -1 0
    outer loop
      vertex 14.1196 0 14.3265
      vertex 25.2 0 25.2
      vertex 13.8059 0 14.5585
    endloop
  endfacet
  facet normal 0 -1 0
    outer loop
      vertex 14.3895 0 14.0449
      vertex 25.2 0 25.2
      vertex 14.1196 0 14.3265
    endloop
  endfacet
  facet normal 0 -1 0
    outer loop
      vertex 14.6079 0 13.7217
      vertex 25.2 0 25.2
      vertex 14.3895 0 14.0449
    endloop
  endfacet
  facet normal 0 -1 0
    outer loop
      vertex 14.7686 0 13.3662
      vertex 25.2 0 25.2
      vertex 14.6079 0 13.7217
    endloop
  endfacet
  facet normal 0 -1 0
    outer loop
      vertex 14.8669 0 12.9887
      vertex 25.2 0 25.2
      vertex 14.7686 0 13.3662
    endloop
  endfacet
  facet normal 0 -1 0
    outer loop
      vertex 14.9 0 12.6
      vertex 25.2 0 25.2
      vertex 14.8669 0 12.9887
    endloop
  endfacet
  facet normal 0 -1 0
    outer loop
      vertex 25.2 0 0
      vertex 14.9 0 12.6
      vertex 14.8669 0 12.2113
    endloop
  endfacet
  facet normal 0 -1 0
    outer loop
      vertex 25.2 0 0
      vertex 14.8669 0 12.2113
      vertex 14.7686 0 11.8338
    endloop
  endfacet
  facet normal 0 -1 0
    outer loop
      vertex 25.2 0 0
      vertex 14.7686 0 11.8338
      vertex 14.6079 0 11.4783
    endloop
  endfacet
  facet normal 0 -1 0
    outer loop
      vertex 25.2 0 0
      vertex 14.6079 0 11.4783
      vertex 14.3895 0 11.1551
    endloop
  endfacet
  facet normal 0 -1 0
    outer loop
      vertex 25.2 0 0
      vertex 12.6976 0 10.3021
      vertex 0 0 0
    endloop
  endfacet
  facet normal 0 -1 0
    outer loop
      vertex 12.6976 0 10.3021
      vertex 25.2 0 0
      vertex 13.0846 0 10.3516
    endloop
  endfacet
  facet normal 0 -1 0
    outer loop
      vertex 13.0846 0 10.3516
      vertex 25.2 0 0
      vertex 13.4576 0 10.4659
    endloop
  endfacet
  facet normal 0 -1 0
    outer loop
      vertex 13.4576 0 10.4659
      vertex 25.2 0 0
      vertex 13.8059 0 10.6415
    endloop
  endfacet
  facet normal 0 -1 0
    outer loop
      vertex 14.9 0 12.6
      vertex 25.2 0 0
      vertex 25.2 0 25.2
    endloop
  endfacet
  facet normal 0 -1 0
    outer loop
      vertex 14.1196 0 10.8735
      vertex 25.2 0 0
      vertex 14.3895 0 11.1551
    endloop
  endfacet
  facet normal 0 -1 0
    outer loop
      vertex 13.8059 0 10.6415
      vertex 25.2 0 0
      vertex 14.1196 0 10.8735
    endloop
  endfacet
  facet normal 0.985621 -0.168971 0
    outer loop
      vertex 10.3083 12.7951 3
      vertex 10.3742 13.1795 0
      vertex 10.3742 13.1795 3
    endloop
  endfacet
  facet normal 0.985621 -0.168971 0
    outer loop
      vertex 10.3742 13.1795 0
      vertex 10.3083 12.7951 3
      vertex 10.3083 12.7951 0
    endloop
  endfacet
  facet normal -0.967729 -0.251994 0
    outer loop
      vertex 14.8669 12.9887 0
      vertex 14.7686 13.3662 3
      vertex 14.7686 13.3662 0
    endloop
  endfacet
  facet normal -0.967729 -0.251994 0
    outer loop
      vertex 14.7686 13.3662 3
      vertex 14.8669 12.9887 0
      vertex 14.8669 12.9887 3
    endloop
  endfacet
  facet normal -0.996394 -0.0848486 0
    outer loop
      vertex 14.9 12.6 0
      vertex 14.8669 12.9887 3
      vertex 14.8669 12.9887 0
    endloop
  endfacet
  facet normal -0.996394 -0.0848486 0
    outer loop
      vertex 14.8669 12.9887 3
      vertex 14.9 12.6 0
      vertex 14.9 12.6 3
    endloop
  endfacet
  facet normal -0.911225 -0.411909 0
    outer loop
      vertex 14.7686 13.3662 0
      vertex 14.6079 13.7217 3
      vertex 14.6079 13.7217 0
    endloop
  endfacet
  facet normal -0.911225 -0.411909 0
    outer loop
      vertex 14.6079 13.7217 3
      vertex 14.7686 13.3662 0
      vertex 14.7686 13.3662 3
    endloop
  endfacet
  facet normal -0.594614 0.804011 0
    outer loop
      vertex 14.1196 10.8735 0
      vertex 13.8059 10.6415 3
      vertex 14.1196 10.8735 3
    endloop
  endfacet
  facet normal -0.594614 0.804011 0
    outer loop
      vertex 13.8059 10.6415 3
      vertex 14.1196 10.8735 0
      vertex 13.8059 10.6415 0
    endloop
  endfacet
  facet normal 0.0423024 0.999105 -0
    outer loop
      vertex 12.6976 10.3021 0
      vertex 12.3079 10.3186 3
      vertex 12.6976 10.3021 3
    endloop
  endfacet
  facet normal 0.0423024 0.999105 0
    outer loop
      vertex 12.3079 10.3186 3
      vertex 12.6976 10.3021 0
      vertex 12.3079 10.3186 0
    endloop
  endfacet
  facet normal -0.450185 0.892935 0
    outer loop
      vertex 13.8059 10.6415 0
      vertex 13.4576 10.4659 3
      vertex 13.8059 10.6415 3
    endloop
  endfacet
  facet normal -0.450185 0.892935 0
    outer loop
      vertex 13.4576 10.4659 3
      vertex 13.8059 10.6415 0
      vertex 13.4576 10.4659 0
    endloop
  endfacet
  facet normal 0.372937 -0.927857 0
    outer loop
      vertex 11.5645 14.6537 0
      vertex 11.9265 14.7992 3
      vertex 11.5645 14.6537 3
    endloop
  endfacet
  facet normal 0.372937 -0.927857 0
    outer loop
      vertex 11.9265 14.7992 3
      vertex 11.5645 14.6537 0
      vertex 11.9265 14.7992 0
    endloop
  endfacet
  facet normal 0.524226 -0.851579 0
    outer loop
      vertex 11.2323 14.4492 0
      vertex 11.5645 14.6537 3
      vertex 11.2323 14.4492 3
    endloop
  endfacet
  facet normal 0.524226 -0.851579 0
    outer loop
      vertex 11.5645 14.6537 3
      vertex 11.2323 14.4492 0
      vertex 11.5645 14.6537 0
    endloop
  endfacet
  facet normal 0.87303 -0.487666 0
    outer loop
      vertex 10.5042 13.5474 3
      vertex 10.6944 13.8879 0
      vertex 10.6944 13.8879 3
    endloop
  endfacet
  facet normal 0.87303 -0.487666 0
    outer loop
      vertex 10.6944 13.8879 0
      vertex 10.5042 13.5474 3
      vertex 10.5042 13.5474 0
    endloop
  endfacet
  facet normal 0.66068 -0.750668 0
    outer loop
      vertex 10.9395 14.1915 0
      vertex 11.2323 14.4492 3
      vertex 10.9395 14.1915 3
    endloop
  endfacet
  facet normal 0.66068 -0.750668 0
    outer loop
      vertex 11.2323 14.4492 3
      vertex 10.9395 14.1915 0
      vertex 11.2323 14.4492 0
    endloop
  endfacet
  facet normal -0.911225 0.411909 0
    outer loop
      vertex 14.6079 11.4783 0
      vertex 14.7686 11.8338 3
      vertex 14.7686 11.8338 0
    endloop
  endfacet
  facet normal -0.911225 0.411909 0
    outer loop
      vertex 14.7686 11.8338 3
      vertex 14.6079 11.4783 0
      vertex 14.6079 11.4783 3
    endloop
  endfacet
  facet normal 0.66068 0.750668 -0
    outer loop
      vertex 11.2323 10.7508 0
      vertex 10.9395 11.0085 3
      vertex 11.2323 10.7508 3
    endloop
  endfacet
  facet normal 0.66068 0.750668 0
    outer loop
      vertex 10.9395 11.0085 3
      vertex 11.2323 10.7508 0
      vertex 10.9395 11.0085 0
    endloop
  endfacet
  facet normal -0.967729 0.251994 0
    outer loop
      vertex 14.7686 11.8338 0
      vertex 14.8669 12.2113 3
      vertex 14.8669 12.2113 0
    endloop
  endfacet
  facet normal -0.967729 0.251994 0
    outer loop
      vertex 14.8669 12.2113 3
      vertex 14.7686 11.8338 0
      vertex 14.7686 11.8338 3
    endloop
  endfacet
  facet normal -0.828563 0.559895 0
    outer loop
      vertex 14.3895 11.1551 0
      vertex 14.6079 11.4783 3
      vertex 14.6079 11.4783 0
    endloop
  endfacet
  facet normal -0.828563 0.559895 0
    outer loop
      vertex 14.6079 11.4783 3
      vertex 14.3895 11.1551 0
      vertex 14.3895 11.1551 3
    endloop
  endfacet
  facet normal -0.828563 -0.559895 0
    outer loop
      vertex 14.6079 13.7217 0
      vertex 14.3895 14.0449 3
      vertex 14.3895 14.0449 0
    endloop
  endfacet
  facet normal -0.828563 -0.559895 0
    outer loop
      vertex 14.3895 14.0449 3
      vertex 14.6079 13.7217 0
      vertex 14.6079 13.7217 3
    endloop
  endfacet
  facet normal -0.126873 0.991919 0
    outer loop
      vertex 13.0846 10.3516 0
      vertex 12.6976 10.3021 3
      vertex 13.0846 10.3516 3
    endloop
  endfacet
  facet normal -0.126873 0.991919 0
    outer loop
      vertex 12.6976 10.3021 3
      vertex 13.0846 10.3516 0
      vertex 12.6976 10.3021 0
    endloop
  endfacet
  facet normal -0.292987 0.956116 0
    outer loop
      vertex 13.4576 10.4659 0
      vertex 13.0846 10.3516 3
      vertex 13.4576 10.4659 3
    endloop
  endfacet
  facet normal -0.292987 0.956116 0
    outer loop
      vertex 13.0846 10.3516 3
      vertex 13.4576 10.4659 0
      vertex 13.0846 10.3516 0
    endloop
  endfacet
  facet normal -0.721946 -0.69195 0
    outer loop
      vertex 14.3895 14.0449 0
      vertex 14.1196 14.3265 3
      vertex 14.1196 14.3265 0
    endloop
  endfacet
  facet normal -0.721946 -0.69195 0
    outer loop
      vertex 14.1196 14.3265 3
      vertex 14.3895 14.0449 0
      vertex 14.3895 14.0449 3
    endloop
  endfacet
  facet normal 0.372937 0.927857 -0
    outer loop
      vertex 11.9265 10.4008 0
      vertex 11.5645 10.5463 3
      vertex 11.9265 10.4008 3
    endloop
  endfacet
  facet normal 0.372937 0.927857 0
    outer loop
      vertex 11.5645 10.5463 3
      vertex 11.9265 10.4008 0
      vertex 11.5645 10.5463 0
    endloop
  endfacet
  facet normal -0.594614 -0.804011 0
    outer loop
      vertex 13.8059 14.5585 0
      vertex 14.1196 14.3265 3
      vertex 13.8059 14.5585 3
    endloop
  endfacet
  facet normal -0.594614 -0.804011 -0
    outer loop
      vertex 14.1196 14.3265 3
      vertex 13.8059 14.5585 0
      vertex 14.1196 14.3265 0
    endloop
  endfacet
  facet normal -0.126873 -0.991919 0
    outer loop
      vertex 12.6976 14.8979 0
      vertex 13.0846 14.8484 3
      vertex 12.6976 14.8979 3
    endloop
  endfacet
  facet normal -0.126873 -0.991919 -0
    outer loop
      vertex 13.0846 14.8484 3
      vertex 12.6976 14.8979 0
      vertex 13.0846 14.8484 0
    endloop
  endfacet
  facet normal 0.210684 -0.977554 0
    outer loop
      vertex 11.9265 14.7992 0
      vertex 12.3079 14.8814 3
      vertex 11.9265 14.7992 3
    endloop
  endfacet
  facet normal 0.210684 -0.977554 0
    outer loop
      vertex 12.3079 14.8814 3
      vertex 11.9265 14.7992 0
      vertex 12.3079 14.8814 0
    endloop
  endfacet
  facet normal 0.778086 0.628158 0
    outer loop
      vertex 10.9395 11.0085 3
      vertex 10.6944 11.3121 0
      vertex 10.6944 11.3121 3
    endloop
  endfacet
  facet normal 0.778086 0.628158 0
    outer loop
      vertex 10.6944 11.3121 0
      vertex 10.9395 11.0085 3
      vertex 10.9395 11.0085 0
    endloop
  endfacet
  facet normal -0.996394 0.0848486 0
    outer loop
      vertex 14.8669 12.2113 0
      vertex 14.9 12.6 3
      vertex 14.9 12.6 0
    endloop
  endfacet
  facet normal -0.996394 0.0848486 0
    outer loop
      vertex 14.9 12.6 3
      vertex 14.8669 12.2113 0
      vertex 14.8669 12.2113 3
    endloop
  endfacet
  facet normal -0.450185 -0.892935 0
    outer loop
      vertex 13.4576 14.7341 0
      vertex 13.8059 14.5585 3
      vertex 13.4576 14.7341 3
    endloop
  endfacet
  facet normal -0.450185 -0.892935 -0
    outer loop
      vertex 13.8059 14.5585 3
      vertex 13.4576 14.7341 0
      vertex 13.8059 14.5585 0
    endloop
  endfacet
  facet normal 0.942839 0.333249 0
    outer loop
      vertex 10.5042 11.6526 3
      vertex 10.3742 12.0204 0
      vertex 10.3742 12.0204 3
    endloop
  endfacet
  facet normal 0.942839 0.333249 0
    outer loop
      vertex 10.3742 12.0204 0
      vertex 10.5042 11.6526 3
      vertex 10.5042 11.6526 0
    endloop
  endfacet
  facet normal 0.87303 0.487666 0
    outer loop
      vertex 10.6944 11.3121 3
      vertex 10.5042 11.6526 0
      vertex 10.5042 11.6526 3
    endloop
  endfacet
  facet normal 0.87303 0.487666 0
    outer loop
      vertex 10.5042 11.6526 0
      vertex 10.6944 11.3121 3
      vertex 10.6944 11.3121 0
    endloop
  endfacet
  facet normal -0.721946 0.69195 0
    outer loop
      vertex 14.1196 10.8735 0
      vertex 14.3895 11.1551 3
      vertex 14.3895 11.1551 0
    endloop
  endfacet
  facet normal -0.721946 0.69195 0
    outer loop
      vertex 14.3895 11.1551 3
      vertex 14.1196 10.8735 0
      vertex 14.1196 10.8735 3
    endloop
  endfacet
  facet normal 0.985628 0.168928 0
    outer loop
      vertex 10.3742 12.0204 3
      vertex 10.3083 12.4049 0
      vertex 10.3083 12.4049 3
    endloop
  endfacet
  facet normal 0.985628 0.168928 0
    outer loop
      vertex 10.3083 12.4049 0
      vertex 10.3742 12.0204 3
      vertex 10.3742 12.0204 0
    endloop
  endfacet
  facet normal 0.778086 -0.628158 0
    outer loop
      vertex 10.6944 13.8879 3
      vertex 10.9395 14.1915 0
      vertex 10.9395 14.1915 3
    endloop
  endfacet
  facet normal 0.778086 -0.628158 0
    outer loop
      vertex 10.9395 14.1915 0
      vertex 10.6944 13.8879 3
      vertex 10.6944 13.8879 0
    endloop
  endfacet
  facet normal -0.292987 -0.956116 0
    outer loop
      vertex 13.0846 14.8484 0
      vertex 13.4576 14.7341 3
      vertex 13.0846 14.8484 3
    endloop
  endfacet
  facet normal -0.292987 -0.956116 -0
    outer loop
      vertex 13.4576 14.7341 3
      vertex 13.0846 14.8484 0
      vertex 13.4576 14.7341 0
    endloop
  endfacet
  facet normal 0.0423024 -0.999105 0
    outer loop
      vertex 12.3079 14.8814 0
      vertex 12.6976 14.8979 3
      vertex 12.3079 14.8814 3
    endloop
  endfacet
  facet normal 0.0423024 -0.999105 0
    outer loop
      vertex 12.6976 14.8979 3
      vertex 12.3079 14.8814 0
      vertex 12.6976 14.8979 0
    endloop
  endfacet
  facet normal 1 -0 0
    outer loop
      vertex 10.3083 12.4049 3
      vertex 10.3083 12.7951 0
      vertex 10.3083 12.7951 3
    endloop
  endfacet
  facet normal 1 0 0
    outer loop
      vertex 10.3083 12.7951 0
      vertex 10.3083 12.4049 3
      vertex 10.3083 12.4049 0
    endloop
  endfacet
  facet normal 0.210684 0.977554 -0
    outer loop
      vertex 12.3079 10.3186 0
      vertex 11.9265 10.4008 3
      vertex 12.3079 10.3186 3
    endloop
  endfacet
  facet normal 0.210684 0.977554 0
    outer loop
      vertex 11.9265 10.4008 3
      vertex 12.3079 10.3186 0
      vertex 11.9265 10.4008 0
    endloop
  endfacet
  facet normal 0.524226 0.851579 -0
    outer loop
      vertex 11.5645 10.5463 0
      vertex 11.2323 10.7508 3
      vertex 11.5645 10.5463 3
    endloop
  endfacet
  facet normal 0.524226 0.851579 0
    outer loop
      vertex 11.2323 10.7508 3
      vertex 11.5645 10.5463 0
      vertex 11.2323 10.7508 0
    endloop
  endfacet
  facet normal 0.942867 -0.333169 0
    outer loop
      vertex 10.3742 13.1795 3
      vertex 10.5042 13.5474 0
      vertex 10.5042 13.5474 3
    endloop
  endfacet
  facet normal 0.942867 -0.333169 0
    outer loop
      vertex 10.5042 13.5474 0
      vertex 10.3742 13.1795 3
      vertex 10.3742 13.1795 0
    endloop
  endfacet
  facet normal 0 1 0
    outer loop
      vertex 25.2 3 25.2
      vertex 12.6976 3 14.8979
      vertex 0 3 25.2
    endloop
  endfacet
  facet normal 0 1 0
    outer loop
      vertex 25.2 3 25.2
      vertex 13.0846 3 14.8484
      vertex 12.6976 3 14.8979
    endloop
  endfacet
  facet normal 0 1 0
    outer loop
      vertex 25.2 3 25.2
      vertex 13.4576 3 14.7341
      vertex 13.0846 3 14.8484
    endloop
  endfacet
  facet normal 0 1 0
    outer loop
      vertex 25.2 3 25.2
      vertex 13.8059 3 14.5585
      vertex 13.4576 3 14.7341
    endloop
  endfacet
  facet normal 0 1 0
    outer loop
      vertex 25.2 3 25.2
      vertex 14.1196 3 14.3265
      vertex 13.8059 3 14.5585
    endloop
  endfacet
  facet normal 0 1 0
    outer loop
      vertex 25.2 3 25.2
      vertex 14.3895 3 14.0449
      vertex 14.1196 3 14.3265
    endloop
  endfacet
  facet normal 0 1 0
    outer loop
      vertex 25.2 3 25.2
      vertex 14.6079 3 13.7217
      vertex 14.3895 3 14.0449
    endloop
  endfacet
  facet normal 0 1 0
    outer loop
      vertex 25.2 3 25.2
      vertex 14.7686 3 13.3662
      vertex 14.6079 3 13.7217
    endloop
  endfacet
  facet normal 0 1 0
    outer loop
      vertex 25.2 3 25.2
      vertex 14.8669 3 12.9887
      vertex 14.7686 3 13.3662
    endloop
  endfacet
  facet normal 0 1 -0
    outer loop
      vertex 25.2 3 3
      vertex 14.8669 3 12.9887
      vertex 25.2 3 25.2
    endloop
  endfacet
  facet normal 0 1 0
    outer loop
      vertex 14.8669 3 12.9887
      vertex 25.2 3 3
      vertex 14.9 3 12.6
    endloop
  endfacet
  facet normal 0 1 0
    outer loop
      vertex 14.9 3 12.6
      vertex 25.2 3 3
      vertex 14.8669 3 12.2113
    endloop
  endfacet
  facet normal 0 1 0
    outer loop
      vertex 14.8669 3 12.2113
      vertex 25.2 3 3
      vertex 14.7686 3 11.8338
    endloop
  endfacet
  facet normal 0 1 0
    outer loop
      vertex 14.7686 3 11.8338
      vertex 25.2 3 3
      vertex 14.6079 3 11.4783
    endloop
  endfacet
  facet normal 0 1 0
    outer loop
      vertex 13.0846 3 10.3516
      vertex 25.2 3 3
      vertex 12.6976 3 10.3021
    endloop
  endfacet
  facet normal 0 1 0
    outer loop
      vertex 13.4576 3 10.4659
      vertex 25.2 3 3
      vertex 13.0846 3 10.3516
    endloop
  endfacet
  facet normal 0 1 0
    outer loop
      vertex 13.8059 3 10.6415
      vertex 25.2 3 3
      vertex 13.4576 3 10.4659
    endloop
  endfacet
  facet normal 0 1 0
    outer loop
      vertex 14.1196 3 10.8735
      vertex 25.2 3 3
      vertex 13.8059 3 10.6415
    endloop
  endfacet
  facet normal 0 1 0
    outer loop
      vertex 14.3895 3 11.1551
      vertex 25.2 3 3
      vertex 14.1196 3 10.8735
    endloop
  endfacet
  facet normal 0 1 0
    outer loop
      vertex 14.6079 3 11.4783
      vertex 25.2 3 3
      vertex 14.3895 3 11.1551
    endloop
  endfacet
  facet normal 0 1 -0
    outer loop
      vertex 12.3079 3 14.8814
      vertex 0 3 25.2
      vertex 12.6976 3 14.8979
    endloop
  endfacet
  facet normal 0 1 -0
    outer loop
      vertex 11.9265 3 14.7992
      vertex 0 3 25.2
      vertex 12.3079 3 14.8814
    endloop
  endfacet
  facet normal 0 1 -0
    outer loop
      vertex 11.5645 3 14.6537
      vertex 0 3 25.2
      vertex 11.9265 3 14.7992
    endloop
  endfacet
  facet normal 0 1 -0
    outer loop
      vertex 11.2323 3 14.4492
      vertex 0 3 25.2
      vertex 11.5645 3 14.6537
    endloop
  endfacet
  facet normal 0 1 -0
    outer loop
      vertex 10.9395 3 14.1915
      vertex 0 3 25.2
      vertex 11.2323 3 14.4492
    endloop
  endfacet
  facet normal 0 1 -0
    outer loop
      vertex 10.6944 3 13.8879
      vertex 0 3 25.2
      vertex 10.9395 3 14.1915
    endloop
  endfacet
  facet normal 0 1 -0
    outer loop
      vertex 10.5042 3 13.5474
      vertex 0 3 25.2
      vertex 10.6944 3 13.8879
    endloop
  endfacet
  facet normal 0 1 -0
    outer loop
      vertex 10.3742 3 13.1795
      vertex 0 3 25.2
      vertex 10.5042 3 13.5474
    endloop
  endfacet
  facet normal 0 1 -0
    outer loop
      vertex 10.3083 3 12.7951
      vertex 0 3 25.2
      vertex 10.3742 3 13.1795
    endloop
  endfacet
  facet normal 0 1 0
    outer loop
      vertex 0 3 3
      vertex 10.3083 3 12.7951
      vertex 10.3083 3 12.4049
    endloop
  endfacet
  facet normal 0 1 0
    outer loop
      vertex 0 3 3
      vertex 10.3083 3 12.4049
      vertex 10.3742 3 12.0204
    endloop
  endfacet
  facet normal 0 1 0
    outer loop
      vertex 0 3 3
      vertex 10.3742 3 12.0204
      vertex 10.5042 3 11.6526
    endloop
  endfacet
  facet normal 0 1 0
    outer loop
      vertex 0 3 3
      vertex 10.5042 3 11.6526
      vertex 10.6944 3 11.3121
    endloop
  endfacet
  facet normal 0 1 0
    outer loop
      vertex 0 3 3
      vertex 12.6976 3 10.3021
      vertex 25.2 3 3
    endloop
  endfacet
  facet normal 0 1 0
    outer loop
      vertex 12.6976 3 10.3021
      vertex 0 3 3
      vertex 12.3079 3 10.3186
    endloop
  endfacet
  facet normal 0 1 0
    outer loop
      vertex 12.3079 3 10.3186
      vertex 0 3 3
      vertex 11.9265 3 10.4008
    endloop
  endfacet
  facet normal 0 1 0
    outer loop
      vertex 10.3083 3 12.7951
      vertex 0 3 3
      vertex 0 3 25.2
    endloop
  endfacet
  facet normal 0 1 0
    outer loop
      vertex 10.9395 3 11.0085
      vertex 0 3 3
      vertex 10.6944 3 11.3121
    endloop
  endfacet
  facet normal 0 1 0
    outer loop
      vertex 11.2323 3 10.7508
      vertex 0 3 3
      vertex 10.9395 3 11.0085
    endloop
  endfacet
  facet normal 0 1 0
    outer loop
      vertex 11.5645 3 10.5463
      vertex 0 3 3
      vertex 11.2323 3 10.7508
    endloop
  endfacet
  facet normal 0 1 0
    outer loop
      vertex 11.9265 3 10.4008
      vertex 0 3 3
      vertex 11.5645 3 10.5463
    endloop
  endfacet
  facet normal -0 0 1
    outer loop
      vertex 0 3 25.2
      vertex 25.2 0 25.2
      vertex 25.2 3 25.2
    endloop
  endfacet
  facet normal 0 0 1
    outer loop
      vertex 25.2 0 25.2
      vertex 0 3 25.2
      vertex 0 0 25.2
    endloop
  endfacet
  facet normal 0.985621 0 -0.168971
    outer loop
      vertex 10.3742 0 13.1795
      vertex 10.3083 3 12.7951
      vertex 10.3742 3 13.1795
    endloop
  endfacet
  facet normal 0.985621 0 -0.168971
    outer loop
      vertex 10.3083 3 12.7951
      vertex 10.3742 0 13.1795
      vertex 10.3083 0 12.7951
    endloop
  endfacet
  facet normal -0.967729 0 -0.251994
    outer loop
      vertex 14.8669 0 12.9887
      vertex 14.7686 3 13.3662
      vertex 14.8669 3 12.9887
    endloop
  endfacet
  facet normal -0.967729 -0 -0.251994
    outer loop
      vertex 14.7686 3 13.3662
      vertex 14.8669 0 12.9887
      vertex 14.7686 0 13.3662
    endloop
  endfacet
  facet normal -0.996394 0 -0.0848486
    outer loop
      vertex 14.9 0 12.6
      vertex 14.8669 3 12.9887
      vertex 14.9 3 12.6
    endloop
  endfacet
  facet normal -0.996394 -0 -0.0848486
    outer loop
      vertex 14.8669 3 12.9887
      vertex 14.9 0 12.6
      vertex 14.8669 0 12.9887
    endloop
  endfacet
  facet normal -0.911225 0 -0.411909
    outer loop
      vertex 14.7686 0 13.3662
      vertex 14.6079 3 13.7217
      vertex 14.7686 3 13.3662
    endloop
  endfacet
  facet normal -0.911225 -0 -0.411909
    outer loop
      vertex 14.6079 3 13.7217
      vertex 14.7686 0 13.3662
      vertex 14.6079 0 13.7217
    endloop
  endfacet
  facet normal -0.594614 0 0.804011
    outer loop
      vertex 13.8059 3 10.6415
      vertex 14.1196 0 10.8735
      vertex 14.1196 3 10.8735
    endloop
  endfacet
  facet normal -0.594614 0 0.804011
    outer loop
      vertex 14.1196 0 10.8735
      vertex 13.8059 3 10.6415
      vertex 13.8059 0 10.6415
    endloop
  endfacet
  facet normal 0.0423024 0 0.999105
    outer loop
      vertex 12.3079 3 10.3186
      vertex 12.6976 0 10.3021
      vertex 12.6976 3 10.3021
    endloop
  endfacet
  facet normal 0.0423024 0 0.999105
    outer loop
      vertex 12.6976 0 10.3021
      vertex 12.3079 3 10.3186
      vertex 12.3079 0 10.3186
    endloop
  endfacet
  facet normal -0.450185 0 0.892935
    outer loop
      vertex 13.4576 3 10.4659
      vertex 13.8059 0 10.6415
      vertex 13.8059 3 10.6415
    endloop
  endfacet
  facet normal -0.450185 0 0.892935
    outer loop
      vertex 13.8059 0 10.6415
      vertex 13.4576 3 10.4659
      vertex 13.4576 0 10.4659
    endloop
  endfacet
  facet normal 0.372937 0 -0.927857
    outer loop
      vertex 11.5645 0 14.6537
      vertex 11.9265 3 14.7992
      vertex 11.9265 0 14.7992
    endloop
  endfacet
  facet normal 0.372937 0 -0.927857
    outer loop
      vertex 11.9265 3 14.7992
      vertex 11.5645 0 14.6537
      vertex 11.5645 3 14.6537
    endloop
  endfacet
  facet normal 0.524226 0 -0.851579
    outer loop
      vertex 11.2323 0 14.4492
      vertex 11.5645 3 14.6537
      vertex 11.5645 0 14.6537
    endloop
  endfacet
  facet normal 0.524226 0 -0.851579
    outer loop
      vertex 11.5645 3 14.6537
      vertex 11.2323 0 14.4492
      vertex 11.2323 3 14.4492
    endloop
  endfacet
  facet normal 0.87303 0 -0.487666
    outer loop
      vertex 10.6944 0 13.8879
      vertex 10.5042 3 13.5474
      vertex 10.6944 3 13.8879
    endloop
  endfacet
  facet normal 0.87303 0 -0.487666
    outer loop
      vertex 10.5042 3 13.5474
      vertex 10.6944 0 13.8879
      vertex 10.5042 0 13.5474
    endloop
  endfacet
  facet normal 0.66068 0 -0.750668
    outer loop
      vertex 10.9395 0 14.1915
      vertex 11.2323 3 14.4492
      vertex 11.2323 0 14.4492
    endloop
  endfacet
  facet normal 0.66068 0 -0.750668
    outer loop
      vertex 11.2323 3 14.4492
      vertex 10.9395 0 14.1915
      vertex 10.9395 3 14.1915
    endloop
  endfacet
  facet normal -0.911225 0 0.411909
    outer loop
      vertex 14.6079 0 11.4783
      vertex 14.7686 3 11.8338
      vertex 14.6079 3 11.4783
    endloop
  endfacet
  facet normal -0.911225 0 0.411909
    outer loop
      vertex 14.7686 3 11.8338
      vertex 14.6079 0 11.4783
      vertex 14.7686 0 11.8338
    endloop
  endfacet
  facet normal 0.66068 0 0.750668
    outer loop
      vertex 10.9395 3 11.0085
      vertex 11.2323 0 10.7508
      vertex 11.2323 3 10.7508
    endloop
  endfacet
  facet normal 0.66068 0 0.750668
    outer loop
      vertex 11.2323 0 10.7508
      vertex 10.9395 3 11.0085
      vertex 10.9395 0 11.0085
    endloop
  endfacet
  facet normal -0.967729 0 0.251994
    outer loop
      vertex 14.7686 0 11.8338
      vertex 14.8669 3 12.2113
      vertex 14.7686 3 11.8338
    endloop
  endfacet
  facet normal -0.967729 0 0.251994
    outer loop
      vertex 14.8669 3 12.2113
      vertex 14.7686 0 11.8338
      vertex 14.8669 0 12.2113
    endloop
  endfacet
  facet normal -0.828563 0 0.559895
    outer loop
      vertex 14.3895 0 11.1551
      vertex 14.6079 3 11.4783
      vertex 14.3895 3 11.1551
    endloop
  endfacet
  facet normal -0.828563 0 0.559895
    outer loop
      vertex 14.6079 3 11.4783
      vertex 14.3895 0 11.1551
      vertex 14.6079 0 11.4783
    endloop
  endfacet
  facet normal -0.828563 0 -0.559895
    outer loop
      vertex 14.6079 0 13.7217
      vertex 14.3895 3 14.0449
      vertex 14.6079 3 13.7217
    endloop
  endfacet
  facet normal -0.828563 -0 -0.559895
    outer loop
      vertex 14.3895 3 14.0449
      vertex 14.6079 0 13.7217
      vertex 14.3895 0 14.0449
    endloop
  endfacet
  facet normal -0.126873 0 0.991919
    outer loop
      vertex 12.6976 3 10.3021
      vertex 13.0846 0 10.3516
      vertex 13.0846 3 10.3516
    endloop
  endfacet
  facet normal -0.126873 0 0.991919
    outer loop
      vertex 13.0846 0 10.3516
      vertex 12.6976 3 10.3021
      vertex 12.6976 0 10.3021
    endloop
  endfacet
  facet normal -0.292987 0 0.956116
    outer loop
      vertex 13.0846 3 10.3516
      vertex 13.4576 0 10.4659
      vertex 13.4576 3 10.4659
    endloop
  endfacet
  facet normal -0.292987 0 0.956116
    outer loop
      vertex 13.4576 0 10.4659
      vertex 13.0846 3 10.3516
      vertex 13.0846 0 10.3516
    endloop
  endfacet
  facet normal -0.721946 0 -0.69195
    outer loop
      vertex 14.3895 0 14.0449
      vertex 14.1196 3 14.3265
      vertex 14.3895 3 14.0449
    endloop
  endfacet
  facet normal -0.721946 -0 -0.69195
    outer loop
      vertex 14.1196 3 14.3265
      vertex 14.3895 0 14.0449
      vertex 14.1196 0 14.3265
    endloop
  endfacet
  facet normal 0.372937 0 0.927857
    outer loop
      vertex 11.5645 3 10.5463
      vertex 11.9265 0 10.4008
      vertex 11.9265 3 10.4008
    endloop
  endfacet
  facet normal 0.372937 0 0.927857
    outer loop
      vertex 11.9265 0 10.4008
      vertex 11.5645 3 10.5463
      vertex 11.5645 0 10.5463
    endloop
  endfacet
  facet normal -0.594614 0 -0.804011
    outer loop
      vertex 13.8059 0 14.5585
      vertex 14.1196 3 14.3265
      vertex 14.1196 0 14.3265
    endloop
  endfacet
  facet normal -0.594614 0 -0.804011
    outer loop
      vertex 14.1196 3 14.3265
      vertex 13.8059 0 14.5585
      vertex 13.8059 3 14.5585
    endloop
  endfacet
  facet normal -0.126873 0 -0.991919
    outer loop
      vertex 12.6976 0 14.8979
      vertex 13.0846 3 14.8484
      vertex 13.0846 0 14.8484
    endloop
  endfacet
  facet normal -0.126873 0 -0.991919
    outer loop
      vertex 13.0846 3 14.8484
      vertex 12.6976 0 14.8979
      vertex 12.6976 3 14.8979
    endloop
  endfacet
  facet normal 0.210684 0 -0.977554
    outer loop
      vertex 11.9265 0 14.7992
      vertex 12.3079 3 14.8814
      vertex 12.3079 0 14.8814
    endloop
  endfacet
  facet normal 0.210684 0 -0.977554
    outer loop
      vertex 12.3079 3 14.8814
      vertex 11.9265 0 14.7992
      vertex 11.9265 3 14.7992
    endloop
  endfacet
  facet normal 0.778086 -0 0.628158
    outer loop
      vertex 10.6944 0 11.3121
      vertex 10.9395 3 11.0085
      vertex 10.6944 3 11.3121
    endloop
  endfacet
  facet normal 0.778086 0 0.628158
    outer loop
      vertex 10.9395 3 11.0085
      vertex 10.6944 0 11.3121
      vertex 10.9395 0 11.0085
    endloop
  endfacet
  facet normal -0.996394 0 0.0848486
    outer loop
      vertex 14.8669 0 12.2113
      vertex 14.9 3 12.6
      vertex 14.8669 3 12.2113
    endloop
  endfacet
  facet normal -0.996394 0 0.0848486
    outer loop
      vertex 14.9 3 12.6
      vertex 14.8669 0 12.2113
      vertex 14.9 0 12.6
    endloop
  endfacet
  facet normal -0.450185 0 -0.892935
    outer loop
      vertex 13.4576 0 14.7341
      vertex 13.8059 3 14.5585
      vertex 13.8059 0 14.5585
    endloop
  endfacet
  facet normal -0.450185 0 -0.892935
    outer loop
      vertex 13.8059 3 14.5585
      vertex 13.4576 0 14.7341
      vertex 13.4576 3 14.7341
    endloop
  endfacet
  facet normal 0.942839 -0 0.333249
    outer loop
      vertex 10.3742 0 12.0204
      vertex 10.5042 3 11.6526
      vertex 10.3742 3 12.0204
    endloop
  endfacet
  facet normal 0.942839 0 0.333249
    outer loop
      vertex 10.5042 3 11.6526
      vertex 10.3742 0 12.0204
      vertex 10.5042 0 11.6526
    endloop
  endfacet
  facet normal 0.87303 -0 0.487666
    outer loop
      vertex 10.5042 0 11.6526
      vertex 10.6944 3 11.3121
      vertex 10.5042 3 11.6526
    endloop
  endfacet
  facet normal 0.87303 0 0.487666
    outer loop
      vertex 10.6944 3 11.3121
      vertex 10.5042 0 11.6526
      vertex 10.6944 0 11.3121
    endloop
  endfacet
  facet normal -0.721946 0 0.69195
    outer loop
      vertex 14.1196 0 10.8735
      vertex 14.3895 3 11.1551
      vertex 14.1196 3 10.8735
    endloop
  endfacet
  facet normal -0.721946 0 0.69195
    outer loop
      vertex 14.3895 3 11.1551
      vertex 14.1196 0 10.8735
      vertex 14.3895 0 11.1551
    endloop
  endfacet
  facet normal 0.985628 -0 0.168928
    outer loop
      vertex 10.3083 0 12.4049
      vertex 10.3742 3 12.0204
      vertex 10.3083 3 12.4049
    endloop
  endfacet
  facet normal 0.985628 0 0.168928
    outer loop
      vertex 10.3742 3 12.0204
      vertex 10.3083 0 12.4049
      vertex 10.3742 0 12.0204
    endloop
  endfacet
  facet normal 0.778086 0 -0.628158
    outer loop
      vertex 10.9395 0 14.1915
      vertex 10.6944 3 13.8879
      vertex 10.9395 3 14.1915
    endloop
  endfacet
  facet normal 0.778086 0 -0.628158
    outer loop
      vertex 10.6944 3 13.8879
      vertex 10.9395 0 14.1915
      vertex 10.6944 0 13.8879
    endloop
  endfacet
  facet normal -0.292987 0 -0.956116
    outer loop
      vertex 13.0846 0 14.8484
      vertex 13.4576 3 14.7341
      vertex 13.4576 0 14.7341
    endloop
  endfacet
  facet normal -0.292987 0 -0.956116
    outer loop
      vertex 13.4576 3 14.7341
      vertex 13.0846 0 14.8484
      vertex 13.0846 3 14.8484
    endloop
  endfacet
  facet normal 0.0423024 0 -0.999105
    outer loop
      vertex 12.3079 0 14.8814
      vertex 12.6976 3 14.8979
      vertex 12.6976 0 14.8979
    endloop
  endfacet
  facet normal 0.0423024 0 -0.999105
    outer loop
      vertex 12.6976 3 14.8979
      vertex 12.3079 0 14.8814
      vertex 12.3079 3 14.8814
    endloop
  endfacet
  facet normal 1 -0 0
    outer loop
      vertex 10.3083 0 12.7951
      vertex 10.3083 3 12.4049
      vertex 10.3083 3 12.7951
    endloop
  endfacet
  facet normal 1 0 0
    outer loop
      vertex 10.3083 3 12.4049
      vertex 10.3083 0 12.7951
      vertex 10.3083 0 12.4049
    endloop
  endfacet
  facet normal 0.210684 0 0.977554
    outer loop
      vertex 11.9265 3 10.4008
      vertex 12.3079 0 10.3186
      vertex 12.3079 3 10.3186
    endloop
  endfacet
  facet normal 0.210684 0 0.977554
    outer loop
      vertex 12.3079 0 10.3186
      vertex 11.9265 3 10.4008
      vertex 11.9265 0 10.4008
    endloop
  endfacet
  facet normal 0.524226 0 0.851579
    outer loop
      vertex 11.2323 3 10.7508
      vertex 11.5645 0 10.5463
      vertex 11.5645 3 10.5463
    endloop
  endfacet
  facet normal 0.524226 0 0.851579
    outer loop
      vertex 11.5645 0 10.5463
      vertex 11.2323 3 10.7508
      vertex 11.2323 0 10.7508
    endloop
  endfacet
  facet normal 0.942867 0 -0.333169
    outer loop
      vertex 10.5042 0 13.5474
      vertex 10.3742 3 13.1795
      vertex 10.5042 3 13.5474
    endloop
  endfacet
  facet normal 0.942867 0 -0.333169
    outer loop
      vertex 10.3742 3 13.1795
      vertex 10.5042 0 13.5474
      vertex 10.3742 0 13.1795
    endloop
  endfacet
endsolid OpenSCAD_Model
